# Lab 05 portable L-system preview; XY plane, +Y up
v 0.000000000 0.000000000 0
v 0.000000000 0.800000000 0
l 1 2
v 0.000000000 0.800000000 0
v 0.000000000 1.250000000 0
l 3 4
v 0.000000000 1.250000000 0
v 0.267028950 1.357886699 0
l 5 6
v 0.267028950 1.357886699 0
v 0.913103657 0.938320878 0
l 7 8
v 0.267028950 1.357886699 0
v 0.440321292 2.108498296 0
l 9 10
v 0.267028950 1.357886699 0
v 0.500679281 1.452287560 0
l 11 12
v 0.500679281 1.452287560 0
v 0.719643021 1.540754654 0
l 13 14
v 0.719643021 1.540754654 0
v 1.249424280 1.196710681 0
l 15 16
v 0.719643021 1.540754654 0
v 0.861742741 2.156256163 0
l 17 18
v 0.719643021 1.540754654 0
v 0.911236292 1.618163360 0
l 19 20
v 0.911236292 1.618163360 0
v 1.090786558 1.690706376 0
l 21 22
v 1.090786558 1.690706376 0
v 1.525207191 1.408590319 0
l 23 24
v 1.090786558 1.690706376 0
v 1.207308329 2.195417614 0
l 25 26
v 1.090786558 1.690706376 0
v 1.247893041 1.754181516 0
l 27 28
v 1.247893041 1.754181516 0
v 1.395124259 1.813666789 0
l 29 30
v 1.395124259 1.813666789 0
v 1.523951575 1.865716403 0
l 31 32
v 0.000000000 1.250000000 0
v 0.000000000 1.700000000 0
l 33 34
v 0.000000000 1.700000000 0
v -0.267028950 1.807886699 0
l 35 36
v -0.267028950 1.807886699 0
v -0.440321292 2.558498296 0
l 37 38
v -0.267028950 1.807886699 0
v -0.913103657 1.388320878 0
l 39 40
v -0.267028950 1.807886699 0
v -0.500679281 1.902287560 0
l 41 42
v -0.500679281 1.902287560 0
v -0.719643021 1.990754654 0
l 43 44
v -0.719643021 1.990754654 0
v -0.861742741 2.606256163 0
l 45 46
v -0.719643021 1.990754654 0
v -1.249424280 1.646710681 0
l 47 48
v -0.719643021 1.990754654 0
v -0.911236292 2.068163360 0
l 49 50
v -0.911236292 2.068163360 0
v -1.090786558 2.140706376 0
l 51 52
v -1.090786558 2.140706376 0
v -1.207308329 2.645417614 0
l 53 54
v -1.090786558 2.140706376 0
v -1.525207191 1.858590319 0
l 55 56
v -1.090786558 2.140706376 0
v -1.247893041 2.204181516 0
l 57 58
v -1.247893041 2.204181516 0
v -1.395124259 2.263666789 0
l 59 60
v -1.395124259 2.263666789 0
v -1.523951575 2.315716403 0
l 61 62
v 0.000000000 1.700000000 0
v -0.010601664 2.104861217 0
l 63 64
v -0.010601664 2.104861217 0
v 0.227100307 2.208216975 0
l 65 66
v 0.227100307 2.208216975 0
v 0.818252947 1.845958172 0
l 67 68
v 0.227100307 2.208216975 0
v 0.365326121 2.887618556 0
l 69 70
v 0.227100307 2.208216975 0
v 0.435089532 2.298653264 0
l 71 72
v 0.435089532 2.298653264 0
v 0.630005149 2.383404986 0
l 73 74
v 0.630005149 2.383404986 0
v 1.114750313 2.086352767 0
l 75 76
v 0.630005149 2.383404986 0
v 0.743350316 2.940514283 0
l 77 78
v 0.630005149 2.383404986 0
v 0.800556313 2.457562743 0
l 79 80
v 0.800556313 2.457562743 0
v 0.960387118 2.527059155 0
l 81 82
v 0.960387118 2.527059155 0
v 1.100239073 2.587868516 0
l 83 84
v -0.010601664 2.104861217 0
v -0.021203328 2.509722433 0
l 85 86
v -0.021203328 2.509722433 0
v -0.263988760 2.600496186 0
l 87 88
v -0.263988760 2.600496186 0
v -0.437582271 3.271732491 0
l 89 90
v -0.263988760 2.600496186 0
v -0.835372084 2.207795308 0
l 91 92
v -0.263988760 2.600496186 0
v -0.476426012 2.679923221 0
l 93 94
v -0.476426012 2.679923221 0
v -0.675510066 2.754357698 0
l 95 96
v -0.675510066 2.754357698 0
v -0.817856745 3.304771468 0
l 97 98
v -0.675510066 2.754357698 0
v -1.144044392 2.432342977 0
l 99 100
v -0.675510066 2.754357698 0
v -0.849708613 2.819487866 0
l 101 102
v -0.849708613 2.819487866 0
v -1.012957537 2.880524138 0
l 103 104
v -1.012957537 2.880524138 0
v -1.155800346 2.933930875 0
l 105 106
v -0.021203328 2.509722433 0
v -0.040279784 2.873722899 0
l 107 108
v -0.040279784 2.873722899 0
v 0.171143696 2.972311287 0
l 109 110
v 0.171143696 2.972311287 0
v 0.711533303 2.660317202 0
l 111 112
v 0.171143696 2.972311287 0
v 0.279498105 3.586819674 0
l 113 114
v 0.171143696 2.972311287 0
v 0.356139242 3.058576126 0
l 115 116
v 0.356139242 3.058576126 0
v 0.529506496 3.139418605 0
l 117 118
v 0.529506496 3.139418605 0
v 0.681202843 3.210155773 0
l 119 120
v -0.040279784 2.873722899 0
v -0.059356240 3.237723364 0
l 121 122
v -0.059356240 3.237723364 0
v -0.279926814 3.313671903 0
l 123 124
v -0.279926814 3.313671903 0
v -0.451921263 3.913487829 0
l 125 126
v -0.279926814 3.313671903 0
v -0.784743847 2.946900859 0
l 127 128
v -0.279926814 3.313671903 0
v -0.472926065 3.380126875 0
l 129 130
v -0.472926065 3.380126875 0
v -0.653793935 3.442404677 0
l 131 132
v -0.653793935 3.442404677 0
v -0.812053322 3.496897754 0
l 133 134
v -0.059356240 3.237723364 0
v -0.085094747 3.564762095 0
l 135 136
v -0.085094747 3.564762095 0
v 0.102798513 3.658442219 0
l 137 138
v 0.102798513 3.658442219 0
v 0.267205114 3.740412327 0
l 139 140
v -0.085094747 3.564762095 0
v -0.110833253 3.891800827 0
l 141 142
v -0.110833253 3.891800827 0
v -0.311068034 3.954934611 0
l 143 144
v -0.311068034 3.954934611 0
v -0.486273468 4.010176672 0
l 145 146
v -0.110833253 3.891800827 0
v -0.141694759 4.185428444 0
l 147 148
v -0.141694759 4.185428444 0
v -0.172556265 4.479056061 0
l 149 150
v 0.267028950 1.357886699 0
v 0.521903708 1.043142585 0
v 0.913103668 0.938320871 0
v 0.658228910 1.253064986 0
f 151 152 153 154
v 0.267028950 1.357886699 0
v 0.475619370 1.705039456 0
v 0.440321295 2.108498308 0
v 0.231730874 1.761345552 0
f 155 156 157 158
v 0.719643021 1.540754654 0
v 0.928640322 1.282664480 0
v 1.249424289 1.196710675 0
v 1.040426987 1.454800849 0
f 159 160 161 162
v 0.719643021 1.540754654 0
v 0.890687165 1.825419914 0
v 0.861742743 2.156256173 0
v 0.690698598 1.871590913 0
f 163 164 165 166
v 1.090786558 1.690706376 0
v 1.262164346 1.479072434 0
v 1.525207199 1.408590314 0
v 1.353829411 1.620224256 0
f 167 168 169 170
v 1.090786558 1.690706376 0
v 1.231042757 1.924131890 0
v 1.207308331 2.195417623 0
v 1.067052132 1.961992109 0
f 171 172 173 174
v -0.267028950 1.807886699 0
v -0.231730874 2.211345552 0
v -0.440321295 2.558498308 0
v -0.475619370 2.155039456 0
f 175 176 177 178
v -0.267028950 1.807886699 0
v -0.658228910 1.703064986 0
v -0.913103668 1.388320871 0
v -0.521903708 1.493142585 0
f 179 180 181 182
v -0.719643021 1.990754654 0
v -0.690698598 2.321590913 0
v -0.861742743 2.606256173 0
v -0.890687165 2.275419914 0
f 183 184 185 186
v -0.719643021 1.990754654 0
v -1.040426987 1.904800849 0
v -1.249424289 1.646710675 0
v -0.928640322 1.732664480 0
f 187 188 189 190
v -1.090786558 2.140706376 0
v -1.067052132 2.411992109 0
v -1.207308331 2.645417623 0
v -1.231042757 2.374131890 0
f 191 192 193 194
v -1.090786558 2.140706376 0
v -1.353829411 2.070224256 0
v -1.525207199 1.858590314 0
v -1.262164346 1.929072434 0
f 195 196 197 198
v 0.227100307 2.208216975 0
v 0.463824121 1.931049001 0
v 0.818252957 1.845958166 0
v 0.581529143 2.123126140 0
f 199 200 201 202
v 0.227100307 2.208216975 0
v 0.406588695 2.525461626 0
v 0.365326123 2.887618568 0
v 0.185837736 2.570373917 0
f 203 204 205 206
v 0.630005149 2.383404986 0
v 0.824118676 2.156127247 0
v 1.114750321 2.086352762 0
v 0.920636794 2.313630501 0
f 207 208 209 210
v 0.630005149 2.383404986 0
v 0.777185626 2.643545600 0
v 0.743350318 2.940514292 0
v 0.596169840 2.680373678 0
f 211 212 213 214
v -0.263988760 2.600496186 0
v -0.241736567 2.964316320 0
v -0.437582274 3.271732502 0
v -0.459834467 2.907912368 0
f 215 216 217 218
v -0.263988760 2.600496186 0
v -0.613478553 2.496972593 0
v -0.835372094 2.207795301 0
v -0.485882300 2.311318894 0
f 219 220 221 222
v -0.675510066 2.754357698 0
v -0.657263268 3.052690208 0
v -0.817856748 3.304771477 0
v -0.836103546 3.006438967 0
f 223 224 225 226
v -0.675510066 2.754357698 0
v -0.962091696 2.669468352 0
v -1.144044400 2.432342972 0
v -0.857462769 2.517232318 0
f 227 228 229 230
v 0.171143696 2.972311287 0
v 0.390651992 2.728522627 0
v 0.711533312 2.660317197 0
v 0.492025017 2.904105857 0
f 231 232 233 234
v 0.171143696 2.972311287 0
v 0.325153843 3.261962245 0
v 0.279498107 3.586819685 0
v 0.125487961 3.297168727 0
f 235 236 237 238
v -0.279926814 3.313671903 0
v -0.268478034 3.641522064 0
v -0.451921266 3.913487840 0
v -0.463370046 3.585637679 0
f 239 240 241 242
v -0.279926814 3.313671903 0
v -0.591920904 3.212298878 0
v -0.784743856 2.946900853 0
v -0.472749766 3.048273878 0
f 243 244 245 246
