# Lab 05 portable L-system preview; XY plane, +Y up
v 0.000000000 0.000000000 0
v 0.000000000 0.800000000 0
l 1 2
v 0.000000000 0.800000000 0
v 0.000000000 1.250000000 0
l 3 4
v 0.000000000 1.250000000 0
v 0.267028950 1.357886699 0
l 5 6
v 0.267028950 1.357886699 0
v 0.913103657 0.938320878 0
l 7 8
v 0.267028950 1.357886699 0
v 0.440321292 2.108498296 0
l 9 10
v 0.267028950 1.357886699 0
v 0.500679281 1.452287560 0
l 11 12
v 0.500679281 1.452287560 0
v 0.719643021 1.540754654 0
l 13 14
v 0.719643021 1.540754654 0
v 1.249424280 1.196710681 0
l 15 16
v 0.719643021 1.540754654 0
v 0.861742741 2.156256163 0
l 17 18
v 0.719643021 1.540754654 0
v 0.911236292 1.618163360 0
l 19 20
v 0.911236292 1.618163360 0
v 1.090786558 1.690706376 0
l 21 22
v 1.090786558 1.690706376 0
v 1.525207191 1.408590319 0
l 23 24
v 1.090786558 1.690706376 0
v 1.207308329 2.195417614 0
l 25 26
v 1.090786558 1.690706376 0
v 1.247893041 1.754181516 0
l 27 28
v 1.247893041 1.754181516 0
v 1.395124259 1.813666789 0
l 29 30
v 1.395124259 1.813666789 0
v 1.751349178 1.582331622 0
l 31 32
v 1.395124259 1.813666789 0
v 1.490672111 2.227530004 0
l 33 34
v 1.395124259 1.813666789 0
v 1.523951575 1.865716403 0
l 35 36
v 1.523951575 1.865716403 0
v 1.644681174 1.914494327 0
l 37 38
v 1.644681174 1.914494327 0
v 1.936785608 1.724799490 0
l 39 40
v 1.644681174 1.914494327 0
v 1.723030413 2.253862164 0
l 41 42
v 1.644681174 1.914494327 0
v 1.750319573 1.957175011 0
l 43 44
v 1.750319573 1.957175011 0
v 1.849317844 1.997172909 0
l 45 46
v 1.849317844 1.997172909 0
v 2.088843480 1.841623142 0
l 47 48
v 1.849317844 1.997172909 0
v 1.913564220 2.275454535 0
l 49 50
v 1.849317844 1.997172909 0
v 1.935941331 2.032171070 0
l 51 52
v 1.935941331 2.032171070 0
v 2.017119914 2.064969346 0
l 53 54
v 2.017119914 2.064969346 0
v 2.213530935 1.937418537 0
l 55 56
v 2.017119914 2.064969346 0
v 2.069801942 2.293160279 0
l 57 58
v 2.017119914 2.064969346 0
v 2.088151173 2.093667837 0
l 59 60
v 2.088151173 2.093667837 0
v 2.154717611 2.120562424 0
l 61 62
v 2.154717611 2.120562424 0
v 2.315774648 2.015970761 0
l 63 64
v 2.154717611 2.120562424 0
v 2.197916874 2.307678989 0
l 65 66
v 2.154717611 2.120562424 0
v 2.212963244 2.144095187 0
l 67 68
v 2.212963244 2.144095187 0
v 2.267547722 2.166148748 0
l 69 70
v 2.267547722 2.166148748 0
v 2.399614493 2.080383584 0
l 71 72
v 2.267547722 2.166148748 0
v 2.302971118 2.319584331 0
l 73 74
v 2.267547722 2.166148748 0
v 2.315309141 2.185445614 0
l 75 76
v 2.315309141 2.185445614 0
v 2.360068414 2.203529534 0
l 77 78
v 2.360068414 2.203529534 0
v 2.468363166 2.133202100 0
l 79 80
v 2.360068414 2.203529534 0
v 2.389115598 2.329346712 0
l 81 82
v 2.360068414 2.203529534 0
v 2.399232777 2.219352964 0
l 83 84
v 2.399232777 2.219352964 0
v 2.435935381 2.234181778 0
l 85 86
v 2.435935381 2.234181778 0
v 2.468050159 2.247156991 0
l 87 88
v 0.000000000 1.250000000 0
v 0.000000000 1.700000000 0
l 89 90
v 0.000000000 1.700000000 0
v -0.267028950 1.807886699 0
l 91 92
v -0.267028950 1.807886699 0
v -0.440321292 2.558498296 0
l 93 94
v -0.267028950 1.807886699 0
v -0.913103657 1.388320878 0
l 95 96
v -0.267028950 1.807886699 0
v -0.500679281 1.902287560 0
l 97 98
v -0.500679281 1.902287560 0
v -0.719643021 1.990754654 0
l 99 100
v -0.719643021 1.990754654 0
v -0.861742741 2.606256163 0
l 101 102
v -0.719643021 1.990754654 0
v -1.249424280 1.646710681 0
l 103 104
v -0.719643021 1.990754654 0
v -0.911236292 2.068163360 0
l 105 106
v -0.911236292 2.068163360 0
v -1.090786558 2.140706376 0
l 107 108
v -1.090786558 2.140706376 0
v -1.207308329 2.645417614 0
l 109 110
v -1.090786558 2.140706376 0
v -1.525207191 1.858590319 0
l 111 112
v -1.090786558 2.140706376 0
v -1.247893041 2.204181516 0
l 113 114
v -1.247893041 2.204181516 0
v -1.395124259 2.263666789 0
l 115 116
v -1.395124259 2.263666789 0
v -1.490672111 2.677530004 0
l 117 118
v -1.395124259 2.263666789 0
v -1.751349178 2.032331622 0
l 119 120
v -1.395124259 2.263666789 0
v -1.523951575 2.315716403 0
l 121 122
v -1.523951575 2.315716403 0
v -1.644681174 2.364494327 0
l 123 124
v -1.644681174 2.364494327 0
v -1.723030413 2.703862164 0
l 125 126
v -1.644681174 2.364494327 0
v -1.936785608 2.174799490 0
l 127 128
v -1.644681174 2.364494327 0
v -1.750319573 2.407175011 0
l 129 130
v -1.750319573 2.407175011 0
v -1.849317844 2.447172909 0
l 131 132
v -1.849317844 2.447172909 0
v -1.913564220 2.725454535 0
l 133 134
v -1.849317844 2.447172909 0
v -2.088843480 2.291623142 0
l 135 136
v -1.849317844 2.447172909 0
v -1.935941331 2.482171070 0
l 137 138
v -1.935941331 2.482171070 0
v -2.017119914 2.514969346 0
l 139 140
v -2.017119914 2.514969346 0
v -2.069801942 2.743160279 0
l 141 142
v -2.017119914 2.514969346 0
v -2.213530935 2.387418537 0
l 143 144
v -2.017119914 2.514969346 0
v -2.088151173 2.543667837 0
l 145 146
v -2.088151173 2.543667837 0
v -2.154717611 2.570562424 0
l 147 148
v -2.154717611 2.570562424 0
v -2.197916874 2.757678989 0
l 149 150
v -2.154717611 2.570562424 0
v -2.315774648 2.465970761 0
l 151 152
v -2.154717611 2.570562424 0
v -2.212963244 2.594095187 0
l 153 154
v -2.212963244 2.594095187 0
v -2.267547722 2.616148748 0
l 155 156
v -2.267547722 2.616148748 0
v -2.302971118 2.769584331 0
l 157 158
v -2.267547722 2.616148748 0
v -2.399614493 2.530383584 0
l 159 160
v -2.267547722 2.616148748 0
v -2.315309141 2.635445614 0
l 161 162
v -2.315309141 2.635445614 0
v -2.360068414 2.653529534 0
l 163 164
v -2.360068414 2.653529534 0
v -2.389115598 2.779346712 0
l 165 166
v -2.360068414 2.653529534 0
v -2.468363166 2.583202100 0
l 167 168
v -2.360068414 2.653529534 0
v -2.399232777 2.669352964 0
l 169 170
v -2.399232777 2.669352964 0
v -2.435935381 2.684181778 0
l 171 172
v -2.435935381 2.684181778 0
v -2.468050159 2.697156991 0
l 173 174
v 0.000000000 1.700000000 0
v -0.010601664 2.104861217 0
l 175 176
v -0.010601664 2.104861217 0
v 0.227100307 2.208216975 0
l 177 178
v 0.227100307 2.208216975 0
v 0.818252947 1.845958172 0
l 179 180
v 0.227100307 2.208216975 0
v 0.365326121 2.887618556 0
l 181 182
v 0.227100307 2.208216975 0
v 0.435089532 2.298653264 0
l 183 184
v 0.435089532 2.298653264 0
v 0.630005149 2.383404986 0
l 185 186
v 0.630005149 2.383404986 0
v 1.114750313 2.086352767 0
l 187 188
v 0.630005149 2.383404986 0
v 0.743350316 2.940514283 0
l 189 190
v 0.630005149 2.383404986 0
v 0.800556313 2.457562743 0
l 191 192
v 0.800556313 2.457562743 0
v 0.960387118 2.527059155 0
l 193 194
v 0.960387118 2.527059155 0
v 1.357878153 2.283476336 0
l 195 196
v 0.960387118 2.527059155 0
v 1.053330156 2.983888778 0
l 197 198
v 0.960387118 2.527059155 0
v 1.100239073 2.587868516 0
l 199 200
v 1.100239073 2.587868516 0
v 1.231300334 2.644855574 0
l 201 202
v 1.231300334 2.644855574 0
v 1.557242982 2.445117662 0
l 203 204
v 1.231300334 2.644855574 0
v 1.307513624 3.019455865 0
l 205 206
v 1.231300334 2.644855574 0
v 1.345978937 2.694719249 0
l 207 208
v 1.345978937 2.694719249 0
v 1.453449170 2.741448637 0
l 209 210
v 1.453449170 2.741448637 0
v 1.720722142 2.577663549 0
l 211 212
v 1.453449170 2.741448637 0
v 1.515944069 3.048620875 0
l 213 214
v 1.453449170 2.741448637 0
v 1.547485625 2.782336851 0
l 215 216
v 1.547485625 2.782336851 0
v 1.635611216 2.820654949 0
l 217 218
v 1.635611216 2.820654949 0
v 1.854775053 2.686351177 0
l 219 220
v 1.635611216 2.820654949 0
v 1.686857033 3.072536184 0
l 221 222
v 1.635611216 2.820654949 0
v 1.712721109 2.854183284 0
l 223 224
v 1.712721109 2.854183284 0
v 1.784984094 2.885604124 0
l 225 226
v 1.784984094 2.885604124 0
v 1.964698440 2.775475031 0
l 227 228
v 1.784984094 2.885604124 0
v 1.827005664 3.092146738 0
l 229 230
v 1.784984094 2.885604124 0
v 1.848214206 2.913097360 0
l 231 232
v 1.848214206 2.913097360 0
v 1.907469854 2.938862449 0
l 233 234
v 1.907469854 2.938862449 0
v 2.054835618 2.848556592 0
l 235 236
v 1.907469854 2.938862449 0
v 1.941927541 3.108227391 0
l 237 238
v 1.907469854 2.938862449 0
v 1.959318545 2.961406901 0
l 239 240
v 1.959318545 2.961406901 0
v 2.007908177 2.982534274 0
l 241 242
v 2.007908177 2.982534274 0
v 2.128748103 2.908483472 0
l 243 244
v 2.007908177 2.982534274 0
v 2.036163480 3.121413527 0
l 245 246
v 2.007908177 2.982534274 0
v 2.050424104 3.001020726 0
l 247 248
v 2.050424104 3.001020726 0
v 2.090267601 3.018345171 0
l 249 250
v 2.090267601 3.018345171 0
v 2.125130662 3.033504062 0
l 251 252
v -0.010601664 2.104861217 0
v -0.021203328 2.509722433 0
l 253 254
v -0.021203328 2.509722433 0
v -0.263988760 2.600496186 0
l 255 256
v -0.263988760 2.600496186 0
v -0.437582271 3.271732491 0
l 257 258
v -0.263988760 2.600496186 0
v -0.835372084 2.207795308 0
l 259 260
v -0.263988760 2.600496186 0
v -0.476426012 2.679923221 0
l 261 262
v -0.476426012 2.679923221 0
v -0.675510066 2.754357698 0
l 263 264
v -0.675510066 2.754357698 0
v -0.817856745 3.304771468 0
l 265 266
v -0.675510066 2.754357698 0
v -1.144044392 2.432342977 0
l 267 268
v -0.675510066 2.754357698 0
v -0.849708613 2.819487866 0
l 269 270
v -0.849708613 2.819487866 0
v -1.012957537 2.880524138 0
l 271 272
v -1.012957537 2.880524138 0
v -1.129681814 3.331863429 0
l 273 274
v -1.012957537 2.880524138 0
v -1.397155684 2.616472067 0
l 275 276
v -1.012957537 2.880524138 0
v -1.155800346 2.933930875 0
l 277 278
v -1.155800346 2.933930875 0
v -1.289664463 2.983980618 0
l 279 280
v -1.289664463 2.983980618 0
v -1.385378371 3.354078837 0
l 281 282
v -1.289664463 2.983980618 0
v -1.604706944 2.767457920 0
l 283 284
v -1.289664463 2.983980618 0
v -1.406795566 3.027774143 0
l 285 286
v -1.406795566 3.027774143 0
v -1.516564143 3.068814932 0
l 287 288
v -1.516564143 3.068814932 0
v -1.595049547 3.372295472 0
l 289 290
v -1.516564143 3.068814932 0
v -1.774898977 2.891266320 0
l 291 292
v -1.516564143 3.068814932 0
v -1.612611648 3.104725623 0
l 293 294
v -1.612611648 3.104725623 0
v -1.702621880 3.138379070 0
l 295 296
v -1.702621880 3.138379070 0
v -1.766979912 3.387233112 0
l 297 298
v -1.702621880 3.138379070 0
v -1.914456444 2.992789207 0
l 299 300
v -1.702621880 3.138379070 0
v -1.781380834 3.167825836 0
l 301 302
v -1.781380834 3.167825836 0
v -1.855189225 3.195421662 0
l 303 304
v -1.855189225 3.195421662 0
v -1.907962811 3.399481977 0
l 305 306
v -1.855189225 3.195421662 0
v -2.028893567 3.076037975 0
l 307 308
v -1.855189225 3.195421662 0
v -1.919771567 3.219568011 0
l 309 310
v -1.919771567 3.219568011 0
v -1.980294447 3.242196588 0
l 311 312
v -1.980294447 3.242196588 0
v -2.023568788 3.409526047 0
l 313 314
v -1.980294447 3.242196588 0
v -2.122732008 3.144301965 0
l 315 316
v -1.980294447 3.242196588 0
v -2.033251968 3.261996594 0
l 317 318
v -2.033251968 3.261996594 0
v -2.082880730 3.280552028 0
l 319 320
v -2.082880730 3.280552028 0
v -2.118365689 3.417762183 0
l 321 322
v -2.082880730 3.280552028 0
v -2.199679530 3.200278437 0
l 323 324
v -2.082880730 3.280552028 0
v -2.126305897 3.296788032 0
l 325 326
v -2.126305897 3.296788032 0
v -2.167001482 3.312003488 0
l 327 328
v -2.167001482 3.312003488 0
v -2.202610118 3.325317012 0
l 329 330
v -0.021203328 2.509722433 0
v -0.040279784 2.873722899 0
l 331 332
v -0.040279784 2.873722899 0
v 0.171143696 2.972311287 0
l 333 334
v 0.171143696 2.972311287 0
v 0.711533303 2.660317202 0
l 335 336
v 0.171143696 2.972311287 0
v 0.279498105 3.586819674 0
l 337 338
v 0.171143696 2.972311287 0
v 0.356139242 3.058576126 0
l 339 340
v 0.356139242 3.058576126 0
v 0.529506496 3.139418605 0
l 341 342
v 0.529506496 3.139418605 0
v 0.972625973 2.883583455 0
l 343 344
v 0.529506496 3.139418605 0
v 0.618357111 3.643315482 0
l 345 346
v 0.529506496 3.139418605 0
v 0.681202843 3.210155773 0
l 347 348
v 0.681202843 3.210155773 0
v 0.823363992 3.276446605 0
l 349 350
v 0.823363992 3.276446605 0
v 1.186721963 3.066661783 0
l 351 352
v 0.823363992 3.276446605 0
v 0.896221496 3.689642045 0
l 353 354
v 0.823363992 3.276446605 0
v 0.947754996 3.334451083 0
l 355 356
v 0.947754996 3.334451083 0
v 1.064327138 3.388809566 0
l 357 358
v 1.064327138 3.388809566 0
v 1.362280675 3.216786011 0
l 359 360
v 1.064327138 3.388809566 0
v 1.124070292 3.727629826 0
l 361 362
v 1.064327138 3.388809566 0
v 1.166327762 3.436373238 0
l 363 364
v 1.166327762 3.436373238 0
v 1.261916918 3.480947193 0
l 365 366
v 1.261916918 3.480947193 0
v 1.506238818 3.339887879 0
l 367 368
v 1.261916918 3.480947193 0
v 1.310906304 3.758779807 0
l 369 370
v 1.261916918 3.480947193 0
v 1.345557430 3.519949404 0
l 371 372
v 1.345557430 3.519949404 0
v 1.423940538 3.556500048 0
l 373 374
v 1.423940538 3.556500048 0
v 1.624284496 3.440831410 0
l 375 376
v 1.423940538 3.556500048 0
v 1.464111834 3.784322791 0
l 377 378
v 1.423940538 3.556500048 0
v 1.492525757 3.588481861 0
l 379 380
v 1.492525757 3.588481861 0
v 1.556799906 3.618453389 0
l 381 382
v 1.556799906 3.618453389 0
v 1.721081951 3.523605106 0
l 383 384
v 1.556799906 3.618453389 0
v 1.589740369 3.805268038 0
l 385 386
v 1.556799906 3.618453389 0
v 1.613039786 3.644678476 0
l 387 388
v 1.613039786 3.644678476 0
v 1.665744588 3.669255128 0
l 389 390
v 1.665744588 3.669255128 0
v 1.800455865 3.591479536 0
l 391 392
v 1.665744588 3.669255128 0
v 1.692755767 3.822443141 0
l 393 394
v 1.665744588 3.669255128 0
v 1.711861289 3.690759699 0
l 395 396
v 1.711861289 3.690759699 0
v 1.755079227 3.710912555 0
l 397 398
v 1.755079227 3.710912555 0
v 1.792894922 3.728546303 0
l 399 400
v -0.040279784 2.873722899 0
v -0.059356240 3.237723364 0
l 401 402
v -0.059356240 3.237723364 0
v -0.279926814 3.313671903 0
l 403 404
v -0.279926814 3.313671903 0
v -0.451921263 3.913487829 0
l 405 406
v -0.279926814 3.313671903 0
v -0.784743847 2.946900859 0
l 407 408
v -0.279926814 3.313671903 0
v -0.472926065 3.380126875 0
l 409 410
v -0.472926065 3.380126875 0
v -0.653793935 3.442404677 0
l 411 412
v -0.653793935 3.442404677 0
v -0.794829384 3.934253736 0
l 413 414
v -0.653793935 3.442404677 0
v -1.067743903 3.141652421 0
l 415 416
v -0.653793935 3.442404677 0
v -0.812053322 3.496897754 0
l 417 418
v -0.812053322 3.496897754 0
v -0.960364975 3.547965551 0
l 419 420
v -0.960364975 3.547965551 0
v -1.076014043 3.951281780 0
l 421 422
v -0.960364975 3.547965551 0
v -1.299803949 3.301348702 0
l 423 424
v -0.960364975 3.547965551 0
v -1.090137672 3.592649874 0
l 425 426
v -1.090137672 3.592649874 0
v -1.211753228 3.634525468 0
l 427 428
v -1.211753228 3.634525468 0
v -1.306585463 3.965244776 0
l 429 430
v -1.211753228 3.634525468 0
v -1.490093186 3.432299652 0
l 431 432
v -1.211753228 3.634525468 0
v -1.318166839 3.671166613 0
l 433 434
v -1.318166839 3.671166613 0
v -1.417891595 3.705504600 0
l 435 436
v -1.417891595 3.705504600 0
v -1.495654028 3.976694433 0
l 437 438
v -1.417891595 3.705504600 0
v -1.646130361 3.539679431 0
l 439 440
v -1.417891595 3.705504600 0
v -1.505150756 3.735550339 0
l 441 442
v -1.505150756 3.735550339 0
v -1.586925056 3.763707489 0
l 443 444
v -1.586925056 3.763707489 0
v -1.650690251 3.986083151 0
l 445 446
v -1.586925056 3.763707489 0
v -1.774080844 3.627730849 0
l 447 448
v -1.586925056 3.763707489 0
v -1.658477568 3.788344994 0
l 449 450
v -1.658477568 3.788344994 0
v -1.725532494 3.811433857 0
l 451 452
v -1.725532494 3.811433857 0
v -1.777819954 3.993781900 0
l 453 454
v -1.725532494 3.811433857 0
v -1.879000240 3.699933013 0
l 455 456
v -1.725532494 3.811433857 0
v -1.784205554 3.831636612 0
l 457 458
v -1.784205554 3.831636612 0
v -1.839190593 3.850569479 0
l 459 460
v -1.839190593 3.850569479 0
v -1.882066311 4.000094874 0
l 461 462
v -1.839190593 3.850569479 0
v -1.965034145 3.759138787 0
l 463 464
v -1.839190593 3.850569479 0
v -1.887302503 3.867135738 0
l 465 466
v -1.887302503 3.867135738 0
v -1.932390235 3.882660689 0
l 467 468
v -1.932390235 3.882660689 0
v -1.971842000 3.896245021 0
l 469 470
v -0.059356240 3.237723364 0
v -0.085094747 3.564762095 0
l 471 472
v -0.085094747 3.564762095 0
v 0.102798513 3.658442219 0
l 473 474
v 0.102798513 3.658442219 0
v 0.596332846 3.390474939 0
l 475 476
v 0.102798513 3.658442219 0
v 0.185806704 4.213862997 0
l 477 478
v 0.102798513 3.658442219 0
v 0.267205114 3.740412327 0
l 479 480
v 0.267205114 3.740412327 0
v 0.421277587 3.817230028 0
l 481 482
v 0.421277587 3.817230028 0
v 0.825975740 3.597496859 0
l 483 484
v 0.421277587 3.817230028 0
v 0.489344304 4.272675066 0
l 485 486
v 0.421277587 3.817230028 0
v 0.556091000 3.884445516 0
l 487 488
v 0.556091000 3.884445516 0
v 0.682430427 3.947436031 0
l 489 490
v 0.682430427 3.947436031 0
v 1.014282913 3.767254832 0
l 491 492
v 0.682430427 3.947436031 0
v 0.738245135 4.320900962 0
l 493 494
v 0.682430427 3.947436031 0
v 0.792977426 4.002552731 0
l 495 496
v 0.792977426 4.002552731 0
v 0.896575757 4.054204954 0
l 497 498
v 0.896575757 4.054204954 0
v 1.168694795 3.906456371 0
l 499 500
v 0.896575757 4.054204954 0
v 0.942343817 4.360446197 0
l 501 502
v 0.896575757 4.054204954 0
v 0.987224296 4.099400648 0
l 503 504
v 0.987224296 4.099400648 0
v 1.072174927 4.141755470 0
l 505 506
v 1.072174927 4.141755470 0
v 1.295312539 4.020601632 0
l 507 508
v 1.072174927 4.141755470 0
v 1.109704737 4.392873290 0
l 509 510
v 1.072174927 4.141755470 0
v 1.146506729 4.178815940 0
l 511 512
v 1.146506729 4.178815940 0
v 1.216166247 4.213546894 0
l 513 514
v 1.216166247 4.213546894 0
v 1.399139088 4.114200747 0
l 515 516
v 1.216166247 4.213546894 0
v 1.246940691 4.419463506 0
l 517 518
v 1.216166247 4.213546894 0
v 1.277118324 4.243936479 0
l 519 520
v 1.277118324 4.243936479 0
v 1.334239129 4.272415861 0
l 521 522
v 1.334239129 4.272415861 0
v 1.484276859 4.190952021 0
l 523 524
v 1.334239129 4.272415861 0
v 1.359474173 4.441267483 0
l 525 526
v 1.334239129 4.272415861 0
v 1.384219832 4.297335321 0
l 527 528
v 1.384219832 4.297335321 0
v 1.431058892 4.320688415 0
l 529 530
v 1.431058892 4.320688415 0
v 1.472043069 4.341122371 0
l 531 532
v -0.085094747 3.564762095 0
v -0.110833253 3.891800827 0
l 533 534
v -0.110833253 3.891800827 0
v -0.311068034 3.954934611 0
l 535 536
v -0.311068034 3.954934611 0
v -0.479941209 4.490531896 0
l 537 538
v -0.311068034 3.954934611 0
v -0.756606823 3.613060674 0
l 539 540
v -0.311068034 3.954934611 0
v -0.486273468 4.010176672 0
l 541 542
v -0.486273468 4.010176672 0
v -0.650465988 4.061946375 0
l 543 544
v -0.650465988 4.061946375 0
v -0.788941992 4.501136148 0
l 545 546
v -0.650465988 4.061946375 0
v -1.015807795 3.781609746 0
l 547 548
v -0.650465988 4.061946375 0
v -0.794134444 4.107244865 0
l 549 550
v -0.794134444 4.107244865 0
v -0.928772311 4.149696021 0
l 551 552
v -0.928772311 4.149696021 0
v -1.042322634 4.509831636 0
l 553 554
v -0.928772311 4.149696021 0
v -1.228352592 3.919819986 0
l 555 556
v -0.928772311 4.149696021 0
v -1.046580444 4.186840783 0
l 557 558
v -1.046580444 4.186840783 0
v -1.156983495 4.221650731 0
l 559 560
v -1.156983495 4.221650731 0
v -1.250094760 4.516961935 0
l 561 562
v -1.156983495 4.221650731 0
v -1.402639326 4.033152382 0
l 563 564
v -1.156983495 4.221650731 0
v -1.253586165 4.252109436 0
l 565 566
v -1.253586165 4.252109436 0
v -1.344116666 4.280653593 0
l 567 568
v -1.344116666 4.280653593 0
v -1.420467904 4.522808781 0
l 569 570
v -1.344116666 4.280653593 0
v -1.545554448 4.126084947 0
l 571 572
v -1.344116666 4.280653593 0
v -1.423330855 4.305629731 0
l 573 574
v -1.423330855 4.305629731 0
v -1.497565867 4.329035940 0
l 575 576
v -1.497565867 4.329035940 0
v -1.560173881 4.527603194 0
l 577 578
v -1.497565867 4.329035940 0
v -1.662744848 4.202289651 0
l 579 580
v -1.497565867 4.329035940 0
v -1.562521502 4.349516373 0
l 581 582
v -1.562521502 4.349516373 0
v -1.623394211 4.368709465 0
l 583 584
v -1.623394211 4.368709465 0
v -1.674732783 4.531534613 0
l 585 586
v -1.623394211 4.368709465 0
v -1.758840975 4.264777507 0
l 587 588
v -1.623394211 4.368709465 0
v -1.676657832 4.385503420 0
l 589 590
v -1.676657832 4.385503420 0
v -1.726573454 4.401241755 0
l 591 592
v -1.726573454 4.401241755 0
v -1.770249622 4.415012798 0
l 593 594
v -0.110833253 3.891800827 0
v -0.141694759 4.185428444 0
l 595 596
v -0.141694759 4.185428444 0
v 0.025144193 4.274138288 0
l 597 598
v 0.025144193 4.274138288 0
v 0.475485992 4.044677680 0
l 599 600
v 0.025144193 4.274138288 0
v 0.086740666 4.775801304 0
l 601 602
v 0.025144193 4.274138288 0
v 0.171128275 4.351759402 0
l 603 604
v 0.171128275 4.351759402 0
v 0.307936216 4.424501474 0
l 605 606
v 0.307936216 4.424501474 0
v 0.677216491 4.236343775 0
l 607 608
v 0.307936216 4.424501474 0
v 0.358445324 4.835865147 0
l 609 610
v 0.307936216 4.424501474 0
v 0.427643164 4.488150787 0
l 611 612
v 0.427643164 4.488150787 0
v 0.539825675 4.547799286 0
l 613 614
v 0.539825675 4.547799286 0
v 0.842635501 4.393509974 0
l 615 616
v 0.539825675 4.547799286 0
v 0.581243143 4.885117498 0
l 617 618
v 0.539825675 4.547799286 0
v 0.637985372 4.599991723 0
l 619 620
v 0.637985372 4.599991723 0
v 0.729975031 4.648903492 0
l 621 622
v 0.729975031 4.648903492 0
v 0.978279088 4.522386256 0
l 623 624
v 0.729975031 4.648903492 0
v 0.763937355 4.925504426 0
l 625 626
v 0.729975031 4.648903492 0
v 0.810465983 4.691701291 0
l 627 628
v 0.810465983 4.691701291 0
v 0.885897503 4.731808942 0
l 629 630
v 0.885897503 4.731808942 0
v 1.089506830 4.628064808 0
l 631 632
v 0.885897503 4.731808942 0
v 0.913746609 4.958621707 0
l 633 634
v 0.885897503 4.731808942 0
v 0.951900084 4.766903136 0
l 635 636
v 0.951900084 4.766903136 0
v 1.013753931 4.799791410 0
l 637 638
v 1.013753931 4.799791410 0
v 1.180713579 4.714721220 0
l 639 640
v 1.013753931 4.799791410 0
v 1.036590197 4.985777878 0
l 641 642
v 1.013753931 4.799791410 0
v 1.067876047 4.828568649 0
l 643 644
v 1.067876047 4.828568649 0
v 1.118596201 4.855537034 0
l 645 646
v 1.118596201 4.855537034 0
v 1.162976336 4.879134370 0
l 647 648
v -0.141694759 4.185428444 0
v -0.172556265 4.479056061 0
l 649 650
v -0.172556265 4.479056061 0
v -0.354193199 4.531139613 0
l 651 652
v -0.354193199 4.531139613 0
v -0.518745247 5.009033462 0
l 653 654
v -0.354193199 4.531139613 0
v -0.746986407 4.213061946 0
l 655 656
v -0.354193199 4.531139613 0
v -0.513125517 4.576712722 0
l 657 658
v -0.513125517 4.576712722 0
v -0.662067802 4.619421235 0
l 659 660
v -0.662067802 4.619421235 0
v -0.797000482 5.011294191 0
l 661 662
v -0.662067802 4.619421235 0
v -0.984158233 4.358597548 0
l 663 664
v -0.662067802 4.619421235 0
v -0.792392303 4.656791184 0
l 665 666
v -0.792392303 4.656791184 0
v -0.914524977 4.691812165 0
l 667 668
v -0.914524977 4.691812165 0
v -1.025169774 5.013147989 0
l 669 670
v -0.914524977 4.691812165 0
v -1.178639130 4.477936741 0
l 671 672
v -0.914524977 4.691812165 0
v -1.021391067 4.722455523 0
l 673 674
v -1.021391067 4.722455523 0
v -1.121539860 4.751172728 0
l 675 676
v -1.121539860 4.751172728 0
v -1.212268594 5.014668103 0
l 677 678
v -1.121539860 4.751172728 0
v -1.338113466 4.575794880 0
l 679 680
v -1.121539860 4.751172728 0
v -1.209170054 4.776300282 0
l 681 682
v -1.209170054 4.776300282 0
v -1.291292064 4.799848389 0
l 683 684
v -1.291292064 4.799848389 0
v -1.365689626 5.015914597 0
l 685 686
v -1.291292064 4.799848389 0
v -1.468882421 4.656038554 0
l 687 688
v -1.291292064 4.799848389 0
v -1.363148823 4.820452983 0
l 689 690
v -1.363148823 4.820452983 0
v -1.430488872 4.839762431 0
l 691 692
v -1.430488872 4.839762431 0
v -1.491494872 5.016936722 0
l 693 694
v -1.430488872 4.839762431 0
v -1.576112964 4.721838367 0
l 695 696
v -1.430488872 4.839762431 0
v -1.489411414 4.856658198 0
l 697 698
v -1.489411414 4.856658198 0
v -1.544630254 4.872491946 0
l 699 700
v -1.544630254 4.872491946 0
v -1.592946739 4.886346475 0
l 701 702
v -0.172556265 4.479056061 0
v -0.207239750 4.742503285 0
l 703 704
v -0.207239750 4.742503285 0
v -0.059226086 4.826245387 0
l 705 706
v -0.059226086 4.826245387 0
v 0.351348565 4.630411324 0
l 707 708
v -0.059226086 4.826245387 0
v -0.015627063 5.279038552 0
l 709 710
v -0.059226086 4.826245387 0
v 0.070285871 4.899519727 0
l 711 712
v 0.070285871 4.899519727 0
v 0.191657075 4.968188250 0
l 713 714
v 0.191657075 4.968188250 0
v 0.528328290 4.807604319 0
l 715 716
v 0.191657075 4.968188250 0
v 0.227408274 5.339478645 0
l 717 718
v 0.191657075 4.968188250 0
v 0.297856880 5.028273209 0
l 719 720
v 0.297856880 5.028273209 0
v 0.397381268 5.084581398 0
l 721 722
v 0.397381268 5.084581398 0
v 0.673451663 4.952902574 0
l 723 724
v 0.397381268 5.084581398 0
v 0.426697251 5.389039522 0
l 725 726
v 0.397381268 5.084581398 0
v 0.484465107 5.133851064 0
l 727 728
v 0.484465107 5.133851064 0
v 0.566075105 5.180023779 0
l 729 730
v 0.566075105 5.180023779 0
v 0.792452830 5.072047144 0
l 731 732
v 0.566075105 5.180023779 0
v 0.590114211 5.429679441 0
l 733 734
v 0.566075105 5.180023779 0
v 0.637483854 5.220424905 0
l 735 736
v 0.637483854 5.220424905 0
v 0.704404052 5.258286532 0
l 737 738
v 0.704404052 5.258286532 0
v 0.890033786 5.169745691 0
l 739 740
v 0.704404052 5.258286532 0
v 0.724116119 5.463004174 0
l 741 742
v 0.704404052 5.258286532 0
v 0.762959226 5.291415455 0
l 743 744
v 0.762959226 5.291415455 0
v 0.817833789 5.322461989 0
l 745 746
v 0.817833789 5.322461989 0
v 0.865849031 5.349627706 0
l 747 748
v -0.207239750 4.742503285 0
v -0.241923235 5.005950509 0
l 749 750
v -0.241923235 5.005950509 0
v -0.406567507 5.048530413 0
l 751 752
v -0.406567507 5.048530413 0
v -0.565872424 5.474610767 0
l 753 754
v -0.406567507 5.048530413 0
v -0.752466582 4.753104695 0
l 755 756
v -0.406567507 5.048530413 0
v -0.550631245 5.085787829 0
l 757 758
v -0.550631245 5.085787829 0
v -0.685639549 5.120703350 0
l 759 760
v -0.685639549 5.120703350 0
v -0.816269580 5.470089241 0
l 761 762
v -0.685639549 5.120703350 0
v -0.969276789 4.878454261 0
l 763 764
v -0.685639549 5.120703350 0
v -0.803771814 5.151254431 0
l 765 766
v -0.803771814 5.151254431 0
v -0.914478622 5.179885159 0
l 767 768
v -0.914478622 5.179885159 0
v -1.021595248 5.466381589 0
l 769 770
v -0.914478622 5.179885159 0
v -1.147061160 4.981240906 0
l 771 772
v -0.914478622 5.179885159 0
v -1.011347080 5.204937045 0
l 773 774
v -1.011347080 5.204937045 0
v -1.102126663 5.228414242 0
l 775 776
v -1.102126663 5.228414242 0
v -1.189962296 5.463341314 0
l 777 778
v -1.102126663 5.228414242 0
v -1.292844343 5.065525954 0
l 779 780
v -1.102126663 5.228414242 0
v -1.181558798 5.248956789 0
l 781 782
v -1.181558798 5.248956789 0
v -1.255998056 5.268208090 0
l 783 784
v -1.255998056 5.268208090 0
v -1.328023275 5.460848289 0
l 785 786
v -1.255998056 5.268208090 0
v -1.412386554 5.134639694 0
l 787 788
v -1.255998056 5.268208090 0
v -1.321132407 5.285052978 0
l 789 790
v -1.321132407 5.285052978 0
v -1.382172598 5.300839045 0
l 791 792
v -1.382172598 5.300839045 0
v -1.435582766 5.314651854 0
l 793 794
v -0.241923235 5.005950509 0
v -0.279334295 5.242154645 0
l 795 796
v -0.279334295 5.242154645 0
v -0.148140547 5.320983802 0
l 797 798
v -0.148140547 5.320983802 0
v 0.225863719 5.154466374 0
l 799 800
v -0.148140547 5.320983802 0
v -0.119582342 5.729385165 0
l 801 802
v -0.148140547 5.320983802 0
v -0.033346018 5.389959314 0
l 803 804
v -0.033346018 5.389959314 0
v 0.074232856 5.454599222 0
l 805 806
v 0.074232856 5.454599222 0
v 0.380916354 5.318054932 0
l 807 808
v 0.074232856 5.454599222 0
v 0.097650584 5.789488340 0
l 809 810
v 0.074232856 5.454599222 0
v 0.168364370 5.511159142 0
l 811 812
v 0.168364370 5.511159142 0
v 0.256579046 5.564163867 0
l 813 814
v 0.256579046 5.564163867 0
v 0.508059515 5.452197549 0
l 815 816
v 0.256579046 5.564163867 0
v 0.275781584 5.838772944 0
l 817 818
v 0.256579046 5.564163867 0
v 0.333766888 5.610543001 0
l 819 820
v 0.333766888 5.610543001 0
v 0.406102922 5.654006876 0
l 821 822
v 0.406102922 5.654006876 0
v 0.612316907 5.562194495 0
l 823 824
v 0.406102922 5.654006876 0
v 0.421849003 5.879186319 0
l 825 826
v 0.406102922 5.654006876 0
v 0.469396953 5.692037766 0
l 827 828
v 0.469396953 5.692037766 0
v 0.528712501 5.727678143 0
l 829 830
v 0.528712501 5.727678143 0
v 0.580613606 5.758863473 0
l 831 832
v -0.279334295 5.242154645 0
v -0.316745355 5.478358781 0
l 833 834
v -0.316745355 5.478358781 0
v -0.465877573 5.512788666 0
l 835 836
v -0.465877573 5.512788666 0
v -0.619241002 5.892376474 0
l 837 838
v -0.465877573 5.512788666 0
v -0.770120053 5.238847507 0
l 839 840
v -0.465877573 5.512788666 0
v -0.596368264 5.542914816 0
l 841 842
v -0.596368264 5.542914816 0
v -0.718656683 5.571147322 0
l 843 844
v -0.718656683 5.571147322 0
v -0.844414695 5.882409324 0
l 845 846
v -0.718656683 5.571147322 0
v -0.968135516 5.346515572 0
l 847 848
v -0.718656683 5.571147322 0
v -0.825659049 5.595850765 0
l 849 850
v -0.825659049 5.595850765 0
v -0.925935553 5.619001420 0
l 851 852
v -0.925935553 5.619001420 0
v -1.029057122 5.874236261 0
l 853 854
v -0.925935553 5.619001420 0
v -1.130508196 5.434803384 0
l 855 856
v -0.925935553 5.619001420 0
v -1.013677493 5.639258243 0
l 857 858
v -1.013677493 5.639258243 0
v -1.095904226 5.658241780 0
l 859 860
v -1.095904226 5.658241780 0
v -1.180463913 5.867534350 0
l 861 862
v -1.095904226 5.658241780 0
v -1.263653793 5.507199391 0
l 863 864
v -1.095904226 5.658241780 0
v -1.167852617 5.674852375 0
l 865 866
v -1.167852617 5.674852375 0
v -1.235278538 5.690418875 0
l 867 868
v -1.235278538 5.690418875 0
v -1.294276219 5.704039563 0
l 869 870
v -0.316745355 5.478358781 0
v -0.355968564 5.689988279 0
l 871 872
v -0.355968564 5.689988279 0
v -0.239791808 5.764001035 0
l 873 874
v -0.239791808 5.764001035 0
v 0.100619712 5.622997967 0
l 875 876
v -0.239791808 5.764001035 0
v -0.223719862 6.132109119 0
l 877 878
v -0.239791808 5.764001035 0
v -0.138137147 5.828762197 0
l 879 880
v -0.138137147 5.828762197 0
v -0.042872207 5.889452657 0
l 881 882
v -0.042872207 5.889452657 0
v 0.236265240 5.773830141 0
l 883 884
v -0.042872207 5.889452657 0
v -0.029693211 6.191301286 0
l 885 886
v -0.042872207 5.889452657 0
v 0.040484616 5.942556810 0
l 887 888
v 0.040484616 5.942556810 0
v 0.118601867 5.992322987 0
l 889 890
v 0.118601867 5.992322987 0
v 0.347494573 5.897512524 0
l 891 892
v 0.118601867 5.992322987 0
v 0.129408643 6.239838862 0
l 893 894
v 0.118601867 5.992322987 0
v 0.186954461 6.035868392 0
l 895 896
v 0.186954461 6.035868392 0
v 0.251010607 6.076676658 0
l 897 898
v 0.251010607 6.076676658 0
v 0.307059734 6.112383890 0
l 899 900
v -0.355968564 5.689988279 0
v -0.395191773 5.901617778 0
l 901 902
v -0.395191773 5.901617778 0
v -0.530175918 5.929080612 0
l 903 904
v -0.530175918 5.929080612 0
v -0.677098512 6.266979443 0
l 905 906
v -0.530175918 5.929080612 0
v -0.797446470 5.675450329 0
l 907 908
v -0.530175918 5.929080612 0
v -0.648287045 5.953110593 0
l 909 910
v -0.648287045 5.953110593 0
v -0.758974044 5.975630117 0
l 911 912
v -0.758974044 5.975630117 0
v -0.879450571 6.252707159 0
l 913 914
v -0.758974044 5.975630117 0
v -0.978135897 5.767653285 0
l 915 916
v -0.758974044 5.975630117 0
v -0.855825169 5.995334701 0
l 917 918
v -0.855825169 5.995334701 0
v -0.946588508 6.013800711 0
l 919 920
v -0.946588508 6.013800711 0
v -1.045379259 6.241003885 0
l 921 922
v -0.946588508 6.013800711 0
v -1.126301227 5.843259709 0
l 923 924
v -0.946588508 6.013800711 0
v -1.026006430 6.029958470 0
l 925 926
v -1.026006430 6.029958470 0
v -1.100432368 6.045100598 0
l 927 928
v -1.100432368 6.045100598 0
v -1.165555064 6.058349960 0
l 929 930
v -0.395191773 5.901617778 0
v -0.435466398 6.091094988 0
l 931 932
v -0.435466398 6.091094988 0
v -0.332686832 6.160420681 0
l 933 934
v -0.332686832 6.160420681 0
v -0.023099523 6.041581247 0
l 935 936
v -0.332686832 6.160420681 0
v -0.326899389 6.491983071 0
l 937 938
v -0.332686832 6.160420681 0
v -0.242754713 6.221080661 0
l 939 940
v -0.242754713 6.221080661 0
v -0.158475469 6.277927729 0
l 941 942
v -0.158475469 6.277927729 0
v 0.095386125 6.180479393 0
l 943 944
v -0.158475469 6.277927729 0
v -0.153729766 6.549808889 0
l 945 946
v -0.158475469 6.277927729 0
v -0.084731131 6.327668913 0
l 947 948
v -0.084731131 6.327668913 0
v -0.015622151 6.374283508 0
l 949 950
v -0.015622151 6.374283508 0
v 0.044848206 6.415071279 0
l 951 952
v -0.435466398 6.091094988 0
v -0.475741022 6.280572199 0
l 953 954
v -0.475741022 6.280572199 0
v -0.597832127 6.302100155 0
l 955 956
v -0.597832127 6.302100155 0
v -0.737977793 6.602643506 0
l 957 958
v -0.597832127 6.302100155 0
v -0.832317855 6.067614427 0
l 959 960
v -0.597832127 6.302100155 0
v -0.704661843 6.320937116 0
l 961 962
v -0.704661843 6.320937116 0
v -0.804776549 6.338590040 0
l 963 964
v -0.804776549 6.338590040 0
v -0.919695995 6.585035588 0
l 965 966
v -0.804776549 6.338590040 0
v -0.997054846 6.146311743 0
l 967 968
v -0.804776549 6.338590040 0
v -0.892376916 6.354036349 0
l 969 970
v -0.892376916 6.354036349 0
v -0.974470975 6.368511746 0
l 971 972
v -0.974470975 6.368511746 0
v -1.046303276 6.381177719 0
l 973 974
v -0.475741022 6.280572199 0
v -0.516439705 6.450094413 0
l 975 976
v -0.516439705 6.450094413 0
v -0.425603056 6.514887565 0
l 977 978
v -0.425603056 6.514887565 0
v -0.144270188 6.415262371 0
l 979 980
v -0.425603056 6.514887565 0
v -0.428207504 6.813327808 0
l 981 982
v -0.425603056 6.514887565 0
v -0.346120987 6.571581573 0
l 983 984
v -0.346120987 6.571581573 0
v -0.271634935 6.624711958 0
l 985 986
v -0.271634935 6.624711958 0
v -0.206459639 6.671201045 0
l 987 988
v -0.516439705 6.450094413 0
v -0.557138387 6.619616626 0
l 989 990
v -0.557138387 6.619616626 0
v -0.667489910 6.636108772 0
l 991 992
v -0.667489910 6.636108772 0
v -0.800658365 6.903203370 0
l 993 994
v -0.667489910 6.636108772 0
v -0.872930440 6.419619625 0
l 995 996
v -0.667489910 6.636108772 0
v -0.764047493 6.650539399 0
l 997 998
v -0.764047493 6.650539399 0
v -0.854535741 6.664062959 0
l 999 1000
v -0.854535741 6.664062959 0
v -0.933712959 6.675896073 0
l 1001 1002
v -0.557138387 6.619616626 0
v -0.597748467 6.771175506 0
l 1003 1004
v -0.597748467 6.771175506 0
v -0.517549976 6.831609404 0
l 1005 1006
v -0.517549976 6.831609404 0
v -0.447376296 6.884489065 0
l 1007 1008
v -0.597748467 6.771175506 0
v -0.638358546 6.922734386 0
l 1009 1010
v -0.638358546 6.922734386 0
v -0.738029426 6.934972431 0
l 1011 1012
v -0.738029426 6.934972431 0
v -0.825241446 6.945680720 0
l 1013 1014
v -0.638358546 6.922734386 0
v -0.678465707 7.058133892 0
l 1015 1016
v -0.678465707 7.058133892 0
v -0.718572868 7.193533399 0
l 1017 1018
v 0.267028950 1.357886699 0
v 0.521903708 1.043142585 0
v 0.913103668 0.938320871 0
v 0.658228910 1.253064986 0
f 1019 1020 1021 1022
v 0.267028950 1.357886699 0
v 0.475619370 1.705039456 0
v 0.440321295 2.108498308 0
v 0.231730874 1.761345552 0
f 1023 1024 1025 1026
v 0.719643021 1.540754654 0
v 0.928640322 1.282664480 0
v 1.249424289 1.196710675 0
v 1.040426987 1.454800849 0
f 1027 1028 1029 1030
v 0.719643021 1.540754654 0
v 0.890687165 1.825419914 0
v 0.861742743 2.156256173 0
v 0.690698598 1.871590913 0
f 1031 1032 1033 1034
v 1.090786558 1.690706376 0
v 1.262164346 1.479072434 0
v 1.525207199 1.408590314 0
v 1.353829411 1.620224256 0
f 1035 1036 1037 1038
v 1.090786558 1.690706376 0
v 1.231042757 1.924131890 0
v 1.207308331 2.195417623 0
v 1.067052132 1.961992109 0
f 1039 1040 1041 1042
v 1.395124259 1.813666789 0
v 1.535654045 1.640126956 0
v 1.751349184 1.582331618 0
v 1.610819399 1.755871451 0
f 1043 1044 1045 1046
v 1.395124259 1.813666789 0
v 1.510134342 2.005075710 0
v 1.490672113 2.227530011 0
v 1.375662030 2.036121090 0
f 1047 1048 1049 1050
v 1.644681174 1.914494327 0
v 1.759915598 1.772191665 0
v 1.936785613 1.724799487 0
v 1.821551188 1.867102150 0
f 1051 1052 1053 1054
v 1.644681174 1.914494327 0
v 1.738989442 2.071449643 0
v 1.723030414 2.253862169 0
v 1.628722146 2.096906854 0
f 1055 1056 1057 1058
v 1.849317844 1.997172909 0
v 1.943810072 1.880484725 0
v 2.088843484 1.841623140 0
v 1.994351256 1.958311323 0
f 1059 1060 1061 1062
v 1.849317844 1.997172909 0
v 1.926650624 2.125876268 0
v 1.913564221 2.275454539 0
v 1.836231441 2.146751181 0
f 1063 1064 1065 1066
v 2.017119914 2.064969346 0
v 2.094603541 1.969285035 0
v 2.213530938 1.937418535 0
v 2.136047311 2.033102846 0
f 1067 1068 1069 1070
v 2.017119914 2.064969346 0
v 2.080532793 2.170506100 0
v 2.069801943 2.293160283 0
v 2.006389063 2.187623529 0
f 1071 1072 1073 1074
v 2.154717611 2.120562424 0
v 2.218254185 2.042101289 0
v 2.315774651 2.015970759 0
v 2.252238077 2.094431894 0
f 1075 1076 1077 1078
v 2.154717611 2.120562424 0
v 2.206716172 2.207102562 0
v 2.197916874 2.307678992 0
v 2.145918313 2.221138854 0
f 1079 1080 1081 1082
v 2.267547722 2.166148748 0
v 2.319647713 2.101810618 0
v 2.399614495 2.080383583 0
v 2.347514504 2.144721713 0
f 1083 1084 1085 1086
v 2.267547722 2.166148748 0
v 2.310186542 2.237111662 0
v 2.302971118 2.319584334 0
v 2.260332298 2.248621421 0
f 1087 1088 1089 1090
v 2.360068414 2.203529534 0
v 2.402790406 2.150772267 0
v 2.468363167 2.133202099 0
v 2.425641175 2.185959365 0
f 1091 1092 1093 1094
v 2.360068414 2.203529534 0
v 2.395032246 2.261719123 0
v 2.389115599 2.329346714 0
v 2.354151766 2.271157125 0
f 1095 1096 1097 1098
v -0.267028950 1.807886699 0
v -0.231730874 2.211345552 0
v -0.440321295 2.558498308 0
v -0.475619370 2.155039456 0
f 1099 1100 1101 1102
v -0.267028950 1.807886699 0
v -0.658228910 1.703064986 0
v -0.913103668 1.388320871 0
v -0.521903708 1.493142585 0
f 1103 1104 1105 1106
v -0.719643021 1.990754654 0
v -0.690698598 2.321590913 0
v -0.861742743 2.606256173 0
v -0.890687165 2.275419914 0
f 1107 1108 1109 1110
v -0.719643021 1.990754654 0
v -1.040426987 1.904800849 0
v -1.249424289 1.646710675 0
v -0.928640322 1.732664480 0
f 1111 1112 1113 1114
v -1.090786558 2.140706376 0
v -1.067052132 2.411992109 0
v -1.207308331 2.645417623 0
v -1.231042757 2.374131890 0
f 1115 1116 1117 1118
v -1.090786558 2.140706376 0
v -1.353829411 2.070224256 0
v -1.525207199 1.858590314 0
v -1.262164346 1.929072434 0
f 1119 1120 1121 1122
v -1.395124259 2.263666789 0
v -1.375662030 2.486121090 0
v -1.490672113 2.677530011 0
v -1.510134342 2.455075710 0
f 1123 1124 1125 1126
v -1.395124259 2.263666789 0
v -1.610819399 2.205871451 0
v -1.751349184 2.032331618 0
v -1.535654045 2.090126956 0
f 1127 1128 1129 1130
v -1.644681174 2.364494327 0
v -1.628722146 2.546906854 0
v -1.723030414 2.703862169 0
v -1.738989442 2.521449643 0
f 1131 1132 1133 1134
v -1.644681174 2.364494327 0
v -1.821551188 2.317102150 0
v -1.936785613 2.174799487 0
v -1.759915598 2.222191665 0
f 1135 1136 1137 1138
v -1.849317844 2.447172909 0
v -1.836231441 2.596751181 0
v -1.913564221 2.725454539 0
v -1.926650624 2.575876268 0
f 1139 1140 1141 1142
v -1.849317844 2.447172909 0
v -1.994351256 2.408311323 0
v -2.088843484 2.291623140 0
v -1.943810072 2.330484725 0
f 1143 1144 1145 1146
v -2.017119914 2.514969346 0
v -2.006389063 2.637623529 0
v -2.069801943 2.743160283 0
v -2.080532793 2.620506100 0
f 1147 1148 1149 1150
v -2.017119914 2.514969346 0
v -2.136047311 2.483102846 0
v -2.213530938 2.387418535 0
v -2.094603541 2.419285035 0
f 1151 1152 1153 1154
v -2.154717611 2.570562424 0
v -2.145918313 2.671138854 0
v -2.197916874 2.757678992 0
v -2.206716172 2.657102562 0
f 1155 1156 1157 1158
v -2.154717611 2.570562424 0
v -2.252238077 2.544431894 0
v -2.315774651 2.465970759 0
v -2.218254185 2.492101289 0
f 1159 1160 1161 1162
v -2.267547722 2.616148748 0
v -2.260332298 2.698621421 0
v -2.302971118 2.769584334 0
v -2.310186542 2.687111662 0
f 1163 1164 1165 1166
v -2.267547722 2.616148748 0
v -2.347514504 2.594721713 0
v -2.399614495 2.530383583 0
v -2.319647713 2.551810618 0
f 1167 1168 1169 1170
v -2.360068414 2.653529534 0
v -2.354151766 2.721157125 0
v -2.389115599 2.779346714 0
v -2.395032246 2.711719123 0
f 1171 1172 1173 1174
v -2.360068414 2.653529534 0
v -2.425641175 2.635959365 0
v -2.468363167 2.583202099 0
v -2.402790406 2.600772267 0
f 1175 1176 1177 1178
v 0.227100307 2.208216975 0
v 0.463824121 1.931049001 0
v 0.818252957 1.845958166 0
v 0.581529143 2.123126140 0
f 1179 1180 1181 1182
v 0.227100307 2.208216975 0
v 0.406588695 2.525461626 0
v 0.365326123 2.887618568 0
v 0.185837736 2.570373917 0
f 1183 1184 1185 1186
v 0.630005149 2.383404986 0
v 0.824118676 2.156127247 0
v 1.114750321 2.086352762 0
v 0.920636794 2.313630501 0
f 1187 1188 1189 1190
v 0.630005149 2.383404986 0
v 0.777185626 2.643545600 0
v 0.743350318 2.940514292 0
v 0.596169840 2.680373678 0
f 1191 1192 1193 1194
v 0.960387118 2.527059155 0
v 1.119560211 2.340691409 0
v 1.357878160 2.283476332 0
v 1.198705068 2.469844078 0
f 1195 1196 1197 1198
v 0.960387118 2.527059155 0
v 1.081075110 2.740374459 0
v 1.053330157 2.983888786 0
v 0.932642165 2.770573483 0
f 1199 1200 1201 1202
v 1.231300334 2.644855574 0
v 1.361822269 2.492034022 0
v 1.557242988 2.445117658 0
v 1.426721052 2.597939210 0
f 1203 1204 1205 1206
v 1.231300334 2.644855574 0
v 1.330264487 2.819774123 0
v 1.307513626 3.019455871 0
v 1.208549472 2.844537322 0
f 1207 1208 1209 1210
v 1.453449170 2.741448637 0
v 1.560477158 2.616134965 0
v 1.720722147 2.577663546 0
v 1.613694159 2.702977219 0
f 1211 1212 1213 1214
v 1.453449170 2.741448637 0
v 1.534599776 2.884881847 0
v 1.515944070 3.048620881 0
v 1.434793464 2.905187671 0
f 1215 1216 1217 1218
v 1.635611216 2.820654949 0
v 1.723374166 2.717897737 0
v 1.854775057 2.686351175 0
v 1.767012107 2.789108386 0
f 1219 1220 1221 1222
v 1.635611216 2.820654949 0
v 1.702154713 2.938270181 0
v 1.686857034 3.072536189 0
v 1.620313537 2.954920956 0
f 1223 1224 1225 1226
v 1.784984094 2.885604124 0
v 1.856949713 2.801343211 0
v 1.964698443 2.775475030 0
v 1.892732825 2.859735943 0
f 1227 1228 1229 1230
v 1.784984094 2.885604124 0
v 1.839549761 2.982048615 0
v 1.827005664 3.092146741 0
v 1.772439997 2.995702251 0
f 1231 1232 1233 1234
v 1.907469854 2.938862449 0
v 1.966481661 2.869768500 0
v 2.054835620 2.848556591 0
v 1.995823813 2.917650540 0
f 1235 1236 1237 1238
v 1.907469854 2.938862449 0
v 1.952213701 3.017946931 0
v 1.941927541 3.108227394 0
v 1.897183694 3.029142912 0
f 1239 1240 1241 1242
v 2.007908177 2.982534274 0
v 2.056297859 2.925877236 0
v 2.128748105 2.908483471 0
v 2.080358423 2.965140509 0
f 1243 1244 1245 1246
v 2.007908177 2.982534274 0
v 2.044598131 3.047383550 0
v 2.036163480 3.121413530 0
v 1.999473526 3.056564254 0
f 1247 1248 1249 1250
v -0.263988760 2.600496186 0
v -0.241736567 2.964316320 0
v -0.437582274 3.271732502 0
v -0.459834467 2.907912368 0
f 1251 1252 1253 1254
v -0.263988760 2.600496186 0
v -0.613478553 2.496972593 0
v -0.835372094 2.207795301 0
v -0.485882300 2.311318894 0
f 1255 1256 1257 1258
v -0.675510066 2.754357698 0
v -0.657263268 3.052690208 0
v -0.817856748 3.304771477 0
v -0.836103546 3.006438967 0
f 1259 1260 1261 1262
v -0.675510066 2.754357698 0
v -0.962091696 2.669468352 0
v -1.144044400 2.432342972 0
v -0.857462769 2.517232318 0
f 1263 1264 1265 1266
v -1.012957537 2.880524138 0
v -0.997995163 3.125156796 0
v -1.129681816 3.331863437 0
v -1.144644191 3.087230779 0
f 1267 1268 1269 1270
v -1.012957537 2.880524138 0
v -1.247954474 2.810914874 0
v -1.397155691 2.616472062 0
v -1.162158754 2.686081326 0
f 1271 1272 1273 1274
v -1.289664463 2.983980618 0
v -1.277395316 3.184579398 0
v -1.385378372 3.354078843 0
v -1.397647519 3.153480064 0
f 1275 1276 1277 1278
v -1.289664463 2.983980618 0
v -1.482361952 2.926901022 0
v -1.604706950 2.767457916 0
v -1.412009461 2.824537513 0
f 1279 1280 1281 1282
v -1.516564143 3.068814932 0
v -1.506503443 3.233305932 0
v -1.595049548 3.372295477 0
v -1.605110249 3.207804477 0
f 1283 1284 1285 1286
v -1.516564143 3.068814932 0
v -1.674576084 3.022009663 0
v -1.774898982 2.891266317 0
v -1.616887041 2.938071586 0
f 1287 1288 1289 1290
v -1.702621880 3.138379070 0
v -1.694372106 3.273261689 0
v -1.766979913 3.387233116 0
v -1.775229687 3.252350497 0
f 1291 1292 1293 1294
v -1.702621880 3.138379070 0
v -1.832191672 3.099998749 0
v -1.914456448 2.992789205 0
v -1.784886657 3.031169526 0
f 1295 1296 1297 1298
v -1.855189225 3.195421662 0
v -1.848424410 3.306025410 0
v -1.907962811 3.399481981 0
v -1.914727626 3.288878233 0
f 1299 1300 1301 1302
v -1.855189225 3.195421662 0
v -1.961436454 3.163949799 0
v -2.028893570 3.076037973 0
v -1.922646342 3.107509836 0
f 1303 1304 1305 1306
v -1.980294447 3.242196588 0
v -1.974747299 3.332891662 0
v -2.023568788 3.409526049 0
v -2.029115937 3.318830976 0
f 1307 1308 1309 1310
v -1.980294447 3.242196588 0
v -2.067417175 3.216389661 0
v -2.122732011 3.144301963 0
v -2.035609283 3.170108891 0
f 1311 1312 1313 1314
v -2.082880730 3.280552028 0
v -2.078332068 3.354921988 0
v -2.118365690 3.417762186 0
v -2.122914351 3.343392226 0
f 1315 1316 1317 1318
v -2.082880730 3.280552028 0
v -2.154321367 3.259390347 0
v -2.199679532 3.200278435 0
v -2.128238895 3.221440116 0
f 1319 1320 1321 1322
v 0.171143696 2.972311287 0
v 0.390651992 2.728522627 0
v 0.711533312 2.660317197 0
v 0.492025017 2.904105857 0
f 1323 1324 1325 1326
v 0.171143696 2.972311287 0
v 0.325153843 3.261962245 0
v 0.279498107 3.586819685 0
v 0.125487961 3.297168727 0
f 1327 1328 1329 1330
v 0.529506496 3.139418605 0
v 0.709503298 2.939511903 0
v 0.972625981 2.883583451 0
v 0.792629179 3.083490152 0
f 1331 1332 1333 1334
v 0.529506496 3.139418605 0
v 0.655794816 3.376932390 0
v 0.618357112 3.643315491 0
v 0.492068793 3.405801705 0
f 1335 1336 1337 1338
v 0.823363992 3.276446605 0
v 0.970961369 3.112523110 0
v 1.186721969 3.066661779 0
v 1.039124591 3.230585274 0
f 1339 1340 1341 1342
v 0.823363992 3.276446605 0
v 0.926920414 3.471207909 0
v 0.896221497 3.689642052 0
v 0.792665075 3.494880748 0
f 1343 1344 1345 1346
v 1.064327138 3.388809566 0
v 1.185356988 3.254392300 0
v 1.362280680 3.216786008 0
v 1.241250830 3.351203274 0
f 1347 1348 1349 1350
v 1.064327138 3.388809566 0
v 1.149243404 3.548513835 0
v 1.124070293 3.727629832 0
v 1.039154026 3.567925563 0
f 1351 1352 1353 1354
v 1.261916918 3.480947193 0
v 1.361161395 3.370725035 0
v 1.506238822 3.339887876 0
v 1.406994345 3.450110034 0
f 1355 1356 1357 1358
v 1.261916918 3.480947193 0
v 1.331548256 3.611904694 0
v 1.310906305 3.758779812 0
v 1.241274966 3.627822311 0
f 1359 1360 1361 1362
v 1.423940538 3.556500048 0
v 1.505321009 3.466117878 0
v 1.624284499 3.440831408 0
v 1.542904028 3.531213577 0
f 1363 1364 1365 1366
v 1.423940538 3.556500048 0
v 1.481038235 3.663885199 0
v 1.464111835 3.784322795 0
v 1.407014137 3.676937644 0
f 1367 1368 1369 1370
v 1.556799906 3.618453389 0
v 1.623531892 3.544340010 0
v 1.721081954 3.523605104 0
v 1.654349968 3.597718483 0
f 1371 1372 1373 1374
v 1.556799906 3.618453389 0
v 1.603620018 3.706509212 0
v 1.589740369 3.805268041 0
v 1.542920258 3.717212218 0
f 1375 1376 1377 1378
v 1.665744588 3.669255128 0
v 1.720464816 3.608482157 0
v 1.800455867 3.591479535 0
v 1.745735639 3.652252505 0
f 1379 1380 1381 1382
v 1.665744588 3.669255128 0
v 1.704137079 3.741460904 0
v 1.692755768 3.822443143 0
v 1.654363276 3.750237368 0
f 1383 1384 1385 1386
v -0.279926814 3.313671903 0
v -0.268478034 3.641522064 0
v -0.451921266 3.913487840 0
v -0.463370046 3.585637679 0
f 1387 1388 1389 1390
v -0.279926814 3.313671903 0
v -0.591920904 3.212298878 0
v -0.784743856 2.946900853 0
v -0.472749766 3.048273878 0
f 1391 1392 1393 1394
v -0.653793935 3.442404677 0
v -0.644405936 3.711241809 0
v -0.794829386 3.934253745 0
v -0.804217386 3.665416613 0
f 1395 1396 1397 1398
v -0.653793935 3.442404677 0
v -0.909629089 3.359278796 0
v -1.067743910 3.141652416 0
v -0.811908756 3.224778296 0
f 1399 1400 1401 1402
v -0.960364975 3.547965551 0
v -0.952666816 3.768411999 0
v -1.076014045 3.951281787 0
v -1.083712204 3.730835339 0
f 1403 1404 1405 1406
v -0.960364975 3.547965551 0
v -1.170149801 3.479802329 0
v -1.299803954 3.301348697 0
v -1.090019128 3.369511919 0
f 1407 1408 1409 1410
v -1.211753228 3.634525468 0
v -1.205440737 3.815291556 0
v -1.306585465 3.965244782 0
v -1.312897956 3.784478694 0
f 1411 1412 1413 1414
v -1.211753228 3.634525468 0
v -1.383776785 3.578631626 0
v -1.490093191 3.432299648 0
v -1.318069633 3.488193490 0
f 1415 1416 1417 1418
v -1.417891595 3.705504600 0
v -1.412715353 3.853732792 0
v -1.495654029 3.976694437 0
v -1.500830272 3.828466246 0
f 1419 1420 1421 1422
v -1.417891595 3.705504600 0
v -1.558950912 3.659671650 0
v -1.646130365 3.539679428 0
v -1.505071047 3.585512378 0
f 1423 1424 1425 1426
v -1.586925056 3.763707489 0
v -1.582680537 3.885254606 0
v -1.650690252 3.986083155 0
v -1.654934771 3.864536038 0
f 1427 1428 1429 1430
v -1.586925056 3.763707489 0
v -1.702593696 3.726124469 0
v -1.774080847 3.627730847 0
v -1.658412207 3.665313866 0
f 1431 1432 1433 1434
v -1.725532494 3.811433857 0
v -1.722051989 3.911102493 0
v -1.777819955 3.993781903 0
v -1.781300461 3.894113267 0
f 1435 1436 1437 1438
v -1.725532494 3.811433857 0
v -1.820380779 3.780615781 0
v -1.879000243 3.699933011 0
v -1.784151958 3.730751087 0
f 1439 1440 1441 1442
v -1.839190593 3.850569479 0
v -1.836336579 3.932297761 0
v -1.882066311 4.000094877 0
v -1.884920326 3.918366595 0
f 1443 1444 1445 1446
v -1.839190593 3.850569479 0
v -1.916966187 3.825298657 0
v -1.965034147 3.759138785 0
v -1.887258554 3.784409607 0
f 1447 1448 1449 1450
v 0.102798513 3.658442219 0
v 0.306031759 3.444279062 0
v 0.596332854 3.390474935 0
v 0.393099608 3.604638091 0
f 1451 1452 1453 1454
v 0.102798513 3.658442219 0
v 0.234536186 3.922667114 0
v 0.185806705 4.213863007 0
v 0.054069032 3.949638111 0
f 1455 1456 1457 1458
v 0.421277587 3.817230028 0
v 0.587928849 3.641616240 0
v 0.825975747 3.597496855 0
v 0.659324485 3.773110643 0
f 1459 1460 1461 1462
v 0.421277587 3.817230028 0
v 0.529302479 4.033894442 0
v 0.489344305 4.272675074 0
v 0.381319413 4.056010659 0
f 1463 1464 1465 1466
v 0.682430427 3.947436031 0
v 0.819084463 3.803432725 0
v 1.014282919 3.767254829 0
v 0.877628884 3.911258135 0
f 1467 1468 1469 1470
v 0.682430427 3.947436031 0
v 0.771010839 4.125100851 0
v 0.738245136 4.320900969 0
v 0.649664725 4.143236149 0
f 1471 1472 1473 1474
v 0.896575757 4.054204954 0
v 1.008632066 3.936122243 0
v 1.168694800 3.906456368 0
v 1.056638491 4.024539079 0
f 1475 1476 1477 1478
v 0.896575757 4.054204954 0
v 0.969211694 4.199890106 0
v 0.942343818 4.360446203 0
v 0.869707881 4.214761050 0
f 1479 1480 1481 1482
v 1.072174927 4.141755470 0
v 1.164061100 4.044927647 0
v 1.295312542 4.020601630 0
v 1.203426369 4.117429453 0
f 1483 1484 1485 1486
v 1.072174927 4.141755470 0
v 1.131736396 4.261217295 0
v 1.109704737 4.392873294 0
v 1.050143269 4.273411470 0
f 1487 1488 1489 1490
v 1.216166247 4.213546894 0
v 1.291512909 4.134148079 0
v 1.399139091 4.114200745 0
v 1.323792429 4.193599560 0
f 1491 1492 1493 1494
v 1.216166247 4.213546894 0
v 1.265006651 4.311505590 0
v 1.246940691 4.419463510 0
v 1.198100287 4.321504813 0
f 1495 1496 1497 1498
v 1.334239129 4.272415861 0
v 1.396023391 4.207308833 0
v 1.484276861 4.190952019 0
v 1.422492598 4.256059047 0
f 1499 1500 1501 1502
v 1.334239129 4.272415861 0
v 1.374288260 4.352741992 0
v 1.359474173 4.441267486 0
v 1.319425041 4.360941355 0
f 1503 1504 1505 1506
v -0.311068034 3.954934611 0
v -0.308491568 4.250168369 0
v -0.479941212 4.490531905 0
v -0.482517678 4.195298147 0
f 1507 1508 1509 1510
v -0.311068034 3.954934611 0
v -0.589378221 3.856379805 0
v -0.756606831 3.613060668 0
v -0.478296644 3.711615474 0
f 1511 1512 1513 1514
v -0.650465988 4.061946375 0
v -0.648353286 4.304038056 0
v -0.788941995 4.501136156 0
v -0.791054697 4.259044474 0
f 1515 1516 1517 1518
v -0.650465988 4.061946375 0
v -0.878680342 3.981131434 0
v -1.015807801 3.781609742 0
v -0.787593448 3.862424683 0
f 1519 1520 1521 1522
v -0.928772311 4.149696021 0
v -0.927039895 4.348211200 0
v -1.042322636 4.509831642 0
v -1.044055052 4.311316463 0
f 1523 1524 1525 1526
v -0.928772311 4.149696021 0
v -1.115908081 4.083427769 0
v -1.228352598 3.919819982 0
v -1.041216828 3.986088234 0
f 1527 1528 1529 1530
v -1.156983495 4.221650731 0
v -1.155562914 4.384433178 0
v -1.250094762 4.516961940 0
v -1.251515343 4.354179493 0
f 1531 1532 1533 1534
v -1.156983495 4.221650731 0
v -1.310434826 4.167310765 0
v -1.402639330 4.033152379 0
v -1.249187999 4.087492345 0
f 1535 1536 1537 1538
v -1.344116666 4.280653593 0
v -1.342951790 4.414135200 0
v -1.420467905 4.522808785 0
v -1.421632781 4.389327178 0
f 1539 1540 1541 1542
v -1.344116666 4.280653593 0
v -1.469946758 4.236094821 0
v -1.545554451 4.126084945 0
v -1.419724360 4.170643717 0
f 1543 1544 1545 1546
v -1.497565867 4.329035940 0
v -1.496610668 4.438490858 0
v -1.560173882 4.527603197 0
v -1.561129081 4.418148280 0
f 1547 1548 1549 1550
v -1.497565867 4.329035940 0
v -1.600746542 4.292497747 0
v -1.662744850 4.202289648 0
v -1.559564175 4.238827842 0
f 1551 1552 1553 1554
v -1.623394211 4.368709465 0
v -1.622610948 4.458462497 0
v -1.674732784 4.531534616 0
v -1.675516047 4.441781584 0
f 1555 1556 1557 1558
v -1.623394211 4.368709465 0
v -1.708002365 4.338748146 0
v -1.758840978 4.264777506 0
v -1.674232824 4.294738824 0
f 1559 1560 1561 1562
v 0.025144193 4.274138288 0
v 0.213036960 4.086245520 0
v 0.475486000 4.044677676 0
v 0.287593232 4.232570444 0
f 1563 1564 1565 1566
v 0.025144193 4.274138288 0
v 0.137442528 4.514962846 0
v 0.086740667 4.775801312 0
v -0.025557669 4.534976754 0
f 1567 1568 1569 1570
v 0.307936216 4.424501474 0
v 0.462008285 4.270429405 0
v 0.677216498 4.236343772 0
v 0.523144428 4.390415842 0
f 1571 1572 1573 1574
v 0.307936216 4.424501474 0
v 0.400020851 4.621977612 0
v 0.358445325 4.835865154 0
v 0.266360689 4.638389016 0
f 1575 1576 1577 1578
v 0.539825675 4.547799286 0
v 0.666164772 4.421460189 0
v 0.842635506 4.393509971 0
v 0.716296409 4.519849068 0
f 1579 1580 1581 1582
v 0.539825675 4.547799286 0
v 0.615335076 4.709729719 0
v 0.581243144 4.885117504 0
v 0.505733743 4.723187071 0
f 1583 1584 1585 1586
v 0.729975031 4.648903492 0
v 0.833573091 4.545305433 0
v 0.978279093 4.522386254 0
v 0.874681033 4.625984313 0
f 1587 1588 1589 1590
v 0.729975031 4.648903492 0
v 0.791892740 4.781686448 0
v 0.763937356 4.925504431 0
v 0.702019647 4.792721476 0
f 1591 1592 1593 1594
v 0.885897503 4.731808942 0
v 0.970847912 4.646858533 0
v 1.089506834 4.628064806 0
v 1.004556425 4.713015215 0
f 1595 1596 1597 1598
v 0.885897503 4.731808942 0
v 0.936670025 4.840690965 0
v 0.913746610 4.958621711 0
v 0.862974088 4.849739688 0
f 1599 1600 1601 1602
v 1.013753931 4.799791410 0
v 1.083413266 4.730132075 0
v 1.180713582 4.714721219 0
v 1.111054246 4.784380554 0
f 1603 1604 1605 1606
v 1.013753931 4.799791410 0
v 1.055387398 4.889074669 0
v 1.036590198 4.985777881 0
v 0.994956730 4.896494622 0
f 1607 1608 1609 1610
v -0.354193199 4.531139613 0
v -0.358830661 4.796819643 0
v -0.518745250 5.009033470 0
v -0.514107788 4.743353440 0
f 1611 1612 1613 1614
v -0.354193199 4.531139613 0
v -0.602264657 4.435913903 0
v -0.746986414 4.213061940 0
v -0.498914956 4.308287651 0
f 1615 1616 1617 1618
v -0.662067802 4.619421235 0
v -0.665870521 4.837278859 0
v -0.797000484 5.011294198 0
v -0.793197765 4.793436573 0
f 1619 1620 1621 1622
v -0.662067802 4.619421235 0
v -0.865486398 4.541336152 0
v -0.984158238 4.358597543 0
v -0.780739643 4.436682626 0
f 1623 1624 1625 1626
v -0.914524977 4.691812165 0
v -0.917643207 4.870455417 0
v -1.025169776 5.013147994 0
v -1.022051547 4.834504743 0
f 1627 1628 1629 1630
v -0.914524977 4.691812165 0
v -1.081328225 4.627782397 0
v -1.178639134 4.477936738 0
v -1.011835886 4.541966506 0
f 1631 1632 1633 1634
v -1.121539860 4.751172728 0
v -1.124096808 4.897660194 0
v -1.212268595 5.014668108 0
v -1.209711647 4.868180641 0
f 1635 1636 1637 1638
v -1.121539860 4.751172728 0
v -1.258318524 4.698668318 0
v -1.338113469 4.575794877 0
v -1.201334806 4.628299287 0
f 1639 1640 1641 1642
v -1.291292064 4.799848389 0
v -1.293388762 4.919968112 0
v -1.365689627 5.015914601 0
v -1.363592930 4.895794878 0
f 1643 1644 1645 1646
v -1.291292064 4.799848389 0
v -1.403450568 4.756794773 0
v -1.468882424 4.656038552 0
v -1.356723920 4.699092167 0
f 1647 1648 1649 1650
v -1.430488872 4.839762431 0
v -1.432208164 4.938260604 0
v -1.491494873 5.016936725 0
v -1.489775581 4.918438552 0
f 1651 1652 1653 1654
v -1.430488872 4.839762431 0
v -1.522458845 4.804458466 0
v -1.576112967 4.721838365 0
v -1.484142993 4.757142330 0
f 1655 1656 1657 1658
v -0.059226086 4.826245387 0
v 0.114246071 4.661626457 0
v 0.351348573 4.630411321 0
v 0.177876416 4.795030251 0
f 1659 1660 1661 1662
v -0.059226086 4.826245387 0
v 0.036134136 5.045558883 0
v -0.015627062 5.279038559 0
v -0.110987284 5.059725064 0
f 1663 1664 1665 1666
v 0.191657075 4.968188250 0
v 0.333904244 4.833200728 0
v 0.528328295 4.807604316 0
v 0.386081127 4.942591838 0
f 1667 1668 1669 1670
v 0.191657075 4.968188250 0
v 0.269852457 5.148025316 0
v 0.227408275 5.339478651 0
v 0.149212893 5.159641585 0
f 1671 1672 1673 1674
v 0.397381268 5.084581398 0
v 0.514023946 4.973891630 0
v 0.673451668 4.952902572 0
v 0.556808990 5.063592340 0
f 1675 1676 1677 1678
v 0.397381268 5.084581398 0
v 0.461501481 5.232047792 0
v 0.426697251 5.389039527 0
v 0.362577038 5.241573133 0
f 1679 1680 1681 1682
v 0.566075105 5.180023779 0
v 0.661722101 5.089258169 0
v 0.792452833 5.072047142 0
v 0.696805838 5.162812752 0
f 1683 1684 1685 1686
v 0.566075105 5.180023779 0
v 0.618653680 5.300946223 0
v 0.590114212 5.429679445 0
v 0.537535637 5.308757002 0
f 1687 1688 1689 1690
v 0.704404052 5.258286532 0
v 0.782834589 5.183858732 0
v 0.890033789 5.169745689 0
v 0.811603253 5.244173489 0
f 1691 1692 1693 1694
v 0.704404052 5.258286532 0
v 0.747518483 5.357442935 0
v 0.724116119 5.463004178 0
v 0.681001688 5.363847774 0
f 1695 1696 1697 1698
v -0.406567507 5.048530413 0
v -0.416999016 5.287451247 0
v -0.565872427 5.474610775 0
v -0.555440918 5.235689941 0
f 1699 1700 1701 1702
v -0.406567507 5.048530413 0
v -0.627511866 4.957012264 0
v -0.752466587 4.753104690 0
v -0.531522229 4.844622840 0
f 1703 1704 1705 1706
v -0.685639549 5.120703350 0
v -0.694193386 5.316618434 0
v -0.816269582 5.470089247 0
v -0.807715745 5.274174163 0
f 1707 1708 1709 1710
v -0.685639549 5.120703350 0
v -0.866813922 5.045658468 0
v -0.969276794 4.878454257 0
v -0.788102420 4.953499140 0
f 1711 1712 1713 1714
v -0.914478622 5.179885159 0
v -0.921492769 5.340535527 0
v -1.021595250 5.466381594 0
v -1.014581103 5.305731225 0
f 1715 1716 1717 1718
v -0.914478622 5.179885159 0
v -1.063041609 5.118348355 0
v -1.147061164 4.981240902 0
v -0.998498177 5.042777706 0
f 1719 1720 1721 1722
v -1.102126663 5.228414242 0
v -1.107878263 5.360147544 0
v -1.189962297 5.463341318 0
v -1.184210697 5.331608016 0
f 1723 1724 1725 1726
v -1.102126663 5.228414242 0
v -1.223948312 5.177954063 0
v -1.292844347 5.065525951 0
v -1.171022698 5.115986131 0
f 1727 1728 1729 1730
v -1.255998056 5.268208090 0
v -1.260714368 5.376229398 0
v -1.328023276 5.460848293 0
v -1.323306964 5.352826985 0
f 1731 1732 1733 1734
v -1.255998056 5.268208090 0
v -1.355891808 5.226830743 0
v -1.412386557 5.134639692 0
v -1.312492805 5.176017039 0
f 1735 1736 1737 1738
v -0.148140547 5.320983802 0
v 0.011809193 5.176964409 0
v 0.225863726 5.154466371 0
v 0.065913986 5.298485764 0
f 1739 1740 1741 1742
v -0.148140547 5.320983802 0
v -0.067512620 5.520544925 0
v -0.119582341 5.729385172 0
v -0.200210269 5.529824049 0
f 1743 1744 1745 1746
v 0.074232856 5.454599222 0
v 0.205391643 5.336503320 0
v 0.380916359 5.318054929 0
v 0.249757573 5.436150831 0
f 1747 1748 1749 1750
v 0.074232856 5.454599222 0
v 0.140347756 5.618239344 0
v 0.097650585 5.789488346 0
v 0.031535684 5.625848225 0
f 1751 1752 1753 1754
v 0.256579046 5.564163867 0
v 0.364129251 5.467325228 0
v 0.508059519 5.452197547 0
v 0.400509314 5.549036186 0
f 1755 1756 1757 1758
v 0.256579046 5.564163867 0
v 0.310793265 5.698348767 0
v 0.275781584 5.838772949 0
v 0.221567365 5.704588049 0
f 1759 1760 1761 1762
v 0.406102922 5.654006876 0
v 0.494294091 5.574599191 0
v 0.612316910 5.562194493 0
v 0.524125742 5.641602178 0
f 1763 1764 1765 1766
v 0.406102922 5.654006876 0
v 0.450558582 5.764038493 0
v 0.421849003 5.879186323 0
v 0.377393344 5.769154705 0
f 1767 1768 1769 1770
v -0.465877573 5.512788666 0
v -0.480891510 5.727497973 0
v -0.619241005 5.892376480 0
v -0.604227068 5.677667173 0
f 1771 1772 1773 1774
v -0.465877573 5.512788666 0
v -0.662503255 5.425245272 0
v -0.770120058 5.238847503 0
v -0.573494376 5.326390897 0
f 1775 1776 1777 1778
v -0.718656683 5.571147322 0
v -0.730968111 5.747208954 0
v -0.844414697 5.882409329 0
v -0.832103268 5.706347698 0
f 1779 1780 1781 1782
v -0.718656683 5.571147322 0
v -0.879889742 5.499361739 0
v -0.968135520 5.346515568 0
v -0.806902461 5.418301151 0
f 1783 1784 1785 1786
v -0.925935553 5.619001420 0
v -0.936030924 5.763371958 0
v -1.029057124 5.874236266 0
v -1.018961753 5.729865728 0
f 1787 1788 1789 1790
v -0.925935553 5.619001420 0
v -1.058146661 5.560137242 0
v -1.130508199 5.434803381 0
v -0.998297091 5.493667559 0
f 1791 1792 1793 1794
v -1.095904226 5.658241780 0
v -1.104182430 5.776625621 0
v -1.180463915 5.867534354 0
v -1.172185710 5.749150513 0
f 1795 1796 1797 1798
v -1.095904226 5.658241780 0
v -1.204317335 5.609973154 0
v -1.263653796 5.507199388 0
v -1.155240687 5.555468014 0
f 1799 1800 1801 1802
v -0.239791808 5.764001035 0
v -0.092493383 5.638196295 0
v 0.100619718 5.622997965 0
v -0.046678708 5.748802705 0
f 1803 1804 1805 1806
v -0.239791808 5.764001035 0
v -0.171953051 5.945444034 0
v -0.223719862 6.132109125 0
v -0.291558619 5.950666126 0
f 1807 1808 1809 1810
v -0.042872207 5.889452657 0
v 0.077912502 5.786292770 0
v 0.236265245 5.773830139 0
v 0.115480536 5.876990026 0
f 1811 1812 1813 1814
v -0.042872207 5.889452657 0
v 0.012755575 6.038235916 0
v -0.029693211 6.191301291 0
v -0.085320992 6.042518032 0
f 1815 1816 1817 1818
v 0.118601867 5.992322987 0
v 0.217645328 5.907731880 0
v 0.347494577 5.897512522 0
v 0.248451115 5.982103630 0
f 1819 1820 1821 1822
v 0.118601867 5.992322987 0
v 0.164216647 6.114325260 0
v 0.129408643 6.239838867 0
v 0.083793863 6.117836594 0
f 1823 1824 1825 1826
v -0.530175918 5.929080612 0
v -0.548742223 6.121899053 0
v -0.677098514 6.266979449 0
v -0.658532210 6.074161008 0
f 1827 1828 1829 1830
v -0.530175918 5.929080612 0
v -0.705015935 5.845686202 0
v -0.797446475 5.675450325 0
v -0.622606459 5.758844735 0
f 1831 1832 1833 1834
v -0.758974044 5.975630117 0
v -0.774198414 6.133741239 0
v -0.879450573 6.252707163 0
v -0.864226203 6.094596042 0
f 1835 1836 1837 1838
v -0.758974044 5.975630117 0
v -0.902342858 5.907246701 0
v -0.978135901 5.767653281 0
v -0.834767087 5.836036697 0
f 1839 1840 1841 1842
v -0.946588508 6.013800711 0
v -0.959072491 6.143451831 0
v -1.045379261 6.241003889 0
v -1.032895278 6.111352769 0
f 1843 1844 1845 1846
v -0.946588508 6.013800711 0
v -1.064150935 5.957726310 0
v -1.126301230 5.843259706 0
v -1.008738803 5.899334107 0
f 1847 1848 1849 1850
v -0.332686832 6.160420681 0
v -0.197199812 6.050705455 0
v -0.023099517 6.041581245 0
v -0.158586538 6.151296471 0
f 1851 1852 1853 1854
v -0.332686832 6.160420681 0
v -0.275927534 6.325261652 0
v -0.326899389 6.491983077 0
v -0.383658687 6.327142106 0
f 1855 1856 1857 1858
v -0.158475469 6.277927729 0
v -0.047376112 6.187961243 0
v 0.095386129 6.180479391 0
v -0.015713228 6.270445877 0
f 1859 1860 1861 1862
v -0.158475469 6.277927729 0
v -0.111932845 6.413097325 0
v -0.153729766 6.549808894 0
v -0.200272390 6.414639298 0
f 1863 1864 1865 1866
v -0.597832127 6.302100155 0
v -0.619078733 6.475139877 0
v -0.737977795 6.602643511 0
v -0.716731189 6.429603789 0
f 1867 1868 1869 1870
v -0.597832127 6.302100155 0
v -0.753169509 6.222951806 0
v -0.832317859 6.067614423 0
v -0.676980476 6.146762773 0
f 1871 1872 1873 1874
v -0.804776549 6.338590040 0
v -0.822198766 6.480482612 0
v -0.919695997 6.585035592 0
v -0.902273779 6.443143020 0
f 1875 1876 1877 1878
v -0.804776549 6.338590040 0
v -0.932153202 6.273688394 0
v -0.997054849 6.146311740 0
v -0.869678195 6.211213387 0
f 1879 1880 1881 1882
v -0.425603056 6.514887565 0
v -0.301121713 6.419369672 0
v -0.144270183 6.415262370 0
v -0.268751525 6.510780263 0
f 1883 1884 1885 1886
v -0.425603056 6.514887565 0
v -0.378420722 6.664530808 0
v -0.428207504 6.813327813 0
v -0.475389837 6.663684571 0
f 1887 1888 1889 1890
v -0.667489910 6.636108772 0
v -0.690681990 6.791290601 0
v -0.800658367 6.903203375 0
v -0.777466287 6.748021546 0
f 1891 1892 1893 1894
v -0.667489910 6.636108772 0
v -0.805380971 6.561240034 0
v -0.872930443 6.419619621 0
v -0.735039382 6.494488359 0
f 1895 1896 1897 1898
