# Lab 05 portable L-system preview; XY plane, +Y up
v 0.000000000 0.000000000 0
v 0.000000000 0.800000000 0
l 1 2
v 0.000000000 0.800000000 0
v 0.000000000 1.250000000 0
l 3 4
v 0.000000000 1.250000000 0
v 0.267028950 1.357886699 0
l 5 6
v 0.267028950 1.357886699 0
v 0.913103657 0.938320878 0
l 7 8
v 0.267028950 1.357886699 0
v 0.440321292 2.108498296 0
l 9 10
v 0.267028950 1.357886699 0
v 0.500679281 1.452287560 0
l 11 12
v 0.500679281 1.452287560 0
v 0.719643021 1.540754654 0
l 13 14
v 0.719643021 1.540754654 0
v 1.249424280 1.196710681 0
l 15 16
v 0.719643021 1.540754654 0
v 0.861742741 2.156256163 0
l 17 18
v 0.719643021 1.540754654 0
v 0.911236292 1.618163360 0
l 19 20
v 0.911236292 1.618163360 0
v 1.090786558 1.690706376 0
l 21 22
v 1.090786558 1.690706376 0
v 1.525207191 1.408590319 0
l 23 24
v 1.090786558 1.690706376 0
v 1.207308329 2.195417614 0
l 25 26
v 1.090786558 1.690706376 0
v 1.247893041 1.754181516 0
l 27 28
v 1.247893041 1.754181516 0
v 1.395124259 1.813666789 0
l 29 30
v 1.395124259 1.813666789 0
v 1.751349178 1.582331622 0
l 31 32
v 1.395124259 1.813666789 0
v 1.490672111 2.227530004 0
l 33 34
v 1.395124259 1.813666789 0
v 1.523951575 1.865716403 0
l 35 36
v 1.523951575 1.865716403 0
v 1.644681174 1.914494327 0
l 37 38
v 1.644681174 1.914494327 0
v 1.936785608 1.724799490 0
l 39 40
v 1.644681174 1.914494327 0
v 1.723030413 2.253862164 0
l 41 42
v 1.644681174 1.914494327 0
v 1.750319573 1.957175011 0
l 43 44
v 1.750319573 1.957175011 0
v 1.849317844 1.997172909 0
l 45 46
v 1.849317844 1.997172909 0
v 2.088843480 1.841623142 0
l 47 48
v 1.849317844 1.997172909 0
v 1.913564220 2.275454535 0
l 49 50
v 1.849317844 1.997172909 0
v 1.935941331 2.032171070 0
l 51 52
v 1.935941331 2.032171070 0
v 2.017119914 2.064969346 0
l 53 54
v 2.017119914 2.064969346 0
v 2.088151173 2.093667837 0
l 55 56
v 0.000000000 1.250000000 0
v 0.000000000 1.700000000 0
l 57 58
v 0.000000000 1.700000000 0
v -0.267028950 1.807886699 0
l 59 60
v -0.267028950 1.807886699 0
v -0.440321292 2.558498296 0
l 61 62
v -0.267028950 1.807886699 0
v -0.913103657 1.388320878 0
l 63 64
v -0.267028950 1.807886699 0
v -0.500679281 1.902287560 0
l 65 66
v -0.500679281 1.902287560 0
v -0.719643021 1.990754654 0
l 67 68
v -0.719643021 1.990754654 0
v -0.861742741 2.606256163 0
l 69 70
v -0.719643021 1.990754654 0
v -1.249424280 1.646710681 0
l 71 72
v -0.719643021 1.990754654 0
v -0.911236292 2.068163360 0
l 73 74
v -0.911236292 2.068163360 0
v -1.090786558 2.140706376 0
l 75 76
v -1.090786558 2.140706376 0
v -1.207308329 2.645417614 0
l 77 78
v -1.090786558 2.140706376 0
v -1.525207191 1.858590319 0
l 79 80
v -1.090786558 2.140706376 0
v -1.247893041 2.204181516 0
l 81 82
v -1.247893041 2.204181516 0
v -1.395124259 2.263666789 0
l 83 84
v -1.395124259 2.263666789 0
v -1.490672111 2.677530004 0
l 85 86
v -1.395124259 2.263666789 0
v -1.751349178 2.032331622 0
l 87 88
v -1.395124259 2.263666789 0
v -1.523951575 2.315716403 0
l 89 90
v -1.523951575 2.315716403 0
v -1.644681174 2.364494327 0
l 91 92
v -1.644681174 2.364494327 0
v -1.723030413 2.703862164 0
l 93 94
v -1.644681174 2.364494327 0
v -1.936785608 2.174799490 0
l 95 96
v -1.644681174 2.364494327 0
v -1.750319573 2.407175011 0
l 97 98
v -1.750319573 2.407175011 0
v -1.849317844 2.447172909 0
l 99 100
v -1.849317844 2.447172909 0
v -1.913564220 2.725454535 0
l 101 102
v -1.849317844 2.447172909 0
v -2.088843480 2.291623142 0
l 103 104
v -1.849317844 2.447172909 0
v -1.935941331 2.482171070 0
l 105 106
v -1.935941331 2.482171070 0
v -2.017119914 2.514969346 0
l 107 108
v -2.017119914 2.514969346 0
v -2.088151173 2.543667837 0
l 109 110
v 0.000000000 1.700000000 0
v -0.010601664 2.104861217 0
l 111 112
v -0.010601664 2.104861217 0
v 0.227100307 2.208216975 0
l 113 114
v 0.227100307 2.208216975 0
v 0.818252947 1.845958172 0
l 115 116
v 0.227100307 2.208216975 0
v 0.365326121 2.887618556 0
l 117 118
v 0.227100307 2.208216975 0
v 0.435089532 2.298653264 0
l 119 120
v 0.435089532 2.298653264 0
v 0.630005149 2.383404986 0
l 121 122
v 0.630005149 2.383404986 0
v 1.114750313 2.086352767 0
l 123 124
v 0.630005149 2.383404986 0
v 0.743350316 2.940514283 0
l 125 126
v 0.630005149 2.383404986 0
v 0.800556313 2.457562743 0
l 127 128
v 0.800556313 2.457562743 0
v 0.960387118 2.527059155 0
l 129 130
v 0.960387118 2.527059155 0
v 1.357878153 2.283476336 0
l 131 132
v 0.960387118 2.527059155 0
v 1.053330156 2.983888778 0
l 133 134
v 0.960387118 2.527059155 0
v 1.100239073 2.587868516 0
l 135 136
v 1.100239073 2.587868516 0
v 1.231300334 2.644855574 0
l 137 138
v 1.231300334 2.644855574 0
v 1.557242982 2.445117662 0
l 139 140
v 1.231300334 2.644855574 0
v 1.307513624 3.019455865 0
l 141 142
v 1.231300334 2.644855574 0
v 1.345978937 2.694719249 0
l 143 144
v 1.345978937 2.694719249 0
v 1.453449170 2.741448637 0
l 145 146
v 1.453449170 2.741448637 0
v 1.720722142 2.577663549 0
l 147 148
v 1.453449170 2.741448637 0
v 1.515944069 3.048620875 0
l 149 150
v 1.453449170 2.741448637 0
v 1.547485625 2.782336851 0
l 151 152
v 1.547485625 2.782336851 0
v 1.635611216 2.820654949 0
l 153 154
v 1.635611216 2.820654949 0
v 1.712721109 2.854183284 0
l 155 156
v -0.010601664 2.104861217 0
v -0.021203328 2.509722433 0
l 157 158
v -0.021203328 2.509722433 0
v -0.263988760 2.600496186 0
l 159 160
v -0.263988760 2.600496186 0
v -0.437582271 3.271732491 0
l 161 162
v -0.263988760 2.600496186 0
v -0.835372084 2.207795308 0
l 163 164
v -0.263988760 2.600496186 0
v -0.476426012 2.679923221 0
l 165 166
v -0.476426012 2.679923221 0
v -0.675510066 2.754357698 0
l 167 168
v -0.675510066 2.754357698 0
v -0.817856745 3.304771468 0
l 169 170
v -0.675510066 2.754357698 0
v -1.144044392 2.432342977 0
l 171 172
v -0.675510066 2.754357698 0
v -0.849708613 2.819487866 0
l 173 174
v -0.849708613 2.819487866 0
v -1.012957537 2.880524138 0
l 175 176
v -1.012957537 2.880524138 0
v -1.129681814 3.331863429 0
l 177 178
v -1.012957537 2.880524138 0
v -1.397155684 2.616472067 0
l 179 180
v -1.012957537 2.880524138 0
v -1.155800346 2.933930875 0
l 181 182
v -1.155800346 2.933930875 0
v -1.289664463 2.983980618 0
l 183 184
v -1.289664463 2.983980618 0
v -1.385378371 3.354078837 0
l 185 186
v -1.289664463 2.983980618 0
v -1.604706944 2.767457920 0
l 187 188
v -1.289664463 2.983980618 0
v -1.406795566 3.027774143 0
l 189 190
v -1.406795566 3.027774143 0
v -1.516564143 3.068814932 0
l 191 192
v -1.516564143 3.068814932 0
v -1.595049547 3.372295472 0
l 193 194
v -1.516564143 3.068814932 0
v -1.774898977 2.891266320 0
l 195 196
v -1.516564143 3.068814932 0
v -1.612611648 3.104725623 0
l 197 198
v -1.612611648 3.104725623 0
v -1.702621880 3.138379070 0
l 199 200
v -1.702621880 3.138379070 0
v -1.781380834 3.167825836 0
l 201 202
v -0.021203328 2.509722433 0
v -0.040279784 2.873722899 0
l 203 204
v -0.040279784 2.873722899 0
v 0.171143696 2.972311287 0
l 205 206
v 0.171143696 2.972311287 0
v 0.711533303 2.660317202 0
l 207 208
v 0.171143696 2.972311287 0
v 0.279498105 3.586819674 0
l 209 210
v 0.171143696 2.972311287 0
v 0.356139242 3.058576126 0
l 211 212
v 0.356139242 3.058576126 0
v 0.529506496 3.139418605 0
l 213 214
v 0.529506496 3.139418605 0
v 0.972625973 2.883583455 0
l 215 216
v 0.529506496 3.139418605 0
v 0.618357111 3.643315482 0
l 217 218
v 0.529506496 3.139418605 0
v 0.681202843 3.210155773 0
l 219 220
v 0.681202843 3.210155773 0
v 0.823363992 3.276446605 0
l 221 222
v 0.823363992 3.276446605 0
v 1.186721963 3.066661783 0
l 223 224
v 0.823363992 3.276446605 0
v 0.896221496 3.689642045 0
l 225 226
v 0.823363992 3.276446605 0
v 0.947754996 3.334451083 0
l 227 228
v 0.947754996 3.334451083 0
v 1.064327138 3.388809566 0
l 229 230
v 1.064327138 3.388809566 0
v 1.362280675 3.216786011 0
l 231 232
v 1.064327138 3.388809566 0
v 1.124070292 3.727629826 0
l 233 234
v 1.064327138 3.388809566 0
v 1.166327762 3.436373238 0
l 235 236
v 1.166327762 3.436373238 0
v 1.261916918 3.480947193 0
l 237 238
v 1.261916918 3.480947193 0
v 1.345557430 3.519949404 0
l 239 240
v -0.040279784 2.873722899 0
v -0.059356240 3.237723364 0
l 241 242
v -0.059356240 3.237723364 0
v -0.279926814 3.313671903 0
l 243 244
v -0.279926814 3.313671903 0
v -0.451921263 3.913487829 0
l 245 246
v -0.279926814 3.313671903 0
v -0.784743847 2.946900859 0
l 247 248
v -0.279926814 3.313671903 0
v -0.472926065 3.380126875 0
l 249 250
v -0.472926065 3.380126875 0
v -0.653793935 3.442404677 0
l 251 252
v -0.653793935 3.442404677 0
v -0.794829384 3.934253736 0
l 253 254
v -0.653793935 3.442404677 0
v -1.067743903 3.141652421 0
l 255 256
v -0.653793935 3.442404677 0
v -0.812053322 3.496897754 0
l 257 258
v -0.812053322 3.496897754 0
v -0.960364975 3.547965551 0
l 259 260
v -0.960364975 3.547965551 0
v -1.076014043 3.951281780 0
l 261 262
v -0.960364975 3.547965551 0
v -1.299803949 3.301348702 0
l 263 264
v -0.960364975 3.547965551 0
v -1.090137672 3.592649874 0
l 265 266
v -1.090137672 3.592649874 0
v -1.211753228 3.634525468 0
l 267 268
v -1.211753228 3.634525468 0
v -1.306585463 3.965244776 0
l 269 270
v -1.211753228 3.634525468 0
v -1.490093186 3.432299652 0
l 271 272
v -1.211753228 3.634525468 0
v -1.318166839 3.671166613 0
l 273 274
v -1.318166839 3.671166613 0
v -1.417891595 3.705504600 0
l 275 276
v -1.417891595 3.705504600 0
v -1.505150756 3.735550339 0
l 277 278
v -0.059356240 3.237723364 0
v -0.085094747 3.564762095 0
l 279 280
v -0.085094747 3.564762095 0
v 0.102798513 3.658442219 0
l 281 282
v 0.102798513 3.658442219 0
v 0.596332846 3.390474939 0
l 283 284
v 0.102798513 3.658442219 0
v 0.185806704 4.213862997 0
l 285 286
v 0.102798513 3.658442219 0
v 0.267205114 3.740412327 0
l 287 288
v 0.267205114 3.740412327 0
v 0.421277587 3.817230028 0
l 289 290
v 0.421277587 3.817230028 0
v 0.825975740 3.597496859 0
l 291 292
v 0.421277587 3.817230028 0
v 0.489344304 4.272675066 0
l 293 294
v 0.421277587 3.817230028 0
v 0.556091000 3.884445516 0
l 295 296
v 0.556091000 3.884445516 0
v 0.682430427 3.947436031 0
l 297 298
v 0.682430427 3.947436031 0
v 1.014282913 3.767254832 0
l 299 300
v 0.682430427 3.947436031 0
v 0.738245135 4.320900962 0
l 301 302
v 0.682430427 3.947436031 0
v 0.792977426 4.002552731 0
l 303 304
v 0.792977426 4.002552731 0
v 0.896575757 4.054204954 0
l 305 306
v 0.896575757 4.054204954 0
v 0.987224296 4.099400648 0
l 307 308
v -0.085094747 3.564762095 0
v -0.110833253 3.891800827 0
l 309 310
v -0.110833253 3.891800827 0
v -0.311068034 3.954934611 0
l 311 312
v -0.311068034 3.954934611 0
v -0.479941209 4.490531896 0
l 313 314
v -0.311068034 3.954934611 0
v -0.756606823 3.613060674 0
l 315 316
v -0.311068034 3.954934611 0
v -0.486273468 4.010176672 0
l 317 318
v -0.486273468 4.010176672 0
v -0.650465988 4.061946375 0
l 319 320
v -0.650465988 4.061946375 0
v -0.788941992 4.501136148 0
l 321 322
v -0.650465988 4.061946375 0
v -1.015807795 3.781609746 0
l 323 324
v -0.650465988 4.061946375 0
v -0.794134444 4.107244865 0
l 325 326
v -0.794134444 4.107244865 0
v -0.928772311 4.149696021 0
l 327 328
v -0.928772311 4.149696021 0
v -1.042322634 4.509831636 0
l 329 330
v -0.928772311 4.149696021 0
v -1.228352592 3.919819986 0
l 331 332
v -0.928772311 4.149696021 0
v -1.046580444 4.186840783 0
l 333 334
v -1.046580444 4.186840783 0
v -1.156983495 4.221650731 0
l 335 336
v -1.156983495 4.221650731 0
v -1.253586165 4.252109436 0
l 337 338
v -0.110833253 3.891800827 0
v -0.141694759 4.185428444 0
l 339 340
v -0.141694759 4.185428444 0
v 0.025144193 4.274138288 0
l 341 342
v 0.025144193 4.274138288 0
v 0.475485992 4.044677680 0
l 343 344
v 0.025144193 4.274138288 0
v 0.086740666 4.775801304 0
l 345 346
v 0.025144193 4.274138288 0
v 0.171128275 4.351759402 0
l 347 348
v 0.171128275 4.351759402 0
v 0.307936216 4.424501474 0
l 349 350
v 0.307936216 4.424501474 0
v 0.677216491 4.236343775 0
l 351 352
v 0.307936216 4.424501474 0
v 0.358445324 4.835865147 0
l 353 354
v 0.307936216 4.424501474 0
v 0.427643164 4.488150787 0
l 355 356
v 0.427643164 4.488150787 0
v 0.539825675 4.547799286 0
l 357 358
v 0.539825675 4.547799286 0
v 0.637985372 4.599991723 0
l 359 360
v -0.141694759 4.185428444 0
v -0.172556265 4.479056061 0
l 361 362
v -0.172556265 4.479056061 0
v -0.354193199 4.531139613 0
l 363 364
v -0.354193199 4.531139613 0
v -0.518745247 5.009033462 0
l 365 366
v -0.354193199 4.531139613 0
v -0.746986407 4.213061946 0
l 367 368
v -0.354193199 4.531139613 0
v -0.513125517 4.576712722 0
l 369 370
v -0.513125517 4.576712722 0
v -0.662067802 4.619421235 0
l 371 372
v -0.662067802 4.619421235 0
v -0.797000482 5.011294191 0
l 373 374
v -0.662067802 4.619421235 0
v -0.984158233 4.358597548 0
l 375 376
v -0.662067802 4.619421235 0
v -0.792392303 4.656791184 0
l 377 378
v -0.792392303 4.656791184 0
v -0.914524977 4.691812165 0
l 379 380
v -0.914524977 4.691812165 0
v -1.021391067 4.722455523 0
l 381 382
v -0.172556265 4.479056061 0
v -0.207239750 4.742503285 0
l 383 384
v -0.207239750 4.742503285 0
v -0.059226086 4.826245387 0
l 385 386
v -0.059226086 4.826245387 0
v 0.351348565 4.630411324 0
l 387 388
v -0.059226086 4.826245387 0
v -0.015627063 5.279038552 0
l 389 390
v -0.059226086 4.826245387 0
v 0.070285871 4.899519727 0
l 391 392
v 0.070285871 4.899519727 0
v 0.191657075 4.968188250 0
l 393 394
v 0.191657075 4.968188250 0
v 0.297856880 5.028273209 0
l 395 396
v -0.207239750 4.742503285 0
v -0.241923235 5.005950509 0
l 397 398
v -0.241923235 5.005950509 0
v -0.406567507 5.048530413 0
l 399 400
v -0.406567507 5.048530413 0
v -0.565872424 5.474610767 0
l 401 402
v -0.406567507 5.048530413 0
v -0.752466582 4.753104695 0
l 403 404
v -0.406567507 5.048530413 0
v -0.550631245 5.085787829 0
l 405 406
v -0.550631245 5.085787829 0
v -0.685639549 5.120703350 0
l 407 408
v -0.685639549 5.120703350 0
v -0.803771814 5.151254431 0
l 409 410
v -0.241923235 5.005950509 0
v -0.279334295 5.242154645 0
l 411 412
v -0.279334295 5.242154645 0
v -0.148140547 5.320983802 0
l 413 414
v -0.148140547 5.320983802 0
v -0.033346018 5.389959314 0
l 415 416
v -0.279334295 5.242154645 0
v -0.316745355 5.478358781 0
l 417 418
v -0.316745355 5.478358781 0
v -0.465877573 5.512788666 0
l 419 420
v -0.465877573 5.512788666 0
v -0.596368264 5.542914816 0
l 421 422
v -0.316745355 5.478358781 0
v -0.355968564 5.689988279 0
l 423 424
v -0.355968564 5.689988279 0
v -0.395191773 5.901617778 0
l 425 426
v 0.267028950 1.357886699 0
v 0.521903708 1.043142585 0
v 0.913103668 0.938320871 0
v 0.658228910 1.253064986 0
f 427 428 429 430
v 0.267028950 1.357886699 0
v 0.475619370 1.705039456 0
v 0.440321295 2.108498308 0
v 0.231730874 1.761345552 0
f 431 432 433 434
v 0.719643021 1.540754654 0
v 0.928640322 1.282664480 0
v 1.249424289 1.196710675 0
v 1.040426987 1.454800849 0
f 435 436 437 438
v 0.719643021 1.540754654 0
v 0.890687165 1.825419914 0
v 0.861742743 2.156256173 0
v 0.690698598 1.871590913 0
f 439 440 441 442
v 1.090786558 1.690706376 0
v 1.262164346 1.479072434 0
v 1.525207199 1.408590314 0
v 1.353829411 1.620224256 0
f 443 444 445 446
v 1.090786558 1.690706376 0
v 1.231042757 1.924131890 0
v 1.207308331 2.195417623 0
v 1.067052132 1.961992109 0
f 447 448 449 450
v 1.395124259 1.813666789 0
v 1.535654045 1.640126956 0
v 1.751349184 1.582331618 0
v 1.610819399 1.755871451 0
f 451 452 453 454
v 1.395124259 1.813666789 0
v 1.510134342 2.005075710 0
v 1.490672113 2.227530011 0
v 1.375662030 2.036121090 0
f 455 456 457 458
v 1.644681174 1.914494327 0
v 1.759915598 1.772191665 0
v 1.936785613 1.724799487 0
v 1.821551188 1.867102150 0
f 459 460 461 462
v 1.644681174 1.914494327 0
v 1.738989442 2.071449643 0
v 1.723030414 2.253862169 0
v 1.628722146 2.096906854 0
f 463 464 465 466
v 1.849317844 1.997172909 0
v 1.943810072 1.880484725 0
v 2.088843484 1.841623140 0
v 1.994351256 1.958311323 0
f 467 468 469 470
v 1.849317844 1.997172909 0
v 1.926650624 2.125876268 0
v 1.913564221 2.275454539 0
v 1.836231441 2.146751181 0
f 471 472 473 474
v -0.267028950 1.807886699 0
v -0.231730874 2.211345552 0
v -0.440321295 2.558498308 0
v -0.475619370 2.155039456 0
f 475 476 477 478
v -0.267028950 1.807886699 0
v -0.658228910 1.703064986 0
v -0.913103668 1.388320871 0
v -0.521903708 1.493142585 0
f 479 480 481 482
v -0.719643021 1.990754654 0
v -0.690698598 2.321590913 0
v -0.861742743 2.606256173 0
v -0.890687165 2.275419914 0
f 483 484 485 486
v -0.719643021 1.990754654 0
v -1.040426987 1.904800849 0
v -1.249424289 1.646710675 0
v -0.928640322 1.732664480 0
f 487 488 489 490
v -1.090786558 2.140706376 0
v -1.067052132 2.411992109 0
v -1.207308331 2.645417623 0
v -1.231042757 2.374131890 0
f 491 492 493 494
v -1.090786558 2.140706376 0
v -1.353829411 2.070224256 0
v -1.525207199 1.858590314 0
v -1.262164346 1.929072434 0
f 495 496 497 498
v -1.395124259 2.263666789 0
v -1.375662030 2.486121090 0
v -1.490672113 2.677530011 0
v -1.510134342 2.455075710 0
f 499 500 501 502
v -1.395124259 2.263666789 0
v -1.610819399 2.205871451 0
v -1.751349184 2.032331618 0
v -1.535654045 2.090126956 0
f 503 504 505 506
v -1.644681174 2.364494327 0
v -1.628722146 2.546906854 0
v -1.723030414 2.703862169 0
v -1.738989442 2.521449643 0
f 507 508 509 510
v -1.644681174 2.364494327 0
v -1.821551188 2.317102150 0
v -1.936785613 2.174799487 0
v -1.759915598 2.222191665 0
f 511 512 513 514
v -1.849317844 2.447172909 0
v -1.836231441 2.596751181 0
v -1.913564221 2.725454539 0
v -1.926650624 2.575876268 0
f 515 516 517 518
v -1.849317844 2.447172909 0
v -1.994351256 2.408311323 0
v -2.088843484 2.291623140 0
v -1.943810072 2.330484725 0
f 519 520 521 522
v 0.227100307 2.208216975 0
v 0.463824121 1.931049001 0
v 0.818252957 1.845958166 0
v 0.581529143 2.123126140 0
f 523 524 525 526
v 0.227100307 2.208216975 0
v 0.406588695 2.525461626 0
v 0.365326123 2.887618568 0
v 0.185837736 2.570373917 0
f 527 528 529 530
v 0.630005149 2.383404986 0
v 0.824118676 2.156127247 0
v 1.114750321 2.086352762 0
v 0.920636794 2.313630501 0
f 531 532 533 534
v 0.630005149 2.383404986 0
v 0.777185626 2.643545600 0
v 0.743350318 2.940514292 0
v 0.596169840 2.680373678 0
f 535 536 537 538
v 0.960387118 2.527059155 0
v 1.119560211 2.340691409 0
v 1.357878160 2.283476332 0
v 1.198705068 2.469844078 0
f 539 540 541 542
v 0.960387118 2.527059155 0
v 1.081075110 2.740374459 0
v 1.053330157 2.983888786 0
v 0.932642165 2.770573483 0
f 543 544 545 546
v 1.231300334 2.644855574 0
v 1.361822269 2.492034022 0
v 1.557242988 2.445117658 0
v 1.426721052 2.597939210 0
f 547 548 549 550
v 1.231300334 2.644855574 0
v 1.330264487 2.819774123 0
v 1.307513626 3.019455871 0
v 1.208549472 2.844537322 0
f 551 552 553 554
v 1.453449170 2.741448637 0
v 1.560477158 2.616134965 0
v 1.720722147 2.577663546 0
v 1.613694159 2.702977219 0
f 555 556 557 558
v 1.453449170 2.741448637 0
v 1.534599776 2.884881847 0
v 1.515944070 3.048620881 0
v 1.434793464 2.905187671 0
f 559 560 561 562
v -0.263988760 2.600496186 0
v -0.241736567 2.964316320 0
v -0.437582274 3.271732502 0
v -0.459834467 2.907912368 0
f 563 564 565 566
v -0.263988760 2.600496186 0
v -0.613478553 2.496972593 0
v -0.835372094 2.207795301 0
v -0.485882300 2.311318894 0
f 567 568 569 570
v -0.675510066 2.754357698 0
v -0.657263268 3.052690208 0
v -0.817856748 3.304771477 0
v -0.836103546 3.006438967 0
f 571 572 573 574
v -0.675510066 2.754357698 0
v -0.962091696 2.669468352 0
v -1.144044400 2.432342972 0
v -0.857462769 2.517232318 0
f 575 576 577 578
v -1.012957537 2.880524138 0
v -0.997995163 3.125156796 0
v -1.129681816 3.331863437 0
v -1.144644191 3.087230779 0
f 579 580 581 582
v -1.012957537 2.880524138 0
v -1.247954474 2.810914874 0
v -1.397155691 2.616472062 0
v -1.162158754 2.686081326 0
f 583 584 585 586
v -1.289664463 2.983980618 0
v -1.277395316 3.184579398 0
v -1.385378372 3.354078843 0
v -1.397647519 3.153480064 0
f 587 588 589 590
v -1.289664463 2.983980618 0
v -1.482361952 2.926901022 0
v -1.604706950 2.767457916 0
v -1.412009461 2.824537513 0
f 591 592 593 594
v -1.516564143 3.068814932 0
v -1.506503443 3.233305932 0
v -1.595049548 3.372295477 0
v -1.605110249 3.207804477 0
f 595 596 597 598
v -1.516564143 3.068814932 0
v -1.674576084 3.022009663 0
v -1.774898982 2.891266317 0
v -1.616887041 2.938071586 0
f 599 600 601 602
v 0.171143696 2.972311287 0
v 0.390651992 2.728522627 0
v 0.711533312 2.660317197 0
v 0.492025017 2.904105857 0
f 603 604 605 606
v 0.171143696 2.972311287 0
v 0.325153843 3.261962245 0
v 0.279498107 3.586819685 0
v 0.125487961 3.297168727 0
f 607 608 609 610
v 0.529506496 3.139418605 0
v 0.709503298 2.939511903 0
v 0.972625981 2.883583451 0
v 0.792629179 3.083490152 0
f 611 612 613 614
v 0.529506496 3.139418605 0
v 0.655794816 3.376932390 0
v 0.618357112 3.643315491 0
v 0.492068793 3.405801705 0
f 615 616 617 618
v 0.823363992 3.276446605 0
v 0.970961369 3.112523110 0
v 1.186721969 3.066661779 0
v 1.039124591 3.230585274 0
f 619 620 621 622
v 0.823363992 3.276446605 0
v 0.926920414 3.471207909 0
v 0.896221497 3.689642052 0
v 0.792665075 3.494880748 0
f 623 624 625 626
v 1.064327138 3.388809566 0
v 1.185356988 3.254392300 0
v 1.362280680 3.216786008 0
v 1.241250830 3.351203274 0
f 627 628 629 630
v 1.064327138 3.388809566 0
v 1.149243404 3.548513835 0
v 1.124070293 3.727629832 0
v 1.039154026 3.567925563 0
f 631 632 633 634
v -0.279926814 3.313671903 0
v -0.268478034 3.641522064 0
v -0.451921266 3.913487840 0
v -0.463370046 3.585637679 0
f 635 636 637 638
v -0.279926814 3.313671903 0
v -0.591920904 3.212298878 0
v -0.784743856 2.946900853 0
v -0.472749766 3.048273878 0
f 639 640 641 642
v -0.653793935 3.442404677 0
v -0.644405936 3.711241809 0
v -0.794829386 3.934253745 0
v -0.804217386 3.665416613 0
f 643 644 645 646
v -0.653793935 3.442404677 0
v -0.909629089 3.359278796 0
v -1.067743910 3.141652416 0
v -0.811908756 3.224778296 0
f 647 648 649 650
v -0.960364975 3.547965551 0
v -0.952666816 3.768411999 0
v -1.076014045 3.951281787 0
v -1.083712204 3.730835339 0
f 651 652 653 654
v -0.960364975 3.547965551 0
v -1.170149801 3.479802329 0
v -1.299803954 3.301348697 0
v -1.090019128 3.369511919 0
f 655 656 657 658
v -1.211753228 3.634525468 0
v -1.205440737 3.815291556 0
v -1.306585465 3.965244782 0
v -1.312897956 3.784478694 0
f 659 660 661 662
v -1.211753228 3.634525468 0
v -1.383776785 3.578631626 0
v -1.490093191 3.432299648 0
v -1.318069633 3.488193490 0
f 663 664 665 666
v 0.102798513 3.658442219 0
v 0.306031759 3.444279062 0
v 0.596332854 3.390474935 0
v 0.393099608 3.604638091 0
f 667 668 669 670
v 0.102798513 3.658442219 0
v 0.234536186 3.922667114 0
v 0.185806705 4.213863007 0
v 0.054069032 3.949638111 0
f 671 672 673 674
v 0.421277587 3.817230028 0
v 0.587928849 3.641616240 0
v 0.825975747 3.597496855 0
v 0.659324485 3.773110643 0
f 675 676 677 678
v 0.421277587 3.817230028 0
v 0.529302479 4.033894442 0
v 0.489344305 4.272675074 0
v 0.381319413 4.056010659 0
f 679 680 681 682
v 0.682430427 3.947436031 0
v 0.819084463 3.803432725 0
v 1.014282919 3.767254829 0
v 0.877628884 3.911258135 0
f 683 684 685 686
v 0.682430427 3.947436031 0
v 0.771010839 4.125100851 0
v 0.738245136 4.320900969 0
v 0.649664725 4.143236149 0
f 687 688 689 690
v -0.311068034 3.954934611 0
v -0.308491568 4.250168369 0
v -0.479941212 4.490531905 0
v -0.482517678 4.195298147 0
f 691 692 693 694
v -0.311068034 3.954934611 0
v -0.589378221 3.856379805 0
v -0.756606831 3.613060668 0
v -0.478296644 3.711615474 0
f 695 696 697 698
v -0.650465988 4.061946375 0
v -0.648353286 4.304038056 0
v -0.788941995 4.501136156 0
v -0.791054697 4.259044474 0
f 699 700 701 702
v -0.650465988 4.061946375 0
v -0.878680342 3.981131434 0
v -1.015807801 3.781609742 0
v -0.787593448 3.862424683 0
f 703 704 705 706
v -0.928772311 4.149696021 0
v -0.927039895 4.348211200 0
v -1.042322636 4.509831642 0
v -1.044055052 4.311316463 0
f 707 708 709 710
v -0.928772311 4.149696021 0
v -1.115908081 4.083427769 0
v -1.228352598 3.919819982 0
v -1.041216828 3.986088234 0
f 711 712 713 714
v 0.025144193 4.274138288 0
v 0.213036960 4.086245520 0
v 0.475486000 4.044677676 0
v 0.287593232 4.232570444 0
f 715 716 717 718
v 0.025144193 4.274138288 0
v 0.137442528 4.514962846 0
v 0.086740667 4.775801312 0
v -0.025557669 4.534976754 0
f 719 720 721 722
v 0.307936216 4.424501474 0
v 0.462008285 4.270429405 0
v 0.677216498 4.236343772 0
v 0.523144428 4.390415842 0
f 723 724 725 726
v 0.307936216 4.424501474 0
v 0.400020851 4.621977612 0
v 0.358445325 4.835865154 0
v 0.266360689 4.638389016 0
f 727 728 729 730
v -0.354193199 4.531139613 0
v -0.358830661 4.796819643 0
v -0.518745250 5.009033470 0
v -0.514107788 4.743353440 0
f 731 732 733 734
v -0.354193199 4.531139613 0
v -0.602264657 4.435913903 0
v -0.746986414 4.213061940 0
v -0.498914956 4.308287651 0
f 735 736 737 738
v -0.662067802 4.619421235 0
v -0.665870521 4.837278859 0
v -0.797000484 5.011294198 0
v -0.793197765 4.793436573 0
f 739 740 741 742
v -0.662067802 4.619421235 0
v -0.865486398 4.541336152 0
v -0.984158238 4.358597543 0
v -0.780739643 4.436682626 0
f 743 744 745 746
v -0.059226086 4.826245387 0
v 0.114246071 4.661626457 0
v 0.351348573 4.630411321 0
v 0.177876416 4.795030251 0
f 747 748 749 750
v -0.059226086 4.826245387 0
v 0.036134136 5.045558883 0
v -0.015627062 5.279038559 0
v -0.110987284 5.059725064 0
f 751 752 753 754
v -0.406567507 5.048530413 0
v -0.416999016 5.287451247 0
v -0.565872427 5.474610775 0
v -0.555440918 5.235689941 0
f 755 756 757 758
v -0.406567507 5.048530413 0
v -0.627511866 4.957012264 0
v -0.752466587 4.753104690 0
v -0.531522229 4.844622840 0
f 759 760 761 762
