# Lab 05 portable L-system preview; XY plane, +Y up
v 0.000000000 0.000000000 0
v 1.000000000 0.000000000 0
l 1 2
v 1.000000000 0.000000000 0
v 1.000000000 -1.000000000 0
l 3 4
v 1.000000000 -1.000000000 0
v 2.000000000 -1.000000000 0
l 5 6
v 2.000000000 -1.000000000 0
v 2.000000000 0.000000000 0
l 7 8
v 2.000000000 0.000000000 0
v 3.000000000 0.000000000 0
l 9 10
v 3.000000000 0.000000000 0
v 3.000000000 -1.000000000 0
l 11 12
v 3.000000000 -1.000000000 0
v 2.000000000 -1.000000000 0
l 13 14
v 2.000000000 -1.000000000 0
v 2.000000000 -2.000000000 0
l 15 16
v 2.000000000 -2.000000000 0
v 3.000000000 -2.000000000 0
l 17 18
v 3.000000000 -2.000000000 0
v 3.000000000 -3.000000000 0
l 19 20
v 3.000000000 -3.000000000 0
v 4.000000000 -3.000000000 0
l 21 22
v 4.000000000 -3.000000000 0
v 4.000000000 -4.000000000 0
l 23 24
v 4.000000000 -4.000000000 0
v 5.000000000 -4.000000000 0
l 25 26
v 5.000000000 -4.000000000 0
v 5.000000000 -3.000000000 0
l 27 28
v 5.000000000 -3.000000000 0
v 6.000000000 -3.000000000 0
l 29 30
v 6.000000000 -3.000000000 0
v 6.000000000 -2.000000000 0
l 31 32
v 6.000000000 -2.000000000 0
v 7.000000000 -2.000000000 0
l 33 34
v 7.000000000 -2.000000000 0
v 7.000000000 -1.000000000 0
l 35 36
v 7.000000000 -1.000000000 0
v 6.000000000 -1.000000000 0
l 37 38
v 6.000000000 -1.000000000 0
v 6.000000000 0.000000000 0
l 39 40
v 6.000000000 0.000000000 0
v 7.000000000 0.000000000 0
l 41 42
v 7.000000000 0.000000000 0
v 7.000000000 -1.000000000 0
l 43 44
v 7.000000000 -1.000000000 0
v 8.000000000 -1.000000000 0
l 45 46
v 8.000000000 -1.000000000 0
v 8.000000000 0.000000000 0
l 47 48
v 8.000000000 0.000000000 0
v 9.000000000 0.000000000 0
l 49 50
