# Lab 05 portable L-system preview; XY plane, +Y up
v 0.000000000 0.000000000 0
v 1.000000000 0.000000000 0
l 1 2
v 1.000000000 0.000000000 0
v 1.000000000 -1.000000000 0
l 3 4
v 1.000000000 -1.000000000 0
v 2.000000000 -1.000000000 0
l 5 6
v 2.000000000 -1.000000000 0
v 2.000000000 0.000000000 0
l 7 8
v 2.000000000 0.000000000 0
v 3.000000000 0.000000000 0
l 9 10
v 3.000000000 0.000000000 0
v 3.000000000 -1.000000000 0
l 11 12
v 3.000000000 -1.000000000 0
v 2.000000000 -1.000000000 0
l 13 14
v 2.000000000 -1.000000000 0
v 2.000000000 -2.000000000 0
l 15 16
v 2.000000000 -2.000000000 0
v 3.000000000 -2.000000000 0
l 17 18
v 3.000000000 -2.000000000 0
v 3.000000000 -3.000000000 0
l 19 20
v 3.000000000 -3.000000000 0
v 4.000000000 -3.000000000 0
l 21 22
v 4.000000000 -3.000000000 0
v 4.000000000 -4.000000000 0
l 23 24
v 4.000000000 -4.000000000 0
v 5.000000000 -4.000000000 0
l 25 26
v 5.000000000 -4.000000000 0
v 5.000000000 -3.000000000 0
l 27 28
v 5.000000000 -3.000000000 0
v 6.000000000 -3.000000000 0
l 29 30
v 6.000000000 -3.000000000 0
v 6.000000000 -2.000000000 0
l 31 32
v 6.000000000 -2.000000000 0
v 7.000000000 -2.000000000 0
l 33 34
v 7.000000000 -2.000000000 0
v 7.000000000 -1.000000000 0
l 35 36
v 7.000000000 -1.000000000 0
v 6.000000000 -1.000000000 0
l 37 38
v 6.000000000 -1.000000000 0
v 6.000000000 0.000000000 0
l 39 40
v 6.000000000 0.000000000 0
v 7.000000000 0.000000000 0
l 41 42
v 7.000000000 0.000000000 0
v 7.000000000 -1.000000000 0
l 43 44
v 7.000000000 -1.000000000 0
v 8.000000000 -1.000000000 0
l 45 46
v 8.000000000 -1.000000000 0
v 8.000000000 0.000000000 0
l 47 48
v 8.000000000 0.000000000 0
v 9.000000000 0.000000000 0
l 49 50
v 9.000000000 0.000000000 0
v 9.000000000 -1.000000000 0
l 51 52
v 9.000000000 -1.000000000 0
v 8.000000000 -1.000000000 0
l 53 54
v 8.000000000 -1.000000000 0
v 8.000000000 -2.000000000 0
l 55 56
v 8.000000000 -2.000000000 0
v 9.000000000 -2.000000000 0
l 57 58
v 9.000000000 -2.000000000 0
v 9.000000000 -3.000000000 0
l 59 60
v 9.000000000 -3.000000000 0
v 8.000000000 -3.000000000 0
l 61 62
v 8.000000000 -3.000000000 0
v 8.000000000 -2.000000000 0
l 63 64
v 8.000000000 -2.000000000 0
v 7.000000000 -2.000000000 0
l 65 66
v 7.000000000 -2.000000000 0
v 7.000000000 -3.000000000 0
l 67 68
v 7.000000000 -3.000000000 0
v 6.000000000 -3.000000000 0
l 69 70
v 6.000000000 -3.000000000 0
v 6.000000000 -4.000000000 0
l 71 72
v 6.000000000 -4.000000000 0
v 5.000000000 -4.000000000 0
l 73 74
v 5.000000000 -4.000000000 0
v 5.000000000 -5.000000000 0
l 75 76
v 5.000000000 -5.000000000 0
v 6.000000000 -5.000000000 0
l 77 78
v 6.000000000 -5.000000000 0
v 6.000000000 -6.000000000 0
l 79 80
v 6.000000000 -6.000000000 0
v 7.000000000 -6.000000000 0
l 81 82
v 7.000000000 -6.000000000 0
v 7.000000000 -7.000000000 0
l 83 84
v 7.000000000 -7.000000000 0
v 8.000000000 -7.000000000 0
l 85 86
v 8.000000000 -7.000000000 0
v 8.000000000 -6.000000000 0
l 87 88
v 8.000000000 -6.000000000 0
v 9.000000000 -6.000000000 0
l 89 90
v 9.000000000 -6.000000000 0
v 9.000000000 -7.000000000 0
l 91 92
v 9.000000000 -7.000000000 0
v 8.000000000 -7.000000000 0
l 93 94
v 8.000000000 -7.000000000 0
v 8.000000000 -8.000000000 0
l 95 96
v 8.000000000 -8.000000000 0
v 9.000000000 -8.000000000 0
l 97 98
v 9.000000000 -8.000000000 0
v 9.000000000 -9.000000000 0
l 99 100
v 9.000000000 -9.000000000 0
v 10.000000000 -9.000000000 0
l 101 102
v 10.000000000 -9.000000000 0
v 10.000000000 -10.000000000 0
l 103 104
v 10.000000000 -10.000000000 0
v 11.000000000 -10.000000000 0
l 105 106
v 11.000000000 -10.000000000 0
v 11.000000000 -9.000000000 0
l 107 108
v 11.000000000 -9.000000000 0
v 12.000000000 -9.000000000 0
l 109 110
v 12.000000000 -9.000000000 0
v 12.000000000 -10.000000000 0
l 111 112
v 12.000000000 -10.000000000 0
v 11.000000000 -10.000000000 0
l 113 114
v 11.000000000 -10.000000000 0
v 11.000000000 -11.000000000 0
l 115 116
v 11.000000000 -11.000000000 0
v 12.000000000 -11.000000000 0
l 117 118
v 12.000000000 -11.000000000 0
v 12.000000000 -12.000000000 0
l 119 120
v 12.000000000 -12.000000000 0
v 13.000000000 -12.000000000 0
l 121 122
v 13.000000000 -12.000000000 0
v 13.000000000 -13.000000000 0
l 123 124
v 13.000000000 -13.000000000 0
v 14.000000000 -13.000000000 0
l 125 126
v 14.000000000 -13.000000000 0
v 14.000000000 -12.000000000 0
l 127 128
v 14.000000000 -12.000000000 0
v 15.000000000 -12.000000000 0
l 129 130
v 15.000000000 -12.000000000 0
v 15.000000000 -11.000000000 0
l 131 132
v 15.000000000 -11.000000000 0
v 16.000000000 -11.000000000 0
l 133 134
v 16.000000000 -11.000000000 0
v 16.000000000 -10.000000000 0
l 135 136
v 16.000000000 -10.000000000 0
v 15.000000000 -10.000000000 0
l 137 138
v 15.000000000 -10.000000000 0
v 15.000000000 -9.000000000 0
l 139 140
v 15.000000000 -9.000000000 0
v 16.000000000 -9.000000000 0
l 141 142
v 16.000000000 -9.000000000 0
v 16.000000000 -10.000000000 0
l 143 144
v 16.000000000 -10.000000000 0
v 17.000000000 -10.000000000 0
l 145 146
v 17.000000000 -10.000000000 0
v 17.000000000 -9.000000000 0
l 147 148
v 17.000000000 -9.000000000 0
v 18.000000000 -9.000000000 0
l 149 150
v 18.000000000 -9.000000000 0
v 18.000000000 -8.000000000 0
l 151 152
v 18.000000000 -8.000000000 0
v 19.000000000 -8.000000000 0
l 153 154
v 19.000000000 -8.000000000 0
v 19.000000000 -7.000000000 0
l 155 156
v 19.000000000 -7.000000000 0
v 18.000000000 -7.000000000 0
l 157 158
v 18.000000000 -7.000000000 0
v 18.000000000 -6.000000000 0
l 159 160
v 18.000000000 -6.000000000 0
v 19.000000000 -6.000000000 0
l 161 162
v 19.000000000 -6.000000000 0
v 19.000000000 -7.000000000 0
l 163 164
v 19.000000000 -7.000000000 0
v 20.000000000 -7.000000000 0
l 165 166
v 20.000000000 -7.000000000 0
v 20.000000000 -6.000000000 0
l 167 168
v 20.000000000 -6.000000000 0
v 21.000000000 -6.000000000 0
l 169 170
v 21.000000000 -6.000000000 0
v 21.000000000 -5.000000000 0
l 171 172
v 21.000000000 -5.000000000 0
v 22.000000000 -5.000000000 0
l 173 174
v 22.000000000 -5.000000000 0
v 22.000000000 -4.000000000 0
l 175 176
v 22.000000000 -4.000000000 0
v 21.000000000 -4.000000000 0
l 177 178
v 21.000000000 -4.000000000 0
v 21.000000000 -3.000000000 0
l 179 180
v 21.000000000 -3.000000000 0
v 20.000000000 -3.000000000 0
l 181 182
v 20.000000000 -3.000000000 0
v 20.000000000 -2.000000000 0
l 183 184
v 20.000000000 -2.000000000 0
v 19.000000000 -2.000000000 0
l 185 186
v 19.000000000 -2.000000000 0
v 19.000000000 -3.000000000 0
l 187 188
v 19.000000000 -3.000000000 0
v 18.000000000 -3.000000000 0
l 189 190
v 18.000000000 -3.000000000 0
v 18.000000000 -2.000000000 0
l 191 192
v 18.000000000 -2.000000000 0
v 19.000000000 -2.000000000 0
l 193 194
v 19.000000000 -2.000000000 0
v 19.000000000 -1.000000000 0
l 195 196
v 19.000000000 -1.000000000 0
v 18.000000000 -1.000000000 0
l 197 198
v 18.000000000 -1.000000000 0
v 18.000000000 0.000000000 0
l 199 200
v 18.000000000 0.000000000 0
v 19.000000000 0.000000000 0
l 201 202
v 19.000000000 0.000000000 0
v 19.000000000 -1.000000000 0
l 203 204
v 19.000000000 -1.000000000 0
v 20.000000000 -1.000000000 0
l 205 206
v 20.000000000 -1.000000000 0
v 20.000000000 0.000000000 0
l 207 208
v 20.000000000 0.000000000 0
v 21.000000000 0.000000000 0
l 209 210
v 21.000000000 0.000000000 0
v 21.000000000 -1.000000000 0
l 211 212
v 21.000000000 -1.000000000 0
v 20.000000000 -1.000000000 0
l 213 214
v 20.000000000 -1.000000000 0
v 20.000000000 -2.000000000 0
l 215 216
v 20.000000000 -2.000000000 0
v 21.000000000 -2.000000000 0
l 217 218
v 21.000000000 -2.000000000 0
v 21.000000000 -3.000000000 0
l 219 220
v 21.000000000 -3.000000000 0
v 22.000000000 -3.000000000 0
l 221 222
v 22.000000000 -3.000000000 0
v 22.000000000 -4.000000000 0
l 223 224
v 22.000000000 -4.000000000 0
v 23.000000000 -4.000000000 0
l 225 226
v 23.000000000 -4.000000000 0
v 23.000000000 -3.000000000 0
l 227 228
v 23.000000000 -3.000000000 0
v 24.000000000 -3.000000000 0
l 229 230
v 24.000000000 -3.000000000 0
v 24.000000000 -2.000000000 0
l 231 232
v 24.000000000 -2.000000000 0
v 25.000000000 -2.000000000 0
l 233 234
v 25.000000000 -2.000000000 0
v 25.000000000 -1.000000000 0
l 235 236
v 25.000000000 -1.000000000 0
v 24.000000000 -1.000000000 0
l 237 238
v 24.000000000 -1.000000000 0
v 24.000000000 0.000000000 0
l 239 240
v 24.000000000 0.000000000 0
v 25.000000000 0.000000000 0
l 241 242
v 25.000000000 0.000000000 0
v 25.000000000 -1.000000000 0
l 243 244
v 25.000000000 -1.000000000 0
v 26.000000000 -1.000000000 0
l 245 246
v 26.000000000 -1.000000000 0
v 26.000000000 0.000000000 0
l 247 248
v 26.000000000 0.000000000 0
v 27.000000000 0.000000000 0
l 249 250
