# Lab 05 portable L-system preview; XY plane, +Y up
v 0.000000000 0.000000000 0
v 0.000000000 1.000000000 0
l 1 2
v 0.000000000 1.000000000 0
v 0.000000000 2.000000000 0
l 3 4
v 0.000000000 2.000000000 0
v -0.342020143 2.939692621 0
l 5 6
v -0.342020143 2.939692621 0
v -0.684040287 3.879385242 0
l 7 8
v 0.000000000 2.000000000 0
v 0.000000000 3.000000000 0
l 9 10
v 0.000000000 3.000000000 0
v -0.342020143 3.939692621 0
l 11 12
v -0.342020143 3.939692621 0
v -0.684040287 4.879385242 0
l 13 14
v 0.000000000 3.000000000 0
v 0.000000000 4.000000000 0
l 15 16
v 0.000000000 4.000000000 0
v 0.000000000 5.000000000 0
l 17 18
