# Lab 05 portable L-system preview; XY plane, +Y up
v 0.000000000 0.000000000 0
v 0.000000000 1.000000000 0
l 1 2
v 0.000000000 1.000000000 0
v 0.000000000 2.000000000 0
l 3 4
v 0.000000000 2.000000000 0
v -0.342020143 2.939692621 0
l 5 6
v -0.342020143 2.939692621 0
v -0.684040287 3.879385242 0
l 7 8
v 0.000000000 2.000000000 0
v 0.000000000 3.000000000 0
l 9 10
v 0.000000000 3.000000000 0
v -0.342020143 3.939692621 0
l 11 12
v -0.342020143 3.939692621 0
v -0.684040287 4.879385242 0
l 13 14
v 0.000000000 3.000000000 0
v 0.000000000 4.000000000 0
l 15 16
v 0.000000000 4.000000000 0
v 0.000000000 5.000000000 0
l 17 18
v 0.000000000 5.000000000 0
v -0.342020143 5.939692621 0
l 19 20
v -0.342020143 5.939692621 0
v -0.684040287 6.879385242 0
l 21 22
v -0.684040287 6.879385242 0
v -1.326827896 7.645429685 0
l 23 24
v -1.326827896 7.645429685 0
v -1.969615506 8.411474128 0
l 25 26
v -0.684040287 6.879385242 0
v -1.026060430 7.819077862 0
l 27 28
v -1.026060430 7.819077862 0
v -1.668848040 8.585122305 0
l 29 30
v -1.668848040 8.585122305 0
v -2.311635649 9.351166749 0
l 31 32
v -1.026060430 7.819077862 0
v -1.368080573 8.758770483 0
l 33 34
v -1.368080573 8.758770483 0
v -1.710100717 9.698463104 0
l 35 36
v -1.710100717 9.698463104 0
v -2.576126120 10.198463104 0
l 37 38
v -2.576126120 10.198463104 0
v -3.442151524 10.698463104 0
l 39 40
v -3.442151524 10.698463104 0
v -4.426959277 10.872111282 0
l 41 42
v -4.426959277 10.872111282 0
v -5.411767030 11.045759459 0
l 43 44
v -3.442151524 10.698463104 0
v -4.308176928 11.198463104 0
l 45 46
v -4.308176928 11.198463104 0
v -5.292984681 11.372111282 0
l 47 48
v -5.292984681 11.372111282 0
v -6.277792434 11.545759459 0
l 49 50
v -4.308176928 11.198463104 0
v -5.174202332 11.698463104 0
l 51 52
v -5.174202332 11.698463104 0
v -6.040227736 12.198463104 0
l 53 54
v -6.040227736 12.198463104 0
v -7.025035489 12.372111282 0
l 55 56
v -7.025035489 12.372111282 0
v -8.009843242 12.545759459 0
l 57 58
v -8.009843242 12.545759459 0
v -8.994650995 12.372111282 0
l 59 60
v -8.994650995 12.372111282 0
v -9.979458748 12.198463104 0
l 61 62
v -8.009843242 12.545759459 0
v -8.994650995 12.719407637 0
l 63 64
v -8.994650995 12.719407637 0
v -9.979458748 12.545759459 0
l 65 66
v -9.979458748 12.545759459 0
v -10.964266501 12.372111282 0
l 67 68
v -8.994650995 12.719407637 0
v -9.979458748 12.893055815 0
l 69 70
v -9.979458748 12.893055815 0
v -10.964266501 13.066703992 0
l 71 72
v -1.710100717 9.698463104 0
v -2.352888326 10.464507547 0
l 73 74
v -2.352888326 10.464507547 0
v -2.995675936 11.230551990 0
l 75 76
v -2.995675936 11.230551990 0
v -3.861701340 11.730551990 0
l 77 78
v -3.861701340 11.730551990 0
v -4.727726744 12.230551990 0
l 79 80
v -2.995675936 11.230551990 0
v -3.638463546 11.996596433 0
l 81 82
v -3.638463546 11.996596433 0
v -4.504488949 12.496596433 0
l 83 84
v -4.504488949 12.496596433 0
v -5.370514353 12.996596433 0
l 85 86
v -3.638463546 11.996596433 0
v -4.281251155 12.762640876 0
l 87 88
v -4.281251155 12.762640876 0
v -4.924038765 13.528685320 0
l 89 90
v -4.924038765 13.528685320 0
v -5.908846518 13.702333497 0
l 91 92
v -5.908846518 13.702333497 0
v -6.893654271 13.875981675 0
l 93 94
v -6.893654271 13.875981675 0
v -7.878462024 13.702333497 0
l 95 96
v -7.878462024 13.702333497 0
v -8.863269777 13.528685320 0
l 97 98
v -6.893654271 13.875981675 0
v -7.878462024 14.049629853 0
l 99 100
v -7.878462024 14.049629853 0
v -8.863269777 13.875981675 0
l 101 102
v -8.863269777 13.875981675 0
v -9.848077530 13.702333497 0
l 103 104
v -7.878462024 14.049629853 0
v -8.863269777 14.223278030 0
l 105 106
v -8.863269777 14.223278030 0
v -9.848077530 14.396926208 0
l 107 108
v -9.848077530 14.396926208 0
v -10.832885283 14.223278030 0
l 109 110
v -10.832885283 14.223278030 0
v -11.817693036 14.049629853 0
l 111 112
v -11.817693036 14.049629853 0
v -12.683718440 13.549629853 0
l 113 114
v -12.683718440 13.549629853 0
v -13.549743844 13.049629853 0
l 115 116
v -11.817693036 14.049629853 0
v -12.802500789 13.875981675 0
l 117 118
v -12.802500789 13.875981675 0
v -13.668526193 13.375981675 0
l 119 120
v -13.668526193 13.375981675 0
v -14.534551597 12.875981675 0
l 121 122
v -12.802500789 13.875981675 0
v -13.787308542 13.702333497 0
l 123 124
v -13.787308542 13.702333497 0
v -14.772116295 13.528685320 0
l 125 126
v -4.924038765 13.528685320 0
v -5.790064169 14.028685320 0
l 127 128
v -5.790064169 14.028685320 0
v -6.656089573 14.528685320 0
l 129 130
v -6.656089573 14.528685320 0
v -7.640897326 14.702333497 0
l 131 132
v -7.640897326 14.702333497 0
v -8.625705079 14.875981675 0
l 133 134
v -6.656089573 14.528685320 0
v -7.522114976 15.028685320 0
l 135 136
v -7.522114976 15.028685320 0
v -8.506922729 15.202333497 0
l 137 138
v -8.506922729 15.202333497 0
v -9.491730482 15.375981675 0
l 139 140
v -7.522114976 15.028685320 0
v -8.388140380 15.528685320 0
l 141 142
v -8.388140380 15.528685320 0
v -9.254165784 16.028685320 0
l 143 144
v -9.254165784 16.028685320 0
v -10.238973537 16.202333497 0
l 145 146
v -10.238973537 16.202333497 0
v -11.223781290 16.375981675 0
l 147 148
v -11.223781290 16.375981675 0
v -12.208589043 16.202333497 0
l 149 150
v -12.208589043 16.202333497 0
v -13.193396796 16.028685320 0
l 151 152
v -11.223781290 16.375981675 0
v -12.208589043 16.549629853 0
l 153 154
v -12.208589043 16.549629853 0
v -13.193396796 16.375981675 0
l 155 156
v -13.193396796 16.375981675 0
v -14.178204549 16.202333497 0
l 157 158
v -12.208589043 16.549629853 0
v -13.193396796 16.723278030 0
l 159 160
v -13.193396796 16.723278030 0
v -14.178204549 16.896926208 0
l 161 162
