# Lab 05 portable L-system preview; XY plane, +Y up
v 0.000000000 0.000000000 0
v 0.000000000 1.000000000 0
l 1 2
v 0.000000000 1.000000000 0
v 0.000000000 2.000000000 0
l 3 4
v 0.000000000 2.000000000 0
v -0.342020143 2.939692621 0
l 5 6
v -0.342020143 2.939692621 0
v -0.684040287 3.879385242 0
l 7 8
v 0.000000000 2.000000000 0
v 0.000000000 3.000000000 0
l 9 10
v 0.000000000 3.000000000 0
v -0.342020143 3.939692621 0
l 11 12
v -0.342020143 3.939692621 0
v -0.684040287 4.879385242 0
l 13 14
v 0.000000000 3.000000000 0
v 0.000000000 4.000000000 0
l 15 16
v 0.000000000 4.000000000 0
v 0.000000000 5.000000000 0
l 17 18
v 0.000000000 5.000000000 0
v -0.342020143 5.939692621 0
l 19 20
v -0.342020143 5.939692621 0
v -0.684040287 6.879385242 0
l 21 22
v -0.684040287 6.879385242 0
v -1.326827896 7.645429685 0
l 23 24
v -1.326827896 7.645429685 0
v -1.969615506 8.411474128 0
l 25 26
v -0.684040287 6.879385242 0
v -1.026060430 7.819077862 0
l 27 28
v -1.026060430 7.819077862 0
v -1.668848040 8.585122305 0
l 29 30
v -1.668848040 8.585122305 0
v -2.311635649 9.351166749 0
l 31 32
v -1.026060430 7.819077862 0
v -1.368080573 8.758770483 0
l 33 34
v -1.368080573 8.758770483 0
v -1.710100717 9.698463104 0
l 35 36
v -1.710100717 9.698463104 0
v -2.576126120 10.198463104 0
l 37 38
v -2.576126120 10.198463104 0
v -3.442151524 10.698463104 0
l 39 40
v -3.442151524 10.698463104 0
v -4.426959277 10.872111282 0
l 41 42
v -4.426959277 10.872111282 0
v -5.411767030 11.045759459 0
l 43 44
v -3.442151524 10.698463104 0
v -4.308176928 11.198463104 0
l 45 46
v -4.308176928 11.198463104 0
v -5.292984681 11.372111282 0
l 47 48
v -5.292984681 11.372111282 0
v -6.277792434 11.545759459 0
l 49 50
v -4.308176928 11.198463104 0
v -5.174202332 11.698463104 0
l 51 52
v -5.174202332 11.698463104 0
v -6.040227736 12.198463104 0
l 53 54
v -6.040227736 12.198463104 0
v -7.025035489 12.372111282 0
l 55 56
v -7.025035489 12.372111282 0
v -8.009843242 12.545759459 0
l 57 58
v -8.009843242 12.545759459 0
v -8.994650995 12.372111282 0
l 59 60
v -8.994650995 12.372111282 0
v -9.979458748 12.198463104 0
l 61 62
v -8.009843242 12.545759459 0
v -8.994650995 12.719407637 0
l 63 64
v -8.994650995 12.719407637 0
v -9.979458748 12.545759459 0
l 65 66
v -9.979458748 12.545759459 0
v -10.964266501 12.372111282 0
l 67 68
v -8.994650995 12.719407637 0
v -9.979458748 12.893055815 0
l 69 70
v -9.979458748 12.893055815 0
v -10.964266501 13.066703992 0
l 71 72
v -1.710100717 9.698463104 0
v -2.352888326 10.464507547 0
l 73 74
v -2.352888326 10.464507547 0
v -2.995675936 11.230551990 0
l 75 76
v -2.995675936 11.230551990 0
v -3.861701340 11.730551990 0
l 77 78
v -3.861701340 11.730551990 0
v -4.727726744 12.230551990 0
l 79 80
v -2.995675936 11.230551990 0
v -3.638463546 11.996596433 0
l 81 82
v -3.638463546 11.996596433 0
v -4.504488949 12.496596433 0
l 83 84
v -4.504488949 12.496596433 0
v -5.370514353 12.996596433 0
l 85 86
v -3.638463546 11.996596433 0
v -4.281251155 12.762640876 0
l 87 88
v -4.281251155 12.762640876 0
v -4.924038765 13.528685320 0
l 89 90
v -4.924038765 13.528685320 0
v -5.908846518 13.702333497 0
l 91 92
v -5.908846518 13.702333497 0
v -6.893654271 13.875981675 0
l 93 94
v -6.893654271 13.875981675 0
v -7.878462024 13.702333497 0
l 95 96
v -7.878462024 13.702333497 0
v -8.863269777 13.528685320 0
l 97 98
v -6.893654271 13.875981675 0
v -7.878462024 14.049629853 0
l 99 100
v -7.878462024 14.049629853 0
v -8.863269777 13.875981675 0
l 101 102
v -8.863269777 13.875981675 0
v -9.848077530 13.702333497 0
l 103 104
v -7.878462024 14.049629853 0
v -8.863269777 14.223278030 0
l 105 106
v -8.863269777 14.223278030 0
v -9.848077530 14.396926208 0
l 107 108
v -9.848077530 14.396926208 0
v -10.832885283 14.223278030 0
l 109 110
v -10.832885283 14.223278030 0
v -11.817693036 14.049629853 0
l 111 112
v -11.817693036 14.049629853 0
v -12.683718440 13.549629853 0
l 113 114
v -12.683718440 13.549629853 0
v -13.549743844 13.049629853 0
l 115 116
v -11.817693036 14.049629853 0
v -12.802500789 13.875981675 0
l 117 118
v -12.802500789 13.875981675 0
v -13.668526193 13.375981675 0
l 119 120
v -13.668526193 13.375981675 0
v -14.534551597 12.875981675 0
l 121 122
v -12.802500789 13.875981675 0
v -13.787308542 13.702333497 0
l 123 124
v -13.787308542 13.702333497 0
v -14.772116295 13.528685320 0
l 125 126
v -4.924038765 13.528685320 0
v -5.790064169 14.028685320 0
l 127 128
v -5.790064169 14.028685320 0
v -6.656089573 14.528685320 0
l 129 130
v -6.656089573 14.528685320 0
v -7.640897326 14.702333497 0
l 131 132
v -7.640897326 14.702333497 0
v -8.625705079 14.875981675 0
l 133 134
v -6.656089573 14.528685320 0
v -7.522114976 15.028685320 0
l 135 136
v -7.522114976 15.028685320 0
v -8.506922729 15.202333497 0
l 137 138
v -8.506922729 15.202333497 0
v -9.491730482 15.375981675 0
l 139 140
v -7.522114976 15.028685320 0
v -8.388140380 15.528685320 0
l 141 142
v -8.388140380 15.528685320 0
v -9.254165784 16.028685320 0
l 143 144
v -9.254165784 16.028685320 0
v -10.238973537 16.202333497 0
l 145 146
v -10.238973537 16.202333497 0
v -11.223781290 16.375981675 0
l 147 148
v -11.223781290 16.375981675 0
v -12.208589043 16.202333497 0
l 149 150
v -12.208589043 16.202333497 0
v -13.193396796 16.028685320 0
l 151 152
v -11.223781290 16.375981675 0
v -12.208589043 16.549629853 0
l 153 154
v -12.208589043 16.549629853 0
v -13.193396796 16.375981675 0
l 155 156
v -13.193396796 16.375981675 0
v -14.178204549 16.202333497 0
l 157 158
v -12.208589043 16.549629853 0
v -13.193396796 16.723278030 0
l 159 160
v -13.193396796 16.723278030 0
v -14.178204549 16.896926208 0
l 161 162
v -14.178204549 16.896926208 0
v -15.044229953 16.396926208 0
l 163 164
v -15.044229953 16.396926208 0
v -15.910255357 15.896926208 0
l 165 166
v -15.910255357 15.896926208 0
v -16.553042966 15.130881765 0
l 167 168
v -16.553042966 15.130881765 0
v -17.195830576 14.364837322 0
l 169 170
v -15.910255357 15.896926208 0
v -16.776280760 15.396926208 0
l 171 172
v -16.776280760 15.396926208 0
v -17.419068370 14.630881765 0
l 173 174
v -17.419068370 14.630881765 0
v -18.061855980 13.864837322 0
l 175 176
v -16.776280760 15.396926208 0
v -17.642306164 14.896926208 0
l 177 178
v -17.642306164 14.896926208 0
v -18.508331568 14.396926208 0
l 179 180
v -18.508331568 14.396926208 0
v -19.151119178 13.630881765 0
l 181 182
v -19.151119178 13.630881765 0
v -19.793906787 12.864837322 0
l 183 184
v -19.793906787 12.864837322 0
v -20.135926931 11.925144701 0
l 185 186
v -20.135926931 11.925144701 0
v -20.477947074 10.985452080 0
l 187 188
v -19.793906787 12.864837322 0
v -20.436694397 12.098792879 0
l 189 190
v -20.436694397 12.098792879 0
v -20.778714540 11.159100258 0
l 191 192
v -20.778714540 11.159100258 0
v -21.120734684 10.219407637 0
l 193 194
v -20.436694397 12.098792879 0
v -21.079482007 11.332748435 0
l 195 196
v -21.079482007 11.332748435 0
v -21.722269616 10.566703992 0
l 197 198
v -21.722269616 10.566703992 0
v -21.722269616 9.566703992 0
l 199 200
v -21.722269616 9.566703992 0
v -21.722269616 8.566703992 0
l 201 202
v -21.722269616 8.566703992 0
v -21.380249473 7.627011371 0
l 203 204
v -21.380249473 7.627011371 0
v -21.038229330 6.687318751 0
l 205 206
v -21.722269616 8.566703992 0
v -21.722269616 7.566703992 0
l 207 208
v -21.722269616 7.566703992 0
v -21.380249473 6.627011371 0
l 209 210
v -21.380249473 6.627011371 0
v -21.038229330 5.687318751 0
l 211 212
v -21.722269616 7.566703992 0
v -21.722269616 6.566703992 0
l 213 214
v -21.722269616 6.566703992 0
v -21.722269616 5.566703992 0
l 215 216
v -21.722269616 5.566703992 0
v -21.380249473 4.627011371 0
l 217 218
v -21.380249473 4.627011371 0
v -21.038229330 3.687318751 0
l 219 220
v -21.038229330 3.687318751 0
v -20.395441720 2.921274308 0
l 221 222
v -20.395441720 2.921274308 0
v -19.752654110 2.155229864 0
l 223 224
v -21.038229330 3.687318751 0
v -20.696209186 2.747626130 0
l 225 226
v -20.696209186 2.747626130 0
v -20.053421577 1.981581687 0
l 227 228
v -20.053421577 1.981581687 0
v -19.410633967 1.215537244 0
l 229 230
v -20.696209186 2.747626130 0
v -20.354189043 1.807933509 0
l 231 232
v -20.354189043 1.807933509 0
v -20.012168900 0.868240888 0
l 233 234
v -21.722269616 10.566703992 0
v -22.064289760 9.627011371 0
l 235 236
v -22.064289760 9.627011371 0
v -22.406309903 8.687318751 0
l 237 238
v -22.406309903 8.687318751 0
v -22.406309903 7.687318751 0
l 239 240
v -22.406309903 7.687318751 0
v -22.406309903 6.687318751 0
l 241 242
v -22.406309903 8.687318751 0
v -22.748330046 7.747626130 0
l 243 244
v -22.748330046 7.747626130 0
v -22.748330046 6.747626130 0
l 245 246
v -22.748330046 6.747626130 0
v -22.748330046 5.747626130 0
l 247 248
v -22.748330046 7.747626130 0
v -23.090350190 6.807933509 0
l 249 250
v -23.090350190 6.807933509 0
v -23.432370333 5.868240888 0
l 251 252
v -23.432370333 5.868240888 0
v -23.090350190 4.928548268 0
l 253 254
v -23.090350190 4.928548268 0
v -22.748330046 3.988855647 0
l 255 256
v -22.748330046 3.988855647 0
v -22.105542437 3.222811204 0
l 257 258
v -22.105542437 3.222811204 0
v -21.462754827 2.456766761 0
l 259 260
v -22.748330046 3.988855647 0
v -22.406309903 3.049163026 0
l 261 262
v -22.406309903 3.049163026 0
v -21.763522293 2.283118583 0
l 263 264
v -21.763522293 2.283118583 0
v -21.120734684 1.517074140 0
l 265 266
v -22.406309903 3.049163026 0
v -22.064289760 2.109470405 0
l 267 268
v -22.064289760 2.109470405 0
v -21.722269616 1.169777784 0
l 269 270
v -21.722269616 1.169777784 0
v -21.079482007 0.403733341 0
l 271 272
v -21.079482007 0.403733341 0
v -20.436694397 -0.362311102 0
l 273 274
v -20.436694397 -0.362311102 0
v -19.570668993 -0.862311102 0
l 275 276
v -19.570668993 -0.862311102 0
v -18.704643589 -1.362311102 0
l 277 278
v -20.436694397 -0.362311102 0
v -19.793906787 -1.128355545 0
l 279 280
v -19.793906787 -1.128355545 0
v -18.927881384 -1.628355545 0
l 281 282
v -18.927881384 -1.628355545 0
v -18.061855980 -2.128355545 0
l 283 284
v -19.793906787 -1.128355545 0
v -19.151119178 -1.894399988 0
l 285 286
v -19.151119178 -1.894399988 0
v -18.508331568 -2.660444431 0
l 287 288
v -23.432370333 5.868240888 0
v -23.432370333 4.868240888 0
l 289 290
v -23.432370333 4.868240888 0
v -23.432370333 3.868240888 0
l 291 292
v -23.432370333 3.868240888 0
v -23.090350190 2.928548268 0
l 293 294
v -23.090350190 2.928548268 0
v -22.748330046 1.988855647 0
l 295 296
v -23.432370333 3.868240888 0
v -23.432370333 2.868240888 0
l 297 298
v -23.432370333 2.868240888 0
v -23.090350190 1.928548268 0
l 299 300
v -23.090350190 1.928548268 0
v -22.748330046 0.988855647 0
l 301 302
v -23.432370333 2.868240888 0
v -23.432370333 1.868240888 0
l 303 304
v -23.432370333 1.868240888 0
v -23.432370333 0.868240888 0
l 305 306
v -23.432370333 0.868240888 0
v -23.090350190 -0.071451732 0
l 307 308
v -23.090350190 -0.071451732 0
v -22.748330046 -1.011144353 0
l 309 310
v -22.748330046 -1.011144353 0
v -22.105542437 -1.777188796 0
l 311 312
v -22.105542437 -1.777188796 0
v -21.462754827 -2.543233239 0
l 313 314
v -22.748330046 -1.011144353 0
v -22.406309903 -1.950836974 0
l 315 316
v -22.406309903 -1.950836974 0
v -21.763522293 -2.716881417 0
l 317 318
v -21.763522293 -2.716881417 0
v -21.120734684 -3.482925860 0
l 319 320
v -22.406309903 -1.950836974 0
v -22.064289760 -2.890529595 0
l 321 322
v -22.064289760 -2.890529595 0
v -21.722269616 -3.830222216 0
l 323 324
v -21.722269616 -3.830222216 0
v -20.737461863 -4.003870393 0
l 325 326
v -20.737461863 -4.003870393 0
v -19.752654110 -4.177518571 0
l 327 328
v -19.752654110 -4.177518571 0
v -18.767846357 -4.003870393 0
l 329 330
v -18.767846357 -4.003870393 0
v -17.783038604 -3.830222216 0
l 331 332
v -19.752654110 -4.177518571 0
v -18.767846357 -4.351166749 0
l 333 334
v -18.767846357 -4.351166749 0
v -17.783038604 -4.177518571 0
l 335 336
v -17.783038604 -4.177518571 0
v -16.798230851 -4.003870393 0
l 337 338
v -18.767846357 -4.351166749 0
v -17.783038604 -4.524814926 0
l 339 340
v -17.783038604 -4.524814926 0
v -16.798230851 -4.698463104 0
l 341 342
v -16.798230851 -4.698463104 0
v -15.813423098 -4.524814926 0
l 343 344
v -15.813423098 -4.524814926 0
v -14.828615345 -4.351166749 0
l 345 346
v -14.828615345 -4.351166749 0
v -13.962589942 -3.851166749 0
l 347 348
v -13.962589942 -3.851166749 0
v -13.096564538 -3.351166749 0
l 349 350
v -14.828615345 -4.351166749 0
v -13.843807592 -4.177518571 0
l 351 352
v -13.843807592 -4.177518571 0
v -12.977782189 -3.677518571 0
l 353 354
v -12.977782189 -3.677518571 0
v -12.111756785 -3.177518571 0
l 355 356
v -13.843807592 -4.177518571 0
v -12.858999839 -4.003870393 0
l 357 358
v -12.858999839 -4.003870393 0
v -11.874192086 -3.830222216 0
l 359 360
v -11.874192086 -3.830222216 0
v -11.231404477 -3.064177772 0
l 361 362
v -11.231404477 -3.064177772 0
v -10.588616867 -2.298133329 0
l 363 364
v -10.588616867 -2.298133329 0
v -10.246596724 -1.358440709 0
l 365 366
v -10.246596724 -1.358440709 0
v -9.904576580 -0.418748088 0
l 367 368
v -10.588616867 -2.298133329 0
v -9.945829257 -1.532088886 0
l 369 370
v -9.945829257 -1.532088886 0
v -9.603809114 -0.592396265 0
l 371 372
v -9.603809114 -0.592396265 0
v -9.261788971 0.347296355 0
l 373 374
v -9.945829257 -1.532088886 0
v -9.303041648 -0.766044443 0
l 375 376
v -9.303041648 -0.766044443 0
v -8.660254038 -0.000000000 0
l 377 378
v -8.660254038 -0.000000000 0
v -8.318233895 0.939692621 0
l 379 380
v -8.318233895 0.939692621 0
v -7.976213751 1.879385242 0
l 381 382
v -7.976213751 1.879385242 0
v -7.976213751 2.879385242 0
l 383 384
v -7.976213751 2.879385242 0
v -7.976213751 3.879385242 0
l 385 386
v -7.976213751 1.879385242 0
v -7.634193608 2.819077862 0
l 387 388
v -7.634193608 2.819077862 0
v -7.634193608 3.819077862 0
l 389 390
v -7.634193608 3.819077862 0
v -7.634193608 4.819077862 0
l 391 392
v -7.634193608 2.819077862 0
v -7.292173465 3.758770483 0
l 393 394
v -7.292173465 3.758770483 0
v -6.950153321 4.698463104 0
l 395 396
v -11.874192086 -3.830222216 0
v -11.008166682 -3.330222216 0
l 397 398
v -11.008166682 -3.330222216 0
v -10.142141279 -2.830222216 0
l 399 400
v -10.142141279 -2.830222216 0
v -9.499353669 -2.064177772 0
l 401 402
v -9.499353669 -2.064177772 0
v -8.856566059 -1.298133329 0
l 403 404
v -10.142141279 -2.830222216 0
v -9.276115875 -2.330222216 0
l 405 406
v -9.276115875 -2.330222216 0
v -8.633328265 -1.564177772 0
l 407 408
v -8.633328265 -1.564177772 0
v -7.990540656 -0.798133329 0
l 409 410
v -9.276115875 -2.330222216 0
v -8.410090471 -1.830222216 0
l 411 412
v -8.410090471 -1.830222216 0
v -7.544065067 -1.330222216 0
l 413 414
v -7.544065067 -1.330222216 0
v -7.202044924 -0.390529595 0
l 415 416
v -7.202044924 -0.390529595 0
v -6.860024781 0.549163026 0
l 417 418
v -6.860024781 0.549163026 0
v -6.860024781 1.549163026 0
l 419 420
v -6.860024781 1.549163026 0
v -6.860024781 2.549163026 0
l 421 422
v -6.860024781 0.549163026 0
v -6.518004637 1.488855647 0
l 423 424
v -6.518004637 1.488855647 0
v -6.518004637 2.488855647 0
l 425 426
v -6.518004637 2.488855647 0
v -6.518004637 3.488855647 0
l 427 428
v -6.518004637 1.488855647 0
v -6.175984494 2.428548268 0
l 429 430
v -6.175984494 2.428548268 0
v -5.833964351 3.368240888 0
l 431 432
v -5.833964351 3.368240888 0
v -5.833964351 4.368240888 0
l 433 434
v -5.833964351 4.368240888 0
v -5.833964351 5.368240888 0
l 435 436
v -5.833964351 5.368240888 0
v -6.175984494 6.307933509 0
l 437 438
v -6.175984494 6.307933509 0
v -6.518004637 7.247626130 0
l 439 440
v -5.833964351 5.368240888 0
v -5.833964351 6.368240888 0
l 441 442
v -5.833964351 6.368240888 0
v -6.175984494 7.307933509 0
l 443 444
v -6.175984494 7.307933509 0
v -6.518004637 8.247626130 0
l 445 446
v -5.833964351 6.368240888 0
v -5.833964351 7.368240888 0
l 447 448
v -5.833964351 7.368240888 0
v -5.833964351 8.368240888 0
l 449 450
v -7.544065067 -1.330222216 0
v -6.901277458 -0.564177772 0
l 451 452
v -6.901277458 -0.564177772 0
v -6.258489848 0.201866671 0
l 453 454
v -6.258489848 0.201866671 0
v -5.916469705 1.141559291 0
l 455 456
v -5.916469705 1.141559291 0
v -5.574449561 2.081251912 0
l 457 458
v -6.258489848 0.201866671 0
v -5.615702238 0.967911114 0
l 459 460
v -5.615702238 0.967911114 0
v -5.273682095 1.907603735 0
l 461 462
v -5.273682095 1.907603735 0
v -4.931661952 2.847296355 0
l 463 464
v -5.615702238 0.967911114 0
v -4.972914629 1.733955557 0
l 465 466
v -4.972914629 1.733955557 0
v -4.330127019 2.500000000 0
l 467 468
v -4.330127019 2.500000000 0
v -3.988106876 3.439692621 0
l 469 470
v -3.988106876 3.439692621 0
v -3.646086732 4.379385242 0
l 471 472
v -3.646086732 4.379385242 0
v -3.646086732 5.379385242 0
l 473 474
v -3.646086732 5.379385242 0
v -3.646086732 6.379385242 0
l 475 476
v -3.646086732 4.379385242 0
v -3.304066589 5.319077862 0
l 477 478
v -3.304066589 5.319077862 0
v -3.304066589 6.319077862 0
l 479 480
v -3.304066589 6.319077862 0
v -3.304066589 7.319077862 0
l 481 482
v -3.304066589 5.319077862 0
v -2.962046446 6.258770483 0
l 483 484
v -2.962046446 6.258770483 0
v -2.620026302 7.198463104 0
l 485 486
v -2.620026302 7.198463104 0
v -2.962046446 8.138155725 0
l 487 488
v -2.962046446 8.138155725 0
v -3.304066589 9.077848346 0
l 489 490
v -3.304066589 9.077848346 0
v -3.946854199 9.843892789 0
l 491 492
v -3.946854199 9.843892789 0
v -4.589641808 10.609937232 0
l 493 494
v -3.304066589 9.077848346 0
v -3.646086732 10.017540966 0
l 495 496
v -3.646086732 10.017540966 0
v -4.288874342 10.783585409 0
l 497 498
v -4.288874342 10.783585409 0
v -4.931661952 11.549629853 0
l 499 500
v -3.646086732 10.017540966 0
v -3.988106876 10.957233587 0
l 501 502
v -3.988106876 10.957233587 0
v -4.330127019 11.896926208 0
l 503 504
v -4.330127019 11.896926208 0
v -4.972914629 12.662970651 0
l 505 506
v -4.972914629 12.662970651 0
v -5.615702238 13.429015094 0
l 507 508
v -5.615702238 13.429015094 0
v -6.481727642 13.929015094 0
l 509 510
v -6.481727642 13.929015094 0
v -7.347753046 14.429015094 0
l 511 512
v -5.615702238 13.429015094 0
v -6.258489848 14.195059537 0
l 513 514
v -6.258489848 14.195059537 0
v -7.124515252 14.695059537 0
l 515 516
v -7.124515252 14.695059537 0
v -7.990540656 15.195059537 0
l 517 518
v -6.258489848 14.195059537 0
v -6.901277458 14.961103980 0
l 519 520
v -6.901277458 14.961103980 0
v -7.544065067 15.727148423 0
l 521 522
v -7.544065067 15.727148423 0
v -8.528872820 15.900796601 0
l 523 524
v -8.528872820 15.900796601 0
v -9.513680573 16.074444779 0
l 525 526
v -9.513680573 16.074444779 0
v -10.498488326 15.900796601 0
l 527 528
v -10.498488326 15.900796601 0
v -11.483296079 15.727148423 0
l 529 530
v -9.513680573 16.074444779 0
v -10.498488326 16.248092956 0
l 531 532
v -10.498488326 16.248092956 0
v -11.483296079 16.074444779 0
l 533 534
v -11.483296079 16.074444779 0
v -12.468103832 15.900796601 0
l 535 536
v -10.498488326 16.248092956 0
v -11.483296079 16.421741134 0
l 537 538
v -11.483296079 16.421741134 0
v -12.468103832 16.595389312 0
l 539 540
v -12.468103832 16.595389312 0
v -13.452911585 16.421741134 0
l 541 542
v -13.452911585 16.421741134 0
v -14.437719338 16.248092956 0
l 543 544
v -14.437719338 16.248092956 0
v -15.303744742 15.748092956 0
l 545 546
v -15.303744742 15.748092956 0
v -16.169770146 15.248092956 0
l 547 548
v -14.437719338 16.248092956 0
v -15.422527091 16.074444779 0
l 549 550
v -15.422527091 16.074444779 0
v -16.288552495 15.574444779 0
l 551 552
v -16.288552495 15.574444779 0
v -17.154577899 15.074444779 0
l 553 554
v -15.422527091 16.074444779 0
v -16.407334844 15.900796601 0
l 555 556
v -16.407334844 15.900796601 0
v -17.392142597 15.727148423 0
l 557 558
v -7.544065067 15.727148423 0
v -8.410090471 16.227148423 0
l 559 560
v -8.410090471 16.227148423 0
v -9.276115875 16.727148423 0
l 561 562
v -9.276115875 16.727148423 0
v -10.260923628 16.900796601 0
l 563 564
v -10.260923628 16.900796601 0
v -11.245731381 17.074444779 0
l 565 566
v -9.276115875 16.727148423 0
v -10.142141279 17.227148423 0
l 567 568
v -10.142141279 17.227148423 0
v -11.126949032 17.400796601 0
l 569 570
v -11.126949032 17.400796601 0
v -12.111756785 17.574444779 0
l 571 572
v -10.142141279 17.227148423 0
v -11.008166682 17.727148423 0
l 573 574
v -11.008166682 17.727148423 0
v -11.874192086 18.227148423 0
l 575 576
v -11.874192086 18.227148423 0
v -12.858999839 18.053500246 0
l 577 578
v -12.858999839 18.053500246 0
v -13.843807592 17.879852068 0
l 579 580
v -13.843807592 17.879852068 0
v -14.709832996 17.379852068 0
l 581 582
v -14.709832996 17.379852068 0
v -15.575858400 16.879852068 0
l 583 584
v -13.843807592 17.879852068 0
v -14.828615345 17.706203890 0
l 585 586
v -14.828615345 17.706203890 0
v -15.694640749 17.206203890 0
l 587 588
v -15.694640749 17.206203890 0
v -16.560666153 16.706203890 0
l 589 590
v -14.828615345 17.706203890 0
v -15.813423098 17.532555713 0
l 591 592
v -15.813423098 17.532555713 0
v -16.798230851 17.358907535 0
l 593 594
v -16.798230851 17.358907535 0
v -17.664256255 16.858907535 0
l 595 596
v -17.664256255 16.858907535 0
v -18.530281659 16.358907535 0
l 597 598
v -18.530281659 16.358907535 0
v -19.173069269 15.592863092 0
l 599 600
v -19.173069269 15.592863092 0
v -19.815856878 14.826818649 0
l 601 602
v -18.530281659 16.358907535 0
v -19.396307063 15.858907535 0
l 603 604
v -19.396307063 15.858907535 0
v -20.039094672 15.092863092 0
l 605 606
v -20.039094672 15.092863092 0
v -20.681882282 14.326818649 0
l 607 608
v -19.396307063 15.858907535 0
v -20.262332466 15.358907535 0
l 609 610
v -20.262332466 15.358907535 0
v -21.128357870 14.858907535 0
l 611 612
v -11.874192086 18.227148423 0
v -12.858999839 18.400796601 0
l 613 614
v -12.858999839 18.400796601 0
v -13.843807592 18.574444779 0
l 615 616
v -13.843807592 18.574444779 0
v -14.828615345 18.400796601 0
l 617 618
v -14.828615345 18.400796601 0
v -15.813423098 18.227148423 0
l 619 620
v -13.843807592 18.574444779 0
v -14.828615345 18.748092956 0
l 621 622
v -14.828615345 18.748092956 0
v -15.813423098 18.574444779 0
l 623 624
v -15.813423098 18.574444779 0
v -16.798230851 18.400796601 0
l 625 626
v -14.828615345 18.748092956 0
v -15.813423098 18.921741134 0
l 627 628
v -15.813423098 18.921741134 0
v -16.798230851 19.095389312 0
l 629 630
v -16.798230851 19.095389312 0
v -17.783038604 18.921741134 0
l 631 632
v -17.783038604 18.921741134 0
v -18.767846357 18.748092956 0
l 633 634
v -18.767846357 18.748092956 0
v -19.633871761 18.248092956 0
l 635 636
v -19.633871761 18.248092956 0
v -20.499897165 17.748092956 0
l 637 638
v -18.767846357 18.748092956 0
v -19.752654110 18.574444779 0
l 639 640
v -19.752654110 18.574444779 0
v -20.618679514 18.074444779 0
l 641 642
v -20.618679514 18.074444779 0
v -21.484704918 17.574444779 0
l 643 644
v -19.752654110 18.574444779 0
v -20.737461863 18.400796601 0
l 645 646
v -20.737461863 18.400796601 0
v -21.722269616 18.227148423 0
l 647 648
v -21.722269616 -3.830222216 0
v -20.856244213 -4.330222216 0
l 649 650
v -20.856244213 -4.330222216 0
v -19.990218809 -4.830222216 0
l 651 652
v -19.990218809 -4.830222216 0
v -19.005411056 -5.003870393 0
l 653 654
v -19.005411056 -5.003870393 0
v -18.020603303 -5.177518571 0
l 655 656
v -19.990218809 -4.830222216 0
v -19.124193405 -5.330222216 0
l 657 658
v -19.124193405 -5.330222216 0
v -18.139385652 -5.503870393 0
l 659 660
v -18.139385652 -5.503870393 0
v -17.154577899 -5.677518571 0
l 661 662
v -19.124193405 -5.330222216 0
v -18.258168001 -5.830222216 0
l 663 664
v -18.258168001 -5.830222216 0
v -17.392142597 -6.330222216 0
l 665 666
v -17.392142597 -6.330222216 0
v -16.407334844 -6.503870393 0
l 667 668
v -16.407334844 -6.503870393 0
v -15.422527091 -6.677518571 0
l 669 670
v -15.422527091 -6.677518571 0
v -14.437719338 -6.503870393 0
l 671 672
v -14.437719338 -6.503870393 0
v -13.452911585 -6.330222216 0
l 673 674
v -15.422527091 -6.677518571 0
v -14.437719338 -6.851166749 0
l 675 676
v -14.437719338 -6.851166749 0
v -13.452911585 -6.677518571 0
l 677 678
v -13.452911585 -6.677518571 0
v -12.468103832 -6.503870393 0
l 679 680
v -14.437719338 -6.851166749 0
v -13.452911585 -7.024814926 0
l 681 682
v -13.452911585 -7.024814926 0
v -12.468103832 -7.198463104 0
l 683 684
v -12.468103832 -7.198463104 0
v -11.602078429 -6.698463104 0
l 685 686
v -11.602078429 -6.698463104 0
v -10.736053025 -6.198463104 0
l 687 688
v -10.736053025 -6.198463104 0
v -10.093265415 -5.432418661 0
l 689 690
v -10.093265415 -5.432418661 0
v -9.450477805 -4.666374218 0
l 691 692
v -10.736053025 -6.198463104 0
v -9.870027621 -5.698463104 0
l 693 694
v -9.870027621 -5.698463104 0
v -9.227240011 -4.932418661 0
l 695 696
v -9.227240011 -4.932418661 0
v -8.584452402 -4.166374218 0
l 697 698
v -9.870027621 -5.698463104 0
v -9.004002217 -5.198463104 0
l 699 700
v -9.004002217 -5.198463104 0
v -8.137976813 -4.698463104 0
l 701 702
v -8.137976813 -4.698463104 0
v -7.495189204 -3.932418661 0
l 703 704
v -7.495189204 -3.932418661 0
v -6.852401594 -3.166374218 0
l 705 706
v -6.852401594 -3.166374218 0
v -6.510381451 -2.226681597 0
l 707 708
v -6.510381451 -2.226681597 0
v -6.168361307 -1.286988976 0
l 709 710
v -6.852401594 -3.166374218 0
v -6.209613984 -2.400329775 0
l 711 712
v -6.209613984 -2.400329775 0
v -5.867593841 -1.460637154 0
l 713 714
v -5.867593841 -1.460637154 0
v -5.525573698 -0.520944533 0
l 715 716
v -6.209613984 -2.400329775 0
v -5.566826375 -1.634285331 0
l 717 718
v -5.566826375 -1.634285331 0
v -4.924038765 -0.868240888 0
l 719 720
v -12.468103832 -7.198463104 0
v -11.483296079 -7.024814926 0
l 721 722
v -11.483296079 -7.024814926 0
v -10.498488326 -6.851166749 0
l 723 724
v -10.498488326 -6.851166749 0
v -9.632462923 -6.351166749 0
l 725 726
v -9.632462923 -6.351166749 0
v -8.766437519 -5.851166749 0
l 727 728
v -10.498488326 -6.851166749 0
v -9.513680573 -6.677518571 0
l 729 730
v -9.513680573 -6.677518571 0
v -8.647655170 -6.177518571 0
l 731 732
v -8.647655170 -6.177518571 0
v -7.781629766 -5.677518571 0
l 733 734
v -9.513680573 -6.677518571 0
v -8.528872820 -6.503870393 0
l 735 736
v -8.528872820 -6.503870393 0
v -7.544065067 -6.330222216 0
l 737 738
v -7.544065067 -6.330222216 0
v -6.901277458 -5.564177772 0
l 739 740
v -6.901277458 -5.564177772 0
v -6.258489848 -4.798133329 0
l 741 742
v -6.258489848 -4.798133329 0
v -5.916469705 -3.858440709 0
l 743 744
v -5.916469705 -3.858440709 0
v -5.574449561 -2.918748088 0
l 745 746
v -6.258489848 -4.798133329 0
v -5.615702238 -4.032088886 0
l 747 748
v -5.615702238 -4.032088886 0
v -5.273682095 -3.092396265 0
l 749 750
v -5.273682095 -3.092396265 0
v -4.931661952 -2.152703645 0
l 751 752
v -5.615702238 -4.032088886 0
v -4.972914629 -3.266044443 0
l 753 754
v -4.972914629 -3.266044443 0
v -4.330127019 -2.500000000 0
l 755 756
v -4.330127019 -2.500000000 0
v -3.988106876 -1.560307379 0
l 757 758
v -3.988106876 -1.560307379 0
v -3.646086732 -0.620614758 0
l 759 760
v -3.646086732 -0.620614758 0
v -3.646086732 0.379385242 0
l 761 762
v -3.646086732 0.379385242 0
v -3.646086732 1.379385242 0
l 763 764
v -3.646086732 -0.620614758 0
v -3.304066589 0.319077862 0
l 765 766
v -3.304066589 0.319077862 0
v -3.304066589 1.319077862 0
l 767 768
v -3.304066589 1.319077862 0
v -3.304066589 2.319077862 0
l 769 770
v -3.304066589 0.319077862 0
v -2.962046446 1.258770483 0
l 771 772
v -2.962046446 1.258770483 0
v -2.620026302 2.198463104 0
l 773 774
v -7.544065067 -6.330222216 0
v -6.678039664 -5.830222216 0
l 775 776
v -6.678039664 -5.830222216 0
v -5.812014260 -5.330222216 0
l 777 778
v -5.812014260 -5.330222216 0
v -5.169226650 -4.564177772 0
l 779 780
v -5.169226650 -4.564177772 0
v -4.526439040 -3.798133329 0
l 781 782
v -5.812014260 -5.330222216 0
v -4.945988856 -4.830222216 0
l 783 784
v -4.945988856 -4.830222216 0
v -4.303201246 -4.064177772 0
l 785 786
v -4.303201246 -4.064177772 0
v -3.660413637 -3.298133329 0
l 787 788
v -4.945988856 -4.830222216 0
v -4.079963452 -4.330222216 0
l 789 790
v -4.079963452 -4.330222216 0
v -3.213938048 -3.830222216 0
l 791 792
v -3.213938048 -3.830222216 0
v -2.571150439 -3.064177772 0
l 793 794
v -2.571150439 -3.064177772 0
v -1.928362829 -2.298133329 0
l 795 796
v -1.928362829 -2.298133329 0
v -1.586342686 -1.358440709 0
l 797 798
v -1.586342686 -1.358440709 0
v -1.244322542 -0.418748088 0
l 799 800
v -1.928362829 -2.298133329 0
v -1.285575219 -1.532088886 0
l 801 802
v -1.285575219 -1.532088886 0
v -0.943555076 -0.592396265 0
l 803 804
v -0.943555076 -0.592396265 0
v -0.601534933 0.347296355 0
l 805 806
v -1.285575219 -1.532088886 0
v -0.642787610 -0.766044443 0
l 807 808
v -0.642787610 -0.766044443 0
v -0.000000000 -0.000000000 0
l 809 810
v -0.000000000 -0.000000000 0
v -0.342020143 0.939692621 0
l 811 812
v -0.342020143 0.939692621 0
v -0.684040287 1.879385242 0
l 813 814
v -0.684040287 1.879385242 0
v -1.326827896 2.645429685 0
l 815 816
v -1.326827896 2.645429685 0
v -1.969615506 3.411474128 0
l 817 818
v -0.684040287 1.879385242 0
v -1.026060430 2.819077862 0
l 819 820
v -1.026060430 2.819077862 0
v -1.668848040 3.585122305 0
l 821 822
v -1.668848040 3.585122305 0
v -2.311635649 4.351166749 0
l 823 824
v -1.026060430 2.819077862 0
v -1.368080573 3.758770483 0
l 825 826
v -1.368080573 3.758770483 0
v -1.710100717 4.698463104 0
l 827 828
v -1.710100717 4.698463104 0
v -2.352888326 5.464507547 0
l 829 830
v -2.352888326 5.464507547 0
v -2.995675936 6.230551990 0
l 831 832
v -2.995675936 6.230551990 0
v -3.861701340 6.730551990 0
l 833 834
v -3.861701340 6.730551990 0
v -4.727726744 7.230551990 0
l 835 836
v -2.995675936 6.230551990 0
v -3.638463546 6.996596433 0
l 837 838
v -3.638463546 6.996596433 0
v -4.504488949 7.496596433 0
l 839 840
v -4.504488949 7.496596433 0
v -5.370514353 7.996596433 0
l 841 842
v -3.638463546 6.996596433 0
v -4.281251155 7.762640876 0
l 843 844
v -4.281251155 7.762640876 0
v -4.924038765 8.528685320 0
l 845 846
v -4.924038765 8.528685320 0
v -5.908846518 8.702333497 0
l 847 848
v -5.908846518 8.702333497 0
v -6.893654271 8.875981675 0
l 849 850
v -6.893654271 8.875981675 0
v -7.878462024 8.702333497 0
l 851 852
v -7.878462024 8.702333497 0
v -8.863269777 8.528685320 0
l 853 854
v -6.893654271 8.875981675 0
v -7.878462024 9.049629853 0
l 855 856
v -7.878462024 9.049629853 0
v -8.863269777 8.875981675 0
l 857 858
v -8.863269777 8.875981675 0
v -9.848077530 8.702333497 0
l 859 860
v -7.878462024 9.049629853 0
v -8.863269777 9.223278030 0
l 861 862
v -8.863269777 9.223278030 0
v -9.848077530 9.396926208 0
l 863 864
v -9.848077530 9.396926208 0
v -10.832885283 9.223278030 0
l 865 866
v -10.832885283 9.223278030 0
v -11.817693036 9.049629853 0
l 867 868
v -11.817693036 9.049629853 0
v -12.683718440 8.549629853 0
l 869 870
v -12.683718440 8.549629853 0
v -13.549743844 8.049629853 0
l 871 872
v -11.817693036 9.049629853 0
v -12.802500789 8.875981675 0
l 873 874
v -12.802500789 8.875981675 0
v -13.668526193 8.375981675 0
l 875 876
v -13.668526193 8.375981675 0
v -14.534551597 7.875981675 0
l 877 878
v -12.802500789 8.875981675 0
v -13.787308542 8.702333497 0
l 879 880
v -13.787308542 8.702333497 0
v -14.772116295 8.528685320 0
l 881 882
v -4.924038765 8.528685320 0
v -5.790064169 9.028685320 0
l 883 884
v -5.790064169 9.028685320 0
v -6.656089573 9.528685320 0
l 885 886
v -6.656089573 9.528685320 0
v -7.640897326 9.702333497 0
l 887 888
v -7.640897326 9.702333497 0
v -8.625705079 9.875981675 0
l 889 890
v -6.656089573 9.528685320 0
v -7.522114976 10.028685320 0
l 891 892
v -7.522114976 10.028685320 0
v -8.506922729 10.202333497 0
l 893 894
v -8.506922729 10.202333497 0
v -9.491730482 10.375981675 0
l 895 896
v -7.522114976 10.028685320 0
v -8.388140380 10.528685320 0
l 897 898
v -8.388140380 10.528685320 0
v -9.254165784 11.028685320 0
l 899 900
v -9.254165784 11.028685320 0
v -10.238973537 10.855037142 0
l 901 902
v -10.238973537 10.855037142 0
v -11.223781290 10.681388964 0
l 903 904
v -11.223781290 10.681388964 0
v -12.089806694 10.181388964 0
l 905 906
v -12.089806694 10.181388964 0
v -12.955832098 9.681388964 0
l 907 908
v -11.223781290 10.681388964 0
v -12.208589043 10.507740787 0
l 909 910
v -12.208589043 10.507740787 0
v -13.074614447 10.007740787 0
l 911 912
v -13.074614447 10.007740787 0
v -13.940639851 9.507740787 0
l 913 914
v -12.208589043 10.507740787 0
v -13.193396796 10.334092609 0
l 915 916
v -13.193396796 10.334092609 0
v -14.178204549 10.160444431 0
l 917 918
v -14.178204549 10.160444431 0
v -15.044229953 9.660444431 0
l 919 920
v -15.044229953 9.660444431 0
v -15.910255357 9.160444431 0
l 921 922
v -15.910255357 9.160444431 0
v -16.553042966 8.394399988 0
l 923 924
v -16.553042966 8.394399988 0
v -17.195830576 7.628355545 0
l 925 926
v -15.910255357 9.160444431 0
v -16.776280760 8.660444431 0
l 927 928
v -16.776280760 8.660444431 0
v -17.419068370 7.894399988 0
l 929 930
v -17.419068370 7.894399988 0
v -18.061855980 7.128355545 0
l 931 932
v -16.776280760 8.660444431 0
v -17.642306164 8.160444431 0
l 933 934
v -17.642306164 8.160444431 0
v -18.508331568 7.660444431 0
l 935 936
v -9.254165784 11.028685320 0
v -10.238973537 11.202333497 0
l 937 938
v -10.238973537 11.202333497 0
v -11.223781290 11.375981675 0
l 939 940
v -11.223781290 11.375981675 0
v -12.208589043 11.202333497 0
l 941 942
v -12.208589043 11.202333497 0
v -13.193396796 11.028685320 0
l 943 944
v -11.223781290 11.375981675 0
v -12.208589043 11.549629853 0
l 945 946
v -12.208589043 11.549629853 0
v -13.193396796 11.375981675 0
l 947 948
v -13.193396796 11.375981675 0
v -14.178204549 11.202333497 0
l 949 950
v -12.208589043 11.549629853 0
v -13.193396796 11.723278030 0
l 951 952
v -13.193396796 11.723278030 0
v -14.178204549 11.896926208 0
l 953 954
v -14.178204549 11.896926208 0
v -15.163012302 11.723278030 0
l 955 956
v -15.163012302 11.723278030 0
v -16.147820055 11.549629853 0
l 957 958
v -16.147820055 11.549629853 0
v -17.013845459 11.049629853 0
l 959 960
v -17.013845459 11.049629853 0
v -17.879870863 10.549629853 0
l 961 962
v -16.147820055 11.549629853 0
v -17.132627808 11.375981675 0
l 963 964
v -17.132627808 11.375981675 0
v -17.998653212 10.875981675 0
l 965 966
v -17.998653212 10.875981675 0
v -18.864678616 10.375981675 0
l 967 968
v -17.132627808 11.375981675 0
v -18.117435561 11.202333497 0
l 969 970
v -18.117435561 11.202333497 0
v -19.102243314 11.028685320 0
l 971 972
v -19.102243314 11.028685320 0
v -19.745030924 10.262640876 0
l 973 974
v -19.745030924 10.262640876 0
v -20.387818533 9.496596433 0
l 975 976
v -20.387818533 9.496596433 0
v -20.729838677 8.556903813 0
l 977 978
v -20.729838677 8.556903813 0
v -21.071858820 7.617211192 0
l 979 980
v -20.387818533 9.496596433 0
v -21.030606143 8.730551990 0
l 981 982
v -21.030606143 8.730551990 0
v -21.372626286 7.790859369 0
l 983 984
v -21.372626286 7.790859369 0
v -21.714646430 6.851166749 0
l 985 986
v -21.030606143 8.730551990 0
v -21.673393753 7.964507547 0
l 987 988
v -21.673393753 7.964507547 0
v -22.316181363 7.198463104 0
l 989 990
v -22.316181363 7.198463104 0
v -22.658201506 6.258770483 0
l 991 992
v -22.658201506 6.258770483 0
v -23.000221649 5.319077862 0
l 993 994
v -23.000221649 5.319077862 0
v -23.000221649 4.319077862 0
l 995 996
v -23.000221649 4.319077862 0
v -23.000221649 3.319077862 0
l 997 998
v -23.000221649 5.319077862 0
v -23.342241793 4.379385242 0
l 999 1000
v -23.342241793 4.379385242 0
v -23.342241793 3.379385242 0
l 1001 1002
v -23.342241793 3.379385242 0
v -23.342241793 2.379385242 0
l 1003 1004
v -23.342241793 4.379385242 0
v -23.684261936 3.439692621 0
l 1005 1006
v -23.684261936 3.439692621 0
v -24.026282079 2.500000000 0
l 1007 1008
v -24.026282079 2.500000000 0
v -23.684261936 1.560307379 0
l 1009 1010
v -23.684261936 1.560307379 0
v -23.342241793 0.620614758 0
l 1011 1012
v -23.342241793 0.620614758 0
v -22.699454183 -0.145429685 0
l 1013 1014
v -22.699454183 -0.145429685 0
v -22.056666573 -0.911474128 0
l 1015 1016
v -23.342241793 0.620614758 0
v -23.000221649 -0.319077862 0
l 1017 1018
v -23.000221649 -0.319077862 0
v -22.357434040 -1.085122305 0
l 1019 1020
v -22.357434040 -1.085122305 0
v -21.714646430 -1.851166749 0
l 1021 1022
v -23.000221649 -0.319077862 0
v -22.658201506 -1.258770483 0
l 1023 1024
v -22.658201506 -1.258770483 0
v -22.316181363 -2.198463104 0
l 1025 1026
v -22.316181363 -2.198463104 0
v -21.673393753 -2.964507547 0
l 1027 1028
v -21.673393753 -2.964507547 0
v -21.030606143 -3.730551990 0
l 1029 1030
v -21.030606143 -3.730551990 0
v -20.164580739 -4.230551990 0
l 1031 1032
v -20.164580739 -4.230551990 0
v -19.298555336 -4.730551990 0
l 1033 1034
v -21.030606143 -3.730551990 0
v -20.387818533 -4.496596433 0
l 1035 1036
v -20.387818533 -4.496596433 0
v -19.521793130 -4.996596433 0
l 1037 1038
v -19.521793130 -4.996596433 0
v -18.655767726 -5.496596433 0
l 1039 1040
v -20.387818533 -4.496596433 0
v -19.745030924 -5.262640876 0
l 1041 1042
v -19.745030924 -5.262640876 0
v -19.102243314 -6.028685320 0
l 1043 1044
v -24.026282079 2.500000000 0
v -24.026282079 1.500000000 0
l 1045 1046
v -24.026282079 1.500000000 0
v -24.026282079 0.500000000 0
l 1047 1048
v -24.026282079 0.500000000 0
v -23.684261936 -0.439692621 0
l 1049 1050
v -23.684261936 -0.439692621 0
v -23.342241793 -1.379385242 0
l 1051 1052
v -24.026282079 0.500000000 0
v -24.026282079 -0.500000000 0
l 1053 1054
v -24.026282079 -0.500000000 0
v -23.684261936 -1.439692621 0
l 1055 1056
v -23.684261936 -1.439692621 0
v -23.342241793 -2.379385242 0
l 1057 1058
v -24.026282079 -0.500000000 0
v -24.026282079 -1.500000000 0
l 1059 1060
v -24.026282079 -1.500000000 0
v -24.026282079 -2.500000000 0
l 1061 1062
v -24.026282079 -2.500000000 0
v -23.383494469 -3.266044443 0
l 1063 1064
v -23.383494469 -3.266044443 0
v -22.740706860 -4.032088886 0
l 1065 1066
v -22.740706860 -4.032088886 0
v -21.874681456 -4.532088886 0
l 1067 1068
v -21.874681456 -4.532088886 0
v -21.008656052 -5.032088886 0
l 1069 1070
v -22.740706860 -4.032088886 0
v -22.097919250 -4.798133329 0
l 1071 1072
v -22.097919250 -4.798133329 0
v -21.231893846 -5.298133329 0
l 1073 1074
v -21.231893846 -5.298133329 0
v -20.365868443 -5.798133329 0
l 1075 1076
v -22.097919250 -4.798133329 0
v -21.455131640 -5.564177772 0
l 1077 1078
v -21.455131640 -5.564177772 0
v -20.812344031 -6.330222216 0
l 1079 1080
v -20.812344031 -6.330222216 0
v -19.946318627 -6.830222216 0
l 1081 1082
v -19.946318627 -6.830222216 0
v -19.080293223 -7.330222216 0
l 1083 1084
v -19.080293223 -7.330222216 0
v -18.095485470 -7.503870393 0
l 1085 1086
v -18.095485470 -7.503870393 0
v -17.110677717 -7.677518571 0
l 1087 1088
v -19.080293223 -7.330222216 0
v -18.214267819 -7.830222216 0
l 1089 1090
v -18.214267819 -7.830222216 0
v -17.229460066 -8.003870393 0
l 1091 1092
v -17.229460066 -8.003870393 0
v -16.244652313 -8.177518571 0
l 1093 1094
v -18.214267819 -7.830222216 0
v -17.348242416 -8.330222216 0
l 1095 1096
v -17.348242416 -8.330222216 0
v -16.482217012 -8.830222216 0
l 1097 1098
v -24.026282079 -2.500000000 0
v -23.684261936 -3.439692621 0
l 1099 1100
v -23.684261936 -3.439692621 0
v -23.342241793 -4.379385242 0
l 1101 1102
v -23.342241793 -4.379385242 0
v -22.699454183 -5.145429685 0
l 1103 1104
v -22.699454183 -5.145429685 0
v -22.056666573 -5.911474128 0
l 1105 1106
v -23.342241793 -4.379385242 0
v -23.000221649 -5.319077862 0
l 1107 1108
v -23.000221649 -5.319077862 0
v -22.357434040 -6.085122305 0
l 1109 1110
v -22.357434040 -6.085122305 0
v -21.714646430 -6.851166749 0
l 1111 1112
v -23.000221649 -5.319077862 0
v -22.658201506 -6.258770483 0
l 1113 1114
v -22.658201506 -6.258770483 0
v -22.316181363 -7.198463104 0
l 1115 1116
v -22.316181363 -7.198463104 0
v -21.673393753 -7.964507547 0
l 1117 1118
v -21.673393753 -7.964507547 0
v -21.030606143 -8.730551990 0
l 1119 1120
v -21.030606143 -8.730551990 0
v -20.164580739 -9.230551990 0
l 1121 1122
v -20.164580739 -9.230551990 0
v -19.298555336 -9.730551990 0
l 1123 1124
v -21.030606143 -8.730551990 0
v -20.387818533 -9.496596433 0
l 1125 1126
v -20.387818533 -9.496596433 0
v -19.521793130 -9.996596433 0
l 1127 1128
v -19.521793130 -9.996596433 0
v -18.655767726 -10.496596433 0
l 1129 1130
v -20.387818533 -9.496596433 0
v -19.745030924 -10.262640876 0
l 1131 1132
v -19.745030924 -10.262640876 0
v -19.102243314 -11.028685320 0
l 1133 1134
v -0.000000000 -0.000000000 0
v 0.000000000 1.000000000 0
l 1135 1136
v 0.000000000 1.000000000 0
v 0.000000000 2.000000000 0
l 1137 1138
v 0.000000000 2.000000000 0
v -0.342020143 2.939692621 0
l 1139 1140
v -0.342020143 2.939692621 0
v -0.684040287 3.879385242 0
l 1141 1142
v 0.000000000 2.000000000 0
v 0.000000000 3.000000000 0
l 1143 1144
v 0.000000000 3.000000000 0
v -0.342020143 3.939692621 0
l 1145 1146
v -0.342020143 3.939692621 0
v -0.684040287 4.879385242 0
l 1147 1148
v 0.000000000 3.000000000 0
v 0.000000000 4.000000000 0
l 1149 1150
v 0.000000000 4.000000000 0
v 0.000000000 5.000000000 0
l 1151 1152
v 0.000000000 5.000000000 0
v -0.342020143 5.939692621 0
l 1153 1154
v -0.342020143 5.939692621 0
v -0.684040287 6.879385242 0
l 1155 1156
v -0.684040287 6.879385242 0
v -1.326827896 7.645429685 0
l 1157 1158
v -1.326827896 7.645429685 0
v -1.969615506 8.411474128 0
l 1159 1160
v -0.684040287 6.879385242 0
v -1.026060430 7.819077862 0
l 1161 1162
v -1.026060430 7.819077862 0
v -1.668848040 8.585122305 0
l 1163 1164
v -1.668848040 8.585122305 0
v -2.311635649 9.351166749 0
l 1165 1166
v -1.026060430 7.819077862 0
v -1.368080573 8.758770483 0
l 1167 1168
v -1.368080573 8.758770483 0
v -1.710100717 9.698463104 0
l 1169 1170
v -1.710100717 9.698463104 0
v -2.576126120 10.198463104 0
l 1171 1172
v -2.576126120 10.198463104 0
v -3.442151524 10.698463104 0
l 1173 1174
v -3.442151524 10.698463104 0
v -4.426959277 10.872111282 0
l 1175 1176
v -4.426959277 10.872111282 0
v -5.411767030 11.045759459 0
l 1177 1178
v -3.442151524 10.698463104 0
v -4.308176928 11.198463104 0
l 1179 1180
v -4.308176928 11.198463104 0
v -5.292984681 11.372111282 0
l 1181 1182
v -5.292984681 11.372111282 0
v -6.277792434 11.545759459 0
l 1183 1184
v -4.308176928 11.198463104 0
v -5.174202332 11.698463104 0
l 1185 1186
v -5.174202332 11.698463104 0
v -6.040227736 12.198463104 0
l 1187 1188
v -6.040227736 12.198463104 0
v -7.025035489 12.372111282 0
l 1189 1190
v -7.025035489 12.372111282 0
v -8.009843242 12.545759459 0
l 1191 1192
v -8.009843242 12.545759459 0
v -8.994650995 12.372111282 0
l 1193 1194
v -8.994650995 12.372111282 0
v -9.979458748 12.198463104 0
l 1195 1196
v -8.009843242 12.545759459 0
v -8.994650995 12.719407637 0
l 1197 1198
v -8.994650995 12.719407637 0
v -9.979458748 12.545759459 0
l 1199 1200
v -9.979458748 12.545759459 0
v -10.964266501 12.372111282 0
l 1201 1202
v -8.994650995 12.719407637 0
v -9.979458748 12.893055815 0
l 1203 1204
v -9.979458748 12.893055815 0
v -10.964266501 13.066703992 0
l 1205 1206
v -1.710100717 9.698463104 0
v -2.352888326 10.464507547 0
l 1207 1208
v -2.352888326 10.464507547 0
v -2.995675936 11.230551990 0
l 1209 1210
v -2.995675936 11.230551990 0
v -3.861701340 11.730551990 0
l 1211 1212
v -3.861701340 11.730551990 0
v -4.727726744 12.230551990 0
l 1213 1214
v -2.995675936 11.230551990 0
v -3.638463546 11.996596433 0
l 1215 1216
v -3.638463546 11.996596433 0
v -4.504488949 12.496596433 0
l 1217 1218
v -4.504488949 12.496596433 0
v -5.370514353 12.996596433 0
l 1219 1220
v -3.638463546 11.996596433 0
v -4.281251155 12.762640876 0
l 1221 1222
v -4.281251155 12.762640876 0
v -4.924038765 13.528685320 0
l 1223 1224
v -4.924038765 13.528685320 0
v -5.908846518 13.702333497 0
l 1225 1226
v -5.908846518 13.702333497 0
v -6.893654271 13.875981675 0
l 1227 1228
v -6.893654271 13.875981675 0
v -7.878462024 13.702333497 0
l 1229 1230
v -7.878462024 13.702333497 0
v -8.863269777 13.528685320 0
l 1231 1232
v -6.893654271 13.875981675 0
v -7.878462024 14.049629853 0
l 1233 1234
v -7.878462024 14.049629853 0
v -8.863269777 13.875981675 0
l 1235 1236
v -8.863269777 13.875981675 0
v -9.848077530 13.702333497 0
l 1237 1238
v -7.878462024 14.049629853 0
v -8.863269777 14.223278030 0
l 1239 1240
v -8.863269777 14.223278030 0
v -9.848077530 14.396926208 0
l 1241 1242
v -9.848077530 14.396926208 0
v -10.832885283 14.223278030 0
l 1243 1244
v -10.832885283 14.223278030 0
v -11.817693036 14.049629853 0
l 1245 1246
v -11.817693036 14.049629853 0
v -12.683718440 13.549629853 0
l 1247 1248
v -12.683718440 13.549629853 0
v -13.549743844 13.049629853 0
l 1249 1250
v -11.817693036 14.049629853 0
v -12.802500789 13.875981675 0
l 1251 1252
v -12.802500789 13.875981675 0
v -13.668526193 13.375981675 0
l 1253 1254
v -13.668526193 13.375981675 0
v -14.534551597 12.875981675 0
l 1255 1256
v -12.802500789 13.875981675 0
v -13.787308542 13.702333497 0
l 1257 1258
v -13.787308542 13.702333497 0
v -14.772116295 13.528685320 0
l 1259 1260
v -4.924038765 13.528685320 0
v -5.790064169 14.028685320 0
l 1261 1262
v -5.790064169 14.028685320 0
v -6.656089573 14.528685320 0
l 1263 1264
v -6.656089573 14.528685320 0
v -7.640897326 14.702333497 0
l 1265 1266
v -7.640897326 14.702333497 0
v -8.625705079 14.875981675 0
l 1267 1268
v -6.656089573 14.528685320 0
v -7.522114976 15.028685320 0
l 1269 1270
v -7.522114976 15.028685320 0
v -8.506922729 15.202333497 0
l 1271 1272
v -8.506922729 15.202333497 0
v -9.491730482 15.375981675 0
l 1273 1274
v -7.522114976 15.028685320 0
v -8.388140380 15.528685320 0
l 1275 1276
v -8.388140380 15.528685320 0
v -9.254165784 16.028685320 0
l 1277 1278
v -9.254165784 16.028685320 0
v -10.238973537 16.202333497 0
l 1279 1280
v -10.238973537 16.202333497 0
v -11.223781290 16.375981675 0
l 1281 1282
v -11.223781290 16.375981675 0
v -12.208589043 16.202333497 0
l 1283 1284
v -12.208589043 16.202333497 0
v -13.193396796 16.028685320 0
l 1285 1286
v -11.223781290 16.375981675 0
v -12.208589043 16.549629853 0
l 1287 1288
v -12.208589043 16.549629853 0
v -13.193396796 16.375981675 0
l 1289 1290
v -13.193396796 16.375981675 0
v -14.178204549 16.202333497 0
l 1291 1292
v -12.208589043 16.549629853 0
v -13.193396796 16.723278030 0
l 1293 1294
v -13.193396796 16.723278030 0
v -14.178204549 16.896926208 0
l 1295 1296
v -14.178204549 16.896926208 0
v -15.044229953 16.396926208 0
l 1297 1298
v -15.044229953 16.396926208 0
v -15.910255357 15.896926208 0
l 1299 1300
v -15.910255357 15.896926208 0
v -16.553042966 15.130881765 0
l 1301 1302
v -16.553042966 15.130881765 0
v -17.195830576 14.364837322 0
l 1303 1304
v -15.910255357 15.896926208 0
v -16.776280760 15.396926208 0
l 1305 1306
v -16.776280760 15.396926208 0
v -17.419068370 14.630881765 0
l 1307 1308
v -17.419068370 14.630881765 0
v -18.061855980 13.864837322 0
l 1309 1310
v -16.776280760 15.396926208 0
v -17.642306164 14.896926208 0
l 1311 1312
v -17.642306164 14.896926208 0
v -18.508331568 14.396926208 0
l 1313 1314
v -18.508331568 14.396926208 0
v -19.151119178 13.630881765 0
l 1315 1316
v -19.151119178 13.630881765 0
v -19.793906787 12.864837322 0
l 1317 1318
v -19.793906787 12.864837322 0
v -20.135926931 11.925144701 0
l 1319 1320
v -20.135926931 11.925144701 0
v -20.477947074 10.985452080 0
l 1321 1322
v -19.793906787 12.864837322 0
v -20.436694397 12.098792879 0
l 1323 1324
v -20.436694397 12.098792879 0
v -20.778714540 11.159100258 0
l 1325 1326
v -20.778714540 11.159100258 0
v -21.120734684 10.219407637 0
l 1327 1328
v -20.436694397 12.098792879 0
v -21.079482007 11.332748435 0
l 1329 1330
v -21.079482007 11.332748435 0
v -21.722269616 10.566703992 0
l 1331 1332
v -21.722269616 10.566703992 0
v -21.722269616 9.566703992 0
l 1333 1334
v -21.722269616 9.566703992 0
v -21.722269616 8.566703992 0
l 1335 1336
v -21.722269616 8.566703992 0
v -21.380249473 7.627011371 0
l 1337 1338
v -21.380249473 7.627011371 0
v -21.038229330 6.687318751 0
l 1339 1340
v -21.722269616 8.566703992 0
v -21.722269616 7.566703992 0
l 1341 1342
v -21.722269616 7.566703992 0
v -21.380249473 6.627011371 0
l 1343 1344
v -21.380249473 6.627011371 0
v -21.038229330 5.687318751 0
l 1345 1346
v -21.722269616 7.566703992 0
v -21.722269616 6.566703992 0
l 1347 1348
v -21.722269616 6.566703992 0
v -21.722269616 5.566703992 0
l 1349 1350
v -21.722269616 5.566703992 0
v -21.380249473 4.627011371 0
l 1351 1352
v -21.380249473 4.627011371 0
v -21.038229330 3.687318751 0
l 1353 1354
v -21.038229330 3.687318751 0
v -20.395441720 2.921274308 0
l 1355 1356
v -20.395441720 2.921274308 0
v -19.752654110 2.155229864 0
l 1357 1358
v -21.038229330 3.687318751 0
v -20.696209186 2.747626130 0
l 1359 1360
v -20.696209186 2.747626130 0
v -20.053421577 1.981581687 0
l 1361 1362
v -20.053421577 1.981581687 0
v -19.410633967 1.215537244 0
l 1363 1364
v -20.696209186 2.747626130 0
v -20.354189043 1.807933509 0
l 1365 1366
v -20.354189043 1.807933509 0
v -20.012168900 0.868240888 0
l 1367 1368
v -21.722269616 10.566703992 0
v -22.064289760 9.627011371 0
l 1369 1370
v -22.064289760 9.627011371 0
v -22.406309903 8.687318751 0
l 1371 1372
v -22.406309903 8.687318751 0
v -22.406309903 7.687318751 0
l 1373 1374
v -22.406309903 7.687318751 0
v -22.406309903 6.687318751 0
l 1375 1376
v -22.406309903 8.687318751 0
v -22.748330046 7.747626130 0
l 1377 1378
v -22.748330046 7.747626130 0
v -22.748330046 6.747626130 0
l 1379 1380
v -22.748330046 6.747626130 0
v -22.748330046 5.747626130 0
l 1381 1382
v -22.748330046 7.747626130 0
v -23.090350190 6.807933509 0
l 1383 1384
v -23.090350190 6.807933509 0
v -23.432370333 5.868240888 0
l 1385 1386
v -23.432370333 5.868240888 0
v -23.090350190 4.928548268 0
l 1387 1388
v -23.090350190 4.928548268 0
v -22.748330046 3.988855647 0
l 1389 1390
v -22.748330046 3.988855647 0
v -22.105542437 3.222811204 0
l 1391 1392
v -22.105542437 3.222811204 0
v -21.462754827 2.456766761 0
l 1393 1394
v -22.748330046 3.988855647 0
v -22.406309903 3.049163026 0
l 1395 1396
v -22.406309903 3.049163026 0
v -21.763522293 2.283118583 0
l 1397 1398
v -21.763522293 2.283118583 0
v -21.120734684 1.517074140 0
l 1399 1400
v -22.406309903 3.049163026 0
v -22.064289760 2.109470405 0
l 1401 1402
v -22.064289760 2.109470405 0
v -21.722269616 1.169777784 0
l 1403 1404
v -21.722269616 1.169777784 0
v -21.079482007 0.403733341 0
l 1405 1406
v -21.079482007 0.403733341 0
v -20.436694397 -0.362311102 0
l 1407 1408
v -20.436694397 -0.362311102 0
v -19.570668993 -0.862311102 0
l 1409 1410
v -19.570668993 -0.862311102 0
v -18.704643589 -1.362311102 0
l 1411 1412
v -20.436694397 -0.362311102 0
v -19.793906787 -1.128355545 0
l 1413 1414
v -19.793906787 -1.128355545 0
v -18.927881384 -1.628355545 0
l 1415 1416
v -18.927881384 -1.628355545 0
v -18.061855980 -2.128355545 0
l 1417 1418
v -19.793906787 -1.128355545 0
v -19.151119178 -1.894399988 0
l 1419 1420
v -19.151119178 -1.894399988 0
v -18.508331568 -2.660444431 0
l 1421 1422
v -23.432370333 5.868240888 0
v -23.432370333 4.868240888 0
l 1423 1424
v -23.432370333 4.868240888 0
v -23.432370333 3.868240888 0
l 1425 1426
v -23.432370333 3.868240888 0
v -23.090350190 2.928548268 0
l 1427 1428
v -23.090350190 2.928548268 0
v -22.748330046 1.988855647 0
l 1429 1430
v -23.432370333 3.868240888 0
v -23.432370333 2.868240888 0
l 1431 1432
v -23.432370333 2.868240888 0
v -23.090350190 1.928548268 0
l 1433 1434
v -23.090350190 1.928548268 0
v -22.748330046 0.988855647 0
l 1435 1436
v -23.432370333 2.868240888 0
v -23.432370333 1.868240888 0
l 1437 1438
v -23.432370333 1.868240888 0
v -23.432370333 0.868240888 0
l 1439 1440
v -23.432370333 0.868240888 0
v -23.090350190 -0.071451732 0
l 1441 1442
v -23.090350190 -0.071451732 0
v -22.748330046 -1.011144353 0
l 1443 1444
v -22.748330046 -1.011144353 0
v -22.105542437 -1.777188796 0
l 1445 1446
v -22.105542437 -1.777188796 0
v -21.462754827 -2.543233239 0
l 1447 1448
v -22.748330046 -1.011144353 0
v -22.406309903 -1.950836974 0
l 1449 1450
v -22.406309903 -1.950836974 0
v -21.763522293 -2.716881417 0
l 1451 1452
v -21.763522293 -2.716881417 0
v -21.120734684 -3.482925860 0
l 1453 1454
v -22.406309903 -1.950836974 0
v -22.064289760 -2.890529595 0
l 1455 1456
v -22.064289760 -2.890529595 0
v -21.722269616 -3.830222216 0
l 1457 1458
